<svg version="1.1" id="Шар_1" xmlns="http://www.w3.org/2000/svg" x="0" y="0" viewBox="0 0 480 480" xml:space="preserve"><style>.st0{fill:#333}</style><path class="st0" d="M295.2 248h8.8c17.7 0 32-14.3 32-32s-14.3-32-32-32v-8c0-4.4-3.6-8-8-8H184c-4.4 0-8 3.6-8 8v40c0 35.3 28.7 64 64 64 22.8.1 43.9-12.1 55.2-32zm24.8-32c0 8.8-7.2 16-16 16h-2c.1-.3.1-.6.2-.8.4-1.7.7-3.4 1-5 .1-.8.3-1.6.4-2.4.3-2.6.5-5.1.5-7.7v-16c8.7-.1 15.9 7.1 15.9 15.9zm-80 48c-26.5 0-48-21.5-48-48v-32h96v32c0 7.1-1.6 14.2-4.7 20.6-7.8 16.8-24.7 27.5-43.3 27.4z"/><path class="st0" d="M312 288c0-4.4-3.6-8-8-8H176c-4.4 0-8 3.6-8 8s3.6 8 8 8h128c4.4 0 8-3.6 8-8zm-52.4-169.3c-6.7 3.3-11.1 9.9-11.6 17.3 0 4.4 3.6 8 8 8s8-3.6 8-8c0-.9 1.3-1.9 4.4-4 6.7-3.3 11.1-9.9 11.6-17.3-.4-7.4-4.9-14.1-11.6-17.3-3.1-2.1-4.4-3.1-4.4-4s1.3-1.9 4.4-4c6.7-3.3 11.1-9.9 11.6-17.3 0-4.4-3.6-8-8-8s-8 3.6-8 8c0 .9-1.3 1.9-4.4 4-6.7 3.2-11.1 9.9-11.6 17.3.4 7.4 4.9 14.1 11.6 17.3 3.1 2.1 4.4 3.1 4.4 4 0 .8-1.3 1.9-4.4 4zm-40 16c-6.7 3.3-11.1 9.9-11.6 17.3 0 4.4 3.6 8 8 8s8-3.6 8-8c0-.9 1.3-1.9 4.4-4 6.7-3.3 11.1-9.9 11.6-17.3-.4-7.4-4.9-14.1-11.6-17.3-3.1-2.1-4.4-3.1-4.4-4s1.3-1.9 4.4-4c6.7-3.3 11.1-9.9 11.6-17.3 0-4.4-3.6-8-8-8s-8 3.6-8 8c0 .9-1.3 1.9-4.4 4-6.7 3.2-11.1 9.9-11.6 17.3.4 7.4 4.9 14.1 11.6 17.3 3.1 2.1 4.4 3.1 4.4 4 0 .8-1.3 1.9-4.4 4z"/><path class="st0" d="M302.8 387.2C356.6 320.3 416 233.4 416 176 416 78.8 337.2 0 240 0S64 78.8 64 176c0 57.4 59.4 144.3 113.2 211.2C140.2 391.1 72 402.5 72 432c0 33 87.1 48 168 48s168-15 168-48c0-29.5-68.2-40.9-105.2-44.8zM240 16c88.3.1 159.9 71.7 160 160 0 43.7-42.3 119.2-119 212.7-17.9 21.7-33.1 38.8-41 47.5-1-1.1-2.1-2.3-3.3-3.6-8.5-9.4-22.1-24.8-37.7-43.8C122.3 295.2 80 219.7 80 176c.1-88.3 71.7-159.9 160-160zm0 448c-98.3 0-152-21.1-152-32 0-7.6 29.8-23.9 101.3-29.9l.9 1.1c1 1.2 1.9 2.3 2.9 3.5.6.7 1.2 1.4 1.8 2.2l2.7 3.2 1.9 2.3 2.4 2.9 1.8 2.2 2.5 2.9 1.6 1.8 2.5 2.8 1.4 1.6 2.4 2.8 1 1.2 2.6 3 .4.5 2.8 3.1.4.4 2.5 2.8.4.4c6.1 6.8 9.8 10.7 9.9 10.8 1.5 1.6 3.6 2.5 5.8 2.5 2.2 0 4.3-.9 5.8-2.5.1-.1 3.8-4 9.9-10.9l.3-.4c.8-.9 1.7-1.9 2.6-2.9l.3-.3 2.8-3.1.5-.5 2.6-3 1-1.1 2.6-3 1.2-1.3 2.7-3.1 1.3-1.5 2.8-3.2 1.5-1.8c.9-1.1 1.9-2.2 2.9-3.3l1.5-1.8 3.2-3.8 1.3-1.6 3.4-4.1.6-.8c71.5 6.1 101.3 22.4 101.3 30 0 10.8-53.7 31.9-152 31.9z"/></svg>