<svg version="1.1" id="Шар_1" xmlns="http://www.w3.org/2000/svg" x="0" y="0" viewBox="0 0 470 470" xml:space="preserve"><style>.st0{fill:#333}</style><path class="st0" d="M235 148c40.8 0 74-33.2 74-74S275.8 0 235 0s-74 33.2-74 74 33.2 74 74 74zm0-133c32.5 0 59 26.5 59 59s-26.5 59-59 59-59-26.5-59-59 26.5-59 59-59zm0 163c59.8 0 108.9 46.7 112.8 105.5H174.5c-4.1 0-7.5 3.4-7.5 7.5s3.4 7.5 7.5 7.5h181.1c4.1 0 7.5-3.4 7.5-7.5 0-70.6-57.4-128-128-128s-128 57.4-128 128c0 4.1 3.4 7.5 7.5 7.5h30c4.1 0 7.5-3.4 7.5-7.5s-3.4-7.5-7.5-7.5h-22.3C126.1 224.7 175.2 178 235 178zm-94.6 199.7l-41.1-6.9-19.3-37c-1.3-2.5-3.9-4-6.7-4s-5.4 1.6-6.7 4l-19.3 37-41.1 6.9c-2.8.5-5 2.4-5.9 5.1-.9 2.7-.2 5.6 1.8 7.6l29.2 29.8-6.1 41.3c-.4 2.8.7 5.5 3 7.2 2.3 1.6 5.2 1.9 7.8.6l37.3-18.6 37.3 18.6c1.1.5 2.2.8 3.3.8 1.6 0 3.1-.5 4.4-1.4 2.3-1.6 3.4-4.4 3-7.2l-6.1-41.3 29.2-29.8c2-2 2.6-4.9 1.8-7.6-.8-2.7-3-4.6-5.8-5.1zM102 412.3c-1.6 1.7-2.4 4-2.1 6.4l4.6 30.7-27.8-13.8c-2.1-1-4.6-1-6.7 0l-27.8 13.8 4.6-30.7c.3-2.3-.4-4.7-2.1-6.4l-21.8-22.2 30.6-5.1c2.3-.4 4.3-1.8 5.4-3.9l14.4-27.5L87.7 381c1.1 2.1 3.1 3.5 5.4 3.9l30.6 5.1c0 .1-21.7 22.3-21.7 22.3zm200.1-34.6l-41.1-6.9-19.3-37c-1.3-2.5-3.9-4-6.7-4s-5.4 1.6-6.7 4l-19.3 37-41.1 6.9c-2.8.5-5 2.4-5.9 5.1-.9 2.7-.2 5.6 1.8 7.6l29.2 29.8-6.1 41.3c-.4 2.8.7 5.5 3 7.2 2.3 1.6 5.2 1.9 7.8.6l37.3-18.6 37.3 18.6c1.1.5 2.2.8 3.3.8 1.6 0 3.1-.5 4.4-1.4 2.3-1.6 3.4-4.4 3-7.2l-6.1-41.3 29.2-29.8c2-2 2.6-4.9 1.8-7.6-.8-2.7-3.1-4.6-5.8-5.1zm-38.5 34.6c-1.6 1.7-2.4 4-2.1 6.4l4.6 30.7-27.8-13.8c-1.1-.5-2.2-.8-3.3-.8s-2.3.3-3.3.8l-27.8 13.8 4.6-30.7c.3-2.3-.4-4.7-2.1-6.4l-21.8-22.2 30.6-5.1c2.3-.4 4.3-1.8 5.4-3.9l14.4-27.5 14.4 27.5c1.1 2.1 3.1 3.5 5.4 3.9l30.6 5.1-21.8 22.2zm206-29.5c-.9-2.7-3.1-4.6-5.9-5.1l-41.1-6.9-19.3-37c-1.3-2.5-3.9-4-6.7-4s-5.4 1.6-6.7 4l-19.3 37-41.1 6.9c-2.8.5-5 2.4-5.9 5.1-.9 2.7-.2 5.6 1.8 7.6l29.2 29.8-6.1 41.3c-.4 2.8.7 5.5 3 7.2 2.3 1.6 5.2 1.9 7.8.6l37.3-18.6 37.3 18.6c1.1.5 2.2.8 3.3.8 1.6 0 3.1-.5 4.4-1.4 2.3-1.6 3.4-4.4 3-7.2l-6.1-41.3 29.2-29.8c2.1-2 2.8-5 1.9-7.6zm-44.3 29.5c-1.6 1.7-2.4 4-2.1 6.4l4.6 30.7-27.8-13.9c-1.1-.5-2.2-.8-3.3-.8-1.1 0-2.3.3-3.3.8l-27.8 13.8 4.6-30.7c.3-2.3-.4-4.7-2.1-6.4L346.3 390l30.6-5.1c2.3-.4 4.3-1.8 5.4-3.9l14.4-27.5L411 381c1.1 2.1 3.1 3.5 5.4 3.9L447 390l-21.7 22.3z"/><path class="st0" d="M235 108c9.8 0 19.2-4.3 25.7-11.7 2.7-3.1 2.4-7.9-.7-10.6-3.1-2.7-7.9-2.4-10.6.7-3.6 4.2-8.9 6.6-14.3 6.6s-10.7-2.4-14.3-6.6c-2.7-3.1-7.5-3.5-10.6-.7-3.1 2.7-3.5 7.5-.7 10.6 6.3 7.4 15.7 11.7 25.5 11.7z"/></svg>