<svg xmlns="http://www.w3.org/2000/svg" viewBox="0 0 512 512"><path d="M393.2 105.9c9.3-10 15.1-23.6 15.1-38.6 0-31.3-25-56.3-55.3-56.3-23 0-76 34.4-97.2 65.3C233.9 45.4 181.1 12 159 12c-30.2 0-55.3 25-55.3 56.3 0 14.5 5.4 27.6 14.1 37.5H11v134.5h29.2V501h431.7V240.4H501V105.9H393.2zm-40.2-74c18.8 0 34.4 15.6 34.4 36.5 0 17.6-12.3 32.7-28.2 35.9h-84.6c-5.4-1.6-7.1-3.5-7.1-4.6 0-17.8 62.5-67.8 85.5-67.8zm-194 0c21.9 0 85.5 50 85.5 67.8 0 1.6-3.7 3.4-6.4 4.6h-85.2c-15.9-3.2-28.2-18.3-28.2-35.9-.1-19.9 15.6-36.5 34.3-36.5zm34.4 448.2H61V240.4h132.4v239.7zm0-259.5H31.9v-93.8h161.6v93.8h-.1zm104.2 259.5h-83.4V126.7h83.4v353.4zm153.3 0H318.5V240.4h132.4v239.7zM480 220.6H318.5v-93.8h161.6v93.8h-.1z" fill="#333"/></svg>