<svg xmlns="http://www.w3.org/2000/svg" xmlns:xlink="http://www.w3.org/1999/xlink" width="68" height="68"><defs><path id="a" d="M1826 1648c0 6.17-1.52 11.86-4.56 17.07a33.87 33.87 0 0 1-12.37 12.37A33.27 33.27 0 0 1 1792 1682a33.27 33.27 0 0 1-17.07-4.56 33.87 33.87 0 0 1-12.37-12.37A33.27 33.27 0 0 1 1758 1648c0-6.17 1.52-11.86 4.56-17.07a33.85 33.85 0 0 1 12.37-12.37A33.26 33.26 0 0 1 1792 1614c6.17 0 11.86 1.52 17.07 4.56a33.86 33.86 0 0 1 12.37 12.37A33.27 33.27 0 0 1 1826 1648zm-11.06 4.25c0-.77-.28-1.43-.84-2l-20.1-20.1a2.72 2.72 0 0 0-2-.83c-.77 0-1.43.28-2 .84l-20.1 20.1a2.72 2.72 0 0 0-.83 1.99c0 .77.28 1.43.84 2l4.51 4.5c.56.57 1.23.85 2 .85.76 0 1.43-.28 1.99-.84l13.59-13.6 13.6 13.6c.55.56 1.22.84 1.99.84.76 0 1.43-.28 1.99-.84l4.52-4.52c.56-.56.84-1.22.84-1.99z"/></defs><use fill="#eb564d" xlink:href="#a" transform="translate(-1758 -1614)"/></svg>