<?xml version="1.0" encoding="utf-8"?>
<!-- Generator: Adobe Illustrator 21.0.0, SVG Export Plug-In . SVG Version: 6.00 Build 0)  -->
<svg version="1.1" id="Шар_1" xmlns="http://www.w3.org/2000/svg" xmlns:xlink="http://www.w3.org/1999/xlink" x="0px" y="0px"
	 viewBox="0 0 345.2 56.7" style="enable-background:new 0 0 345.2 56.7;" xml:space="preserve">
<style type="text/css">
	.st0{fill:#333333;}
</style>
<g>
	<polygon class="st0" points="19.6,0.9 21.9,1.4 26.7,1.4 27.1,0.9 27.1,0.1 19.6,0.1 	"/>
	<polygon class="st0" points="58.5,1.7 62.8,2 66.3,2.5 68.7,2.5 68.7,1.7 68.7,1.4 68.7,0.5 58.5,0.5 	"/>
	<path class="st0" d="M218.8,9.5l0.1-0.4l0.3,0.4H218.8L218.8,9.5z M235.6,4h1.9v0.4h-1.9V4L235.6,4z M234.5,3.2h0.8V4h-0.8V3.2
		L234.5,3.2z M217.6,1.7v3.1v0.4v4l0.4,0.4h0.8l9.1,0.8V10h5.9v0.8h4.3h0.8h0.8l0.4-0.4V4.9l-1.6-0.4h1.6V2.7l-0.4-0.4l-0.8-0.4
		l-7.5-0.4l-4.3-0.4h-8.2v0.8L217.6,1.7L217.6,1.7z"/>
	<polygon class="st0" points="248.6,2.9 248.6,4.8 249.4,5.2 253.2,5.6 254.9,5.6 274.1,6.8 274.5,6 274.5,5.2 273.8,4.8 271.3,4.5 
		269.4,4 267.5,4 265.1,4 263.5,4 263.5,3.2 260.3,3.2 259.2,3.2 258,2.9 253.7,2.5 250.1,2.5 	"/>
	<path class="st0" d="M254.5,18.2c0.4-0.4,1.4,0.5,0.4,0.2h-0.1C254.9,18.3,254.4,18.3,254.5,18.2L254.5,18.2z M248.6,17.4l0.4,0.4
		h3.5v0.4h-4v1.6l0.8,0.4h5.9l1.9-0.4v-1.2h1.6l0.4-1.2v-4.3v-0.4v-1.6v-0.4V9.5l3.5,0.4l1.2,0.4h0.8v0.8l0.4,0.4l0.4,0.4l0.4,1.2
		l0.8,0.4l0.4,0.4l5.5-0.4h0.8h3.5v4.7h0.4v-5.1l-0.4-0.4v-2.4l-0.4-1.2L276,8.3l-0.4-0.4V7.1l-0.4-0.4H274l-19.2-1.2h-1.6l-4-0.4
		h-0.7v12.3H248.6z"/>
	<path class="st0" d="M42.5,3.7C43.1,2.9,41.7,4.4,42.5,3.7L42.5,3.7z M42,2.5c0.4-0.4,1.4,0.5,0.4,0.2h-0.1
		C42.4,2.6,41.9,2.6,42,2.5L42,2.5z M39.3,2v0.8v0.4V4v4.7v0.4v4.7l0.4,0.4l5.4,0.4h4.7V3.7l-0.4-0.4h-4v0.8h-0.8l-0.4-1.2h5.5V0.6
		H39.2L39.3,2L39.3,2L39.3,2z"/>
	<polygon class="st0" points="320.1,10 320.5,10 325.9,10 331.4,10 337.7,10.7 339.7,11.1 345.2,11.1 345.6,10.7 345.6,0.5 
		320.1,0.5 	"/>
	<path class="st0" d="M310.7,9.5l-0.8-0.4L310.7,9.5L310.7,9.5z M309.8,9.1l-1.6-0.3L309.8,9.1L309.8,9.1z M310.2,7.9
		C311,7.3,309.5,8.7,310.2,7.9L310.2,7.9z M302,0.9l-5.1,0.4l-1.6,0.4l-0.4,0.4v0.8h-1.6l-0.4,0.4l-0.4,0.4l-0.4,0.4l-0.8,0.4
		l-0.4,0.4v0.8h-0.8l-0.4,0.4l-0.4,0.4v0.8h-0.8l-0.3,0.2l-0.4,0.8l-0.4,0.4L287,9.5l-0.4,0.8l-0.4,0.8l-0.4,1.6l-0.4,0.4l-0.4,0.8
		l-0.4,0.8l-0.4,0.8l-0.4,1.9v0.4l0.4,0.4h10.6l0.4-0.4l0.4-0.8l0.4-0.4l0.4-0.8l0.4-0.8l0.4-0.4l0.4-0.8L298,13l0.4-0.4l1.2-0.4
		l0.8-0.4l0.8-0.4l0.4-0.4l1.2-0.4l1.2-0.4h1.6l1.9,0.4l1.2,0.4l1.2,0.4h0.8l0.8-0.4v-0.8l-0.4-0.4l-0.4-0.4h0.8l0.4-0.4V8.2V7.8
		l0.4-1.2l0.4-2.3V1.2l-0.8-0.4l-1.2-0.4L309.1,0h-5.9v0.4L302,0.9L302,0.9z"/>
	<path class="st0" d="M111.9,11.5C112.6,10.8,111.3,12.2,111.9,11.5L111.9,11.5z M109.2,12.3l0.8,0.4h3.1v-0.4h1.9h1.9l1.6,0.4h1.2
		v-1.9h11.8V0.5h-22.4L109.2,12.3L109.2,12.3L109.2,12.3z"/>
	<polygon class="st0" points="333.8,11.5 333.8,12.3 334.2,12.7 336.6,13.1 337.7,13.5 339.7,13.9 342,14.2 342.9,14.2 344,13.9 
		344.4,13.1 344.4,12.7 343.2,12.3 340.1,11.9 338.1,11.5 335.7,11.5 335.7,10.7 337.7,10.7 331.4,10 331.4,10.3 334.2,10.3 	"/>
	<polygon class="st0" points="183,0.5 181,0.9 179.9,1.4 179.9,13.9 179.9,14.6 179.9,15.1 180.2,15.8 181.4,15.8 183.8,15.4 
		186.1,15.1 187.3,14.6 188.8,14.2 190.5,13.9 190.9,9.5 194.4,9.5 195.1,10 195.9,10.3 196.3,10.7 196.8,11.5 197.1,12.3 
		197.5,13.1 197.9,13.5 197.9,14.6 198.3,14.6 200.7,14.6 201,13.9 201.4,13.9 201.4,13 202.2,13.5 203.8,13.9 206.2,14.2 
		208.5,14.2 208.5,11.9 208.2,9.5 207.7,8.3 207.3,7.6 207,6.8 206.6,6.4 206.2,5.6 205.7,5.2 205.4,4.8 205,4.5 204.6,4 204.2,3.7 
		203.8,3.2 203.1,2.9 202.6,2.5 201.9,2 201,1.7 199.9,1.4 198.7,0.9 197.1,0.5 194,0.1 186.5,0.1 	"/>
	<polygon class="st0" points="140.2,14.6 148.4,15.1 153.2,15.1 153.9,14.6 154.3,14.2 154.3,12.7 153.9,11.5 153.6,10.3 153.2,9.1 
		152.7,8.3 152.4,7.2 151.9,6 151.5,4.8 151.2,4 150.8,2.9 150.4,1.4 150.1,0.5 140.2,0.5 	"/>
	<polygon class="st0" points="161.3,15.1 162.6,15.1 170.4,14.6 170.8,14.2 170.8,13.9 170.4,0.5 161.3,0.5 	"/>
	<polygon class="st0" points="217.6,16.3 218.8,16.6 228.2,16.6 228.2,10.3 227.8,10.3 218.8,9.5 218,9.5 217.6,9.5 	"/>
	<polygon class="st0" points="140.2,17 140.6,17.4 148.8,17.4 150.4,17 151.2,16.6 151.2,16.3 150.8,15.8 140.2,15.8 	"/>
	<polygon class="st0" points="161.3,17.4 163.4,17.4 164.5,17.4 168.8,17.4 170.1,17 170.4,16.6 170.4,15.4 165,15.4 162.2,15.4 
		161.3,15.4 	"/>
	<polygon class="st0" points="217.6,18.2 218.3,18.6 227,18.6 227,17.8 224.3,17.4 221.9,17 217.6,17 	"/>
	<polygon class="st0" points="140.2,18.2 140.2,21.4 148.8,21.7 148.8,25.7 149.2,25.7 149.4,23.7 149.6,24.9 150.1,25.7 
		150.4,26.1 150.8,26.4 151.9,26.4 153.6,26.4 155.5,26.4 157.1,26.1 158.7,25.7 158.7,24.9 158.2,23.7 157.8,22.9 157.5,21.7 
		157.1,20.5 156.7,19.4 156.3,18.9 155.9,18.2 153.2,17.8 144.1,17.8 143.3,17.8 140.6,17.8 	"/>
	<polygon class="st0" points="267,13.9 266.3,13.9 266.3,15.1 266.6,18.9 267.5,19.4 270.6,19.4 274.1,18.9 275.7,18.6 276.9,18.2 
		276.9,13.5 273.3,13.5 272.6,13.5 	"/>
	<path class="st0" d="M61.6,15.1c0.4-0.4,1.4,0.5,0.4,0.2h-0.1C62,15.2,61.5,15.1,61.6,15.1L61.6,15.1z M58.5,4v27.5l2.8,0.4h7.5
		l0.4-1.2V20.1l-0.4-0.4l-1.6-0.4v-0.8h1.9v-3.1V15V9.5V9V3.5H60L58.5,4L58.5,4z"/>
	<polygon class="st0" points="287.5,19.4 287.1,19.8 287.1,20.1 287.5,20.5 294.1,20.5 294.5,19.8 294.9,19.4 294.9,18.9 
		288.6,18.9 	"/>
	<polygon class="st0" points="332.6,14.2 332.2,14.6 331.9,15.8 331.4,16.6 331,17.8 330.7,18.6 330.3,19.8 330.3,20.5 330.7,20.9 
		332.2,21.4 337,21.7 340.8,21.7 341.3,21.4 341.7,20.1 342,19.4 342.5,17.8 342.9,17 343.2,16.3 343.2,14.2 342.9,14.2 340.5,14.2 
		338.1,13.9 336.6,13.9 336.2,13.9 333.1,13.9 	"/>
	<polygon class="st0" points="14.5,1.4 12.5,1.7 11.8,2 11,2.5 10.6,2.9 10.2,3.2 9.8,3.7 9.8,4.5 9,4.5 8.6,4.8 7.9,5.2 7.5,5.6 
		7,6.4 6.7,6.8 6.3,7.6 5.8,8.3 5.5,8.8 5.5,9.5 4.7,9.5 4.3,10.3 3.9,11.1 3.5,11.9 3.1,13.1 2.7,13.9 2.3,14.6 1.9,15.8 1.6,17 
		1.2,18.9 0.7,20.9 0.7,24.5 11.4,24 11.4,23.7 11.4,23.2 11.8,22.9 12.1,21.7 12.5,20.1 13,18.6 13.3,17.4 13.8,16.6 13.8,15.1 
		14.5,15.1 14.9,14.6 15.3,13.9 15.7,13.5 16.1,13.1 16.5,12.7 17.3,12.3 17.7,11.5 19.2,11.1 20.8,10.7 24.7,10.7 26.7,11.1 
		27.8,11.5 28.7,11.5 29,11.1 29.4,9.1 29.9,7.2 30.2,4.8 30.2,2.9 27.8,2.5 21.9,2 20,1.7 19.2,1.4 19.2,0.5 16.5,0.5 16.5,1.4 	
		"/>
	<polygon class="st0" points="161.3,18.6 161.3,24.9 162.6,24.9 163.4,24.9 167.3,25.2 170.4,25.2 170.4,24.5 170.4,24 170.4,18.6 
		166.5,18.2 164.5,18.2 163.8,18.6 163.4,18.2 161.8,18.2 	"/>
	<polygon class="st0" points="140.2,24.5 143.8,25.2 144.9,25.2 146.9,25.7 147.6,25.7 148.8,25.7 148.8,21.7 140.2,21.4 	"/>
	<path class="st0" d="M91.4,32.1l1.2,0.2L91.4,32.1L91.4,32.1z M91.1,18.2H93v0.4h-1.9V18.2L91.1,18.2z M89.5,12.7
		c0.4-0.4,1.4,0.5,0.4,0.2h-0.1C89.9,12.9,89.4,12.7,89.5,12.7L89.5,12.7z M80.9,1.4c0.4-0.4,1.4,0.5,0.4,0.2h-0.1
		C81.3,1.4,80.8,1.4,80.9,1.4L80.9,1.4z M75,0.5v1.2h4v0.8h-3.1l-0.4,0.4l-0.4,0.4v7.5l0.8,0.4h7.8v1.9v0.4V19v0.4v12.9l5.9,0.4h4.3
		v8.2h-1.2v0.8h1.2l0.4-0.4v-9.1V32V12.8v-0.4v-1.2h8.6l0.4-0.4V0.5H85.7h-3.1l-2.8-0.4h-4L75,0.5L75,0.5z"/>
	<path class="st0" d="M232.5,28.8h1.9v0.4h-1.9V28.8L232.5,28.8z M229.7,25.2h2.8v0.4h-2.8V25.2L229.7,25.2z M217.6,20.5v6.3
		l0.4,0.4l1.6,0.4h-2v1.2l1.9,0.4l7.8,0.4l2.3,0.4l4,0.4h4l1.6-0.4l0.4-0.4v-7.1h-11.4v-1.2l-3.5-0.4l-0.4-0.4l-2.8-0.4h-3.1
		L217.6,20.5L217.6,20.5z"/>
	<polygon class="st0" points="248.6,22.1 248.6,29.5 248.6,30 248.6,30.7 252.1,30.7 253.2,30.3 254.5,30 254.9,30 257.6,30.3 
		264.7,30.7 270.1,30.7 270.1,30 269.4,29.5 271,29.5 271.3,29.2 271.8,28.8 272.6,28.4 272.6,27.6 273.3,27.6 273.8,27.2 
		274.1,26.8 274.5,26.4 274.9,25.7 275.2,24.9 275.7,24 275.7,22.6 271.3,22.6 271,22.6 269.4,22.1 267.8,22.1 265.1,22.6 
		265.1,23.2 264.3,23.2 263.9,23.7 263.5,24 263.1,24.5 262.4,24.9 259.2,25.2 259.2,23.2 258.8,22.1 253.2,21.7 251.7,21.7 
		250.9,21.7 249,21.7 	"/>
	<polygon class="st0" points="286.7,22.1 286.3,21.7 283.2,21.7 282.7,24 282.7,28 282.7,28.4 282.7,29.5 284.3,30 284.7,30 
		285.5,29.5 285.5,28.8 285.1,27.9 286.7,28.4 286.3,28.8 285.9,29.2 285.9,30 289.5,30 291.8,30.3 293.4,30.3 293.7,26.4 
		294.1,23.2 294.1,21.7 293.7,21.4 290.2,21.4 290.2,22.1 	"/>
	<polygon class="st0" points="39.3,15.1 39.3,18.6 39.3,18.9 39.3,21.4 39.3,21.7 39.3,30.3 39.3,30.7 39.3,31.5 39.3,32 39.3,35.8 
		39.3,36.3 39.3,40.6 39.6,42.5 40,44.1 43.6,44.5 45.6,44.9 48.3,45.2 51.1,45.2 51.1,44.1 50.7,42.5 50.2,40.1 49.9,37.5 
		48.2,37.1 49.9,37 49.9,32 48.7,31.5 49.9,31.5 49.9,15.1 42.7,14.6 39.6,14.6 	"/>
	<path class="st0" d="M146.9,25.7l-0.9,0.2L146.9,25.7L146.9,25.7z M140.2,25.2v0.4v6.3l4.3-0.4v0.4h-2.3v0.3l7.1,0.5v-5.5l-1.6-0.4
		v-1.2h-0.8l-1.9-0.4h-1.2l-3.5-0.8L140.2,25.2L140.2,25.2z"/>
	<polygon class="st0" points="150.4,27.6 150.8,29.2 151.2,30.3 151.5,31.5 151.9,32.4 152.7,32.6 160.6,32.6 160.6,30.7 
		160.2,29.5 159.9,28.8 159.4,27.2 159,26.4 155.5,26.4 153.6,26.4 151.9,26.4 150.8,26.4 150.4,26.4 	"/>
	<polygon class="st0" points="161.8,32.4 162.2,32.4 170.1,32.4 170.1,26.8 166.5,26.8 161.8,26.8 	"/>
	<polygon class="st0" points="282.7,30.3 282.7,31.2 285.1,31.5 285.5,32.4 288.2,32.6 293.7,32.6 293.7,32 293.4,30.7 290.6,30.6 
		291.8,30.3 289.5,30 	"/>
	<polygon class="st0" points="16.9,33.9 17.3,34.3 21.6,34.3 21.6,42.9 21.9,43.3 22.4,43.3 25.9,43.3 31,43.3 31,24.9 16.9,24.9 	
		"/>
	<polygon class="st0" points="328.7,23.2 328.2,24.5 327.9,25.7 327.6,26.4 327.1,27.2 326.8,28.4 326.4,29.5 325.9,30.3 
		325.6,31.5 325.1,32.4 324.7,33.1 324.4,34.3 324.4,35.8 326.8,36.3 332.2,36.6 335,36.6 335.4,35.8 335.7,35.1 336.2,34.3 
		336.6,33.1 337,32.4 337.3,31.2 337.7,30 338.1,29.2 338.5,28 338.9,27.2 339.3,26.1 339.7,24.9 340.1,24 340.1,22.9 334.2,22.6 
		331,22.1 329.1,22.1 	"/>
	<polygon class="st0" points="217.6,35.8 217.6,36.6 219.9,37 226.2,37 226.2,35.8 222.2,35.4 218.8,35.4 	"/>
	<polygon class="st0" points="140.2,32 140.2,37 146.9,37.5 149.6,37.5 149.6,32.6 149.2,32.6 142.1,32.2 142.1,32 144.5,32 
		144.5,31.5 	"/>
	<polygon class="st0" points="248.6,38.2 250.1,38.2 250.1,38.9 253.7,38.9 255.2,38.6 255.2,39.4 258.8,39.4 259.2,38.9 
		259.2,38.2 257.2,37.8 257.2,37 248.6,37 	"/>
	<polygon class="st0" points="283.2,35.8 283.2,37 286.3,37.5 283.6,37.8 283.6,38.6 283.9,38.9 294.1,38.9 294.5,38.6 294.5,37.8 
		294.1,36.6 293.7,35.8 291.4,35.8 289.8,35.8 288.6,35.4 286.7,35.4 	"/>
	<polygon class="st0" points="58.5,32.6 58.5,38.2 58.5,38.6 58.5,40.6 58.8,38.9 68.7,39.4 69.1,37.5 69.1,33.9 68.7,33.5 
		67.5,33.1 61.6,32.6 59.3,32.4 58.8,32.4 	"/>
	<polygon class="st0" points="266.6,39.8 268.7,39.8 268.7,38.6 266.6,38.6 	"/>
	<polygon class="st0" points="269.8,39.8 275.2,39.8 275.2,38.6 269.8,38.6 	"/>
	<path class="st0" d="M193.2,55.3h1.2H193.2L193.2,55.3z M199.9,50.8l1.2-0.4l1.2-0.4v0.8h-1.6L199.9,50.8L199.9,50.8L199.9,50.8z
		 M204.6,46.9c0.4-0.4,1.4,0.5,0.4,0.2l0,0C205,47,204.5,47,204.6,46.9L204.6,46.9z M190.5,41.4l0.4-9.1h2.8l1.2,0.4l0.8,0.4
		l0.8,0.4l0.4,0.4l0.4,0.4l0.4,0.4l0.4,0.4l0.4,1.2l0.4,1.6v4.3l-0.4,1.2l-0.4,1.2l-0.4,0.8l-0.4,0.4l-0.8,0.4l-0.4,0.4l-0.8,0.4
		l-1.2,0.4l-3.5,0.4v-1.6v-0.4v-4L190.5,41.4L190.5,41.4z M205,34.7l0.4,0.1l-0.4,0.3V34.7L205,34.7z M205,34.7l-0.4-0.1l0.4-0.3
		V34.7L205,34.7z M197.9,33.1c0.4-0.4,1.4,0.5,0.4,0.2h-0.1C198.3,33.2,197.8,33.2,197.9,33.1L197.9,33.1z M199.1,29.5l0.4,0.9
		l-0.8-0.4l-1.2-0.4h1.6V29.5z M199.5,28.2h1.2H199.5L199.5,28.2z M195.9,26.4C196.6,25.7,195.3,27.1,195.9,26.4L195.9,26.4z
		 M186.1,26.4h3.1v0.4h-3.1V26.4L186.1,26.4z M184.2,24c0.4-0.4,1.4,0.5,0.4,0.2h-0.1C184.5,24.3,184,24.2,184.2,24L184.2,24z
		 M198.3,14.6l-0.4,0.4l-0.4,2.8l-0.4,0.8l-0.4,1.2l-0.4,1.2l-0.4,0.8l-0.8,0.4l-0.8,0.4l-1.9,0.4l-1.9,0.4v-7.8H185l-1.9,0.4
		l-1.2,0.4l-1.6,0.4l-0.4,0.4v7.5l1.9,0.4l-0.4,0.4l-1.6,0.4v10.9l0.4,0.4h1.9h0.8l-2.8,0.4l-0.4,0.4v3.5h5.5v0.4h-5.1l-0.4,0.4
		v12.9l1.2,0.4h10.3V56h-2.3l-0.4,0.4v0.4h6.7l0.4-0.4v-0.8l2.8-0.4h0.8h2.3l0.4-0.4l0.4-0.8l1.6-0.4l0.8-0.4l0.4-0.4l0.4-0.4v-1.2
		l-1.2-0.4l-0.4-0.8h3.1l0.8-0.4l0.4-0.4l0.4-1.9l0.4-0.4l0.4-0.8l0.4-1.2l0.4-2.3v-1.2V41v-0.8l-1.6-0.2l1.2-0.2V39l-1.9-0.4
		l-5.5-0.4l-1.6-0.2l0.9-0.2V37h7.8v-1.6l-1.2-0.4v-1.2h-3.5V33l-0.4-0.4l-3.5-0.4l6.7-0.4V31l-0.4-0.4H206l-0.4-0.4h-3.1v-0.8h-1.2
		v-0.8h2.8V28l-0.8-0.4H198v-0.4h3.5l0.8-0.4l0.8-0.4l0.4-0.4l0.8-0.4l0.4-0.4l0.4-0.4l0.4-0.8l0.4-0.4l0.4-0.4l0.4-0.8l0.4-1.2
		l0.4-0.4l0.4-0.8l0.4-1.6v-1.6h-4v-1.2l-0.8-0.4h-2.3V14l-0.4,0.8L198.3,14.6L198.3,14.6z"/>
	<polygon class="st0" points="0.7,24.5 0.7,37.8 1.2,40.1 1.6,41.7 1.9,42.9 2.3,43.3 13.8,43.3 13.8,42.5 13.3,41.4 13,39.8 
		12.5,38.2 12.1,36.6 11.8,35.4 11.4,30.3 11.4,28 11.4,24 	"/>
	<polygon class="st0" points="58.5,40.6 58.1,40.6 57.7,42.9 57.4,44.1 56.9,45.2 56.9,46.4 59.7,46.9 64.4,47.3 67.2,47.3 
		67.5,46.9 67.9,46.1 68.3,44.5 68.7,41.7 68.7,39.4 58.8,38.9 	"/>
	<polygon class="st0" points="83.6,33.1 83.6,47.6 84.4,48 94.3,48 94.3,41.7 93.8,41.7 92.6,41.7 92.6,41 93.8,41 93.8,32.6 
		89.5,32.6 87.6,32.6 	"/>
	<path class="st0" d="M111.9,46.7h1.2H111.9L111.9,46.7z M116.9,38.1l1.6,0.2L116.9,38.1L116.9,38.1z M113.1,13.1l0.4,0.4h-1.2
		l-1.6-0.4h-1.6v29.8h0.8l0.4-0.4l0.4-0.4h0.4l0.4,1.6h0.9l-0.4,1.1l-0.4,0.4v1.6h-2.3v9.4h2.8l4-0.4v0.8h7.8v-0.9l0.8,0.4h7.8
		l0.4-0.4v-2.2V53v-0.4v-0.4v-5.5l-0.4-0.4H120v-7.1v-0.4v-0.4v-0.8V32h11.4v-6.7l-4.3-0.4l-2.8-0.4l-2.3-0.4l-1.6-0.4h1.9h1.9h6.7
		l0.4-0.4v-0.8l-0.8-0.4H120V15l-0.4-1.2l-1.6-0.4l-0.4-1.2h1.2l-1.6-0.4l-1.2,0.4v1.2h-1V12l-0.4-0.4H113V12L113.1,13.1L113.1,13.1
		z"/>
	<path class="st0" d="M224.3,48.4h0.8l1.9,0.4h4v0.4h-7.5v-0.8L224.3,48.4L224.3,48.4z M225.1,41.4C225.7,40.7,224.3,42,225.1,41.4
		L225.1,41.4z M217.6,39.4v1.9h2.3h1.6h-1.2l-2.8,0.4v4v0.4v0.8v0.8v0.4l0.4,0.4l-0.4,0.4V52l0.4,0.8h1.6l8.2,0.4v0.4h-1.9V54h1.9
		h1.9h5.5l0.4,0.4h0.8h4.3h0.4v-0.8l-0.4-0.4h-1.9v-0.4h2.3v-0.4V52v-0.4l-0.4-0.4H225l-2.4,0.2l0.9-0.2v-0.8h6.3h4h0.8v-0.8h-2.3
		v-0.4h3.5V50l1.6,0.4h4v-0.8h-1.9v-0.4h1.9v-0.4l-0.4-0.4V48v-0.8l-0.8-0.4l-4.7-0.4h-7.1v-6.7l-3.5-0.4l-4-0.4H218L217.6,39.4
		L217.6,39.4z"/>
	<path class="st0" d="M255.7,42.5C256.3,41.9,255,43.2,255.7,42.5L255.7,42.5z M248.6,41v0.8v0.4v7.1h2.3l1.9-0.4l0.4-0.4h0.4
		l3.5,0.4h1.2l0.4-0.4l0.4-0.4v-0.8V46v-2.3v-1.2v-1.6l-0.4-0.4H249L248.6,41L248.6,41z"/>
	<path class="st0" d="M270.6,44.5h-1.9v-0.4h4.3V45L270.6,44.5L270.6,44.5z M265.1,41.4v0.8l0.4,0.8v0.4v2.3l0.4,2.3l0.4,1.2H277
		v-1.9l-0.4-0.8v-0.4v-0.8l-0.4-1.2v-0.4v-0.8l-0.4-1.6l-0.4-0.4H266L265.1,41.4L265.1,41.4z"/>
	<path class="st0" d="M43.9,49.6h1.9V50h-1.9V49.6L43.9,49.6z M50.2,49.2l-1.6-0.3L50.2,49.2L50.2,49.2z M45.9,48.4
		c0.4-0.4,1.4,0.5,0.4,0.2h-0.1C46.3,48.6,45.8,48.5,45.9,48.4L45.9,48.4z M40.8,47.6l0.4,0.4v0.8l0.4,0.4l0.4,0.4v0.8l0.4,0.8
		L43,52l0.4,0.4l0.4,0.4l0.4,0.8l3.1,0.4h2.3h0.6l3.5,0.4l3.5,0.4l3.5,0.4h1.2l0.8-0.4l0.4-0.4l0.4-0.4v-1.6L58,52l-2.3-0.4
		l-1.9-0.4l-1.9-0.4l-2.3-0.4h-2.3V50H51v-0.4l-0.4-0.4l6.7,0.4l3.5,0.4l1.9,0.4h4v-0.8l-3.5-0.4l-1.6-0.4l-1.9-0.4L56.9,48
		l-6.7-0.4l-3.1-0.4l-2.8-0.4h-3.1v0.8L40.8,47.6L40.8,47.6z"/>
	<polygon class="st0" points="3.1,44.9 3.1,46.1 3.5,46.4 3.9,47.3 4.3,48 4.7,48.8 5.1,49.2 5.5,50 5.8,50.8 6.3,51.2 6.7,52 
		7,52.4 7.5,52.7 8.6,53.2 13,53.2 16.9,52.7 27.8,52.7 29.9,52.7 31,52.4 31,48 27.5,47.6 24.7,47.3 23.9,46.8 25.9,47.3 
		30.6,47.6 31,47.6 31,46.4 31,46.1 31,45.2 29.9,44.9 28.7,44.5 26.3,44.5 25.5,44.9 25.5,45.7 23.2,45.7 22.4,46.1 22.4,46.4 
		20.4,46.9 19.2,46.9 17.3,46.9 17.3,46.1 15.7,45.7 14.5,45.7 14.5,44.9 13.8,44.5 3.5,44.5 	"/>
	<polygon class="st0" points="84,52.7 87.1,53.2 93.1,53.2 93.1,52.4 91.9,52 84.8,51.5 84,51.5 	"/>
	<polygon class="st0" points="248.6,50.8 249.8,51.2 255.7,51.2 255.7,51.5 248.6,51.5 248.6,53.2 249,53.5 256.4,53.5 258,53.5 
		256.8,53.5 258.4,53.9 258.8,53.5 258.8,50 253.7,49.6 248.6,49.6 	"/>
	<polygon class="st0" points="323.6,36.6 323.2,37.5 322.8,38.2 322.4,39.4 322,40.1 321.6,41 321.3,42.1 320.8,43.3 320.5,44.1 
		320.1,44.9 319.6,46.1 319.3,47.3 318.9,48 318.4,48.8 318.4,56.3 318.9,56.7 345.2,56.7 345.6,55.9 345.6,46.4 330.9,46.4 
		331.4,45.7 331.9,44.9 332.2,44.1 332.6,42.9 333.1,42.1 333.4,41 333.8,40.1 334.2,38.9 334.2,37.8 333.8,37.5 330.7,37 
		327.6,36.6 325.9,36.3 324,36.3 	"/>
	<path class="st0" d="M302,32.4h-1.6H302L302,32.4z M299.3,26.4v0.4V28v0.8v0.4h3.5l1.2-0.4v0.8h-4.7v1.9v0.4v0.8l0.4,0.8l0.8,0.4
		l3.1,0.4l0.4,0.8v0.4v9.4h2.8v0.4h-2.3l-0.4,0.4v1.2h-0.8h-0.4l-3.1-0.4H299v-0.8l-0.8-0.4l-1.6-0.2l0.9-0.2v-0.8l-0.4-0.8h-0.8V42
		l-0.4-1.2h-11l-0.8,0.4v0.4l0.4,1.2l0.4,1.2l0.4,0.4l0.4,0.4v0.4l0.4,1.6l0.4,0.8l0.4,0.8l0.4,0.4l0.4,0.8l0.8,0.4v0.8l0.8,0.4
		l0.4,0.8h12.6v0.4H292l-0.8,0.4v0.8h1.9l12.6-0.4h1.2h1.2l-0.4,0.4H297l-3.5,0.4v0.8l0.8,0.4l0.4,0.4l0.8,0.4l1.6,0.4l1.9,0.4h9.8
		l2.3-0.4l1.2-0.4l1.6-0.4l0.4-5.1v-1.8v-0.8v-1.6l-0.4-21.6h-14.1v1.2L299.3,26.4L299.3,26.4z"/>
	<path class="st0" d="M141.4,54.3c0.4-0.4,1.4,0.5,0.4,0.2h-0.1C141.7,54.5,141.3,54.5,141.4,54.3L141.4,54.3z M140.2,56.7h9.1
		l0.4-0.4v-18l-0.4-0.4l-7.1-0.4h-1.9L140.2,56.7L140.2,56.7z"/>
	<path class="st0" d="M157.8,41.4h2.8v0.4h-2.8V41.4L157.8,41.4z M162.2,32.4l-0.4,0.4l-0.2,1.6l-0.2-1.2l-0.4-0.4h-0.4h-7.8v1.9
		l0.4,1.2l0.4,1.2l0.4,0.4l1.9,0.4h6.3h1.6l-9.4,0.4v0.8l0.4,1.2l0.4,1.2l0.4,0.8l0.4,1.2l0.4,0.8l0.4,1.2l0.4,0.4l0.4,1.9L158,49
		l0.4,1.2l0.4,0.8l0.4,1.6l0.4,1.2l0.4,0.8l0.4,0.4l5.9,0.4h3.1l1.2-0.4V43.2v-0.4V42h-4v-0.4h4V26.7h-4v0.4h3.5v5.5h-7.9
		L162.2,32.4L162.2,32.4L162.2,32.4z"/>
	<polygon class="st0" points="275.2,50.4 274.9,50.4 269.4,50.4 268.2,50.8 267.8,51.2 266.6,51.5 266.6,52.4 267,52.7 267,53.2 
		267,53.9 267.5,54.7 267.5,55.1 267.5,55.5 267.8,55.9 268.2,56.3 268.7,56.7 270.1,56.7 270.6,56.3 276.9,55.9 278.4,55.5 
		278.4,54.7 275.2,54.7 275.2,53.9 273.3,53.9 273.3,53.5 277.6,53.5 278,53.2 278,52.7 276.1,52.4 276.1,51.2 277.3,51.2 277.3,50 
		276.4,50 	"/>
	<path class="st0" d="M12.1,55.5h1.6v0.8l2.8,0.4l0.8,0.4h2.3l0.4-0.8l1.2,0.4h5.5v-1.2h3.1v-0.8l-1.9-0.4H17.2
		c-0.5,1.3-2.2,1.3-2.8,0h-2.3V55.5L12.1,55.5z"/>
	<polygon class="st0" points="249,55.1 249.4,55.9 258.4,55.9 258.8,55.1 258.8,53.9 258.4,53.9 256.8,53.5 256.4,53.5 249,53.5 
		248.6,53.5 248.6,53.9 	"/>
	<polygon class="st0" points="83.6,56.3 86,56.7 92.2,56.7 94.3,56.3 94.3,54.7 93.4,54.3 86.3,53.9 83.6,53.9 	"/>
	<polygon class="st0" points="161,56.3 161.3,56.7 163,56.7 163.4,56.3 163.4,55.5 161,55.5 	"/>
	<path class="st0" d="M225.1,54.3h-0.4H225.1L225.1,54.3z M217.6,53.2V54h1.9v0.4h-1.9v1.9l0.8,0.4h4l0.4-0.4h5.5l9.1,0.4h3.1
		l0.4-0.4v-1.9h-4.3l-3.5,0.4v-0.4h2.3V54h-5.5H228h-2v-0.4h1.9v-0.4l-8.2-0.4L217.6,53.2L217.6,53.2z"/>
	<polygon class="st0" points="51.1,57 55.3,57 55.3,56.3 53,55.9 51.1,55.9 	"/>
</g>
<text transform="matrix(1 0 0 1 0 -99.7014)" class="st0" style="font-family:'ArialMT'; font-size:27.2704px;">Проект реалізований:</text>
</svg>
