<svg version="1.1" id="Шар_1" xmlns="http://www.w3.org/2000/svg" x="0" y="0" viewBox="0 0 400 400" xml:space="preserve"><style>.st0{fill-rule:evenodd;clip-rule:evenodd;fill:#333}</style><path class="st0" d="M21.4 158.1l2.7.5h5.5l.5-.5v-.9h-8.7zm45.1.9l5 .4 4.1.5h2.7v-2.3H66.5zm185.9 9.1l.1-.5.4.5h-.5zm19.5-6.4h2.2v.5h-2.2v-.5zm-1.3-.9h.9v.9h-.9v-.9zM251 159v8.7l.5.5h.9l10.5.9v-.5h6.8v.9h6.8l.5-.5v-6.4l-1.8-.5h1.8V160l-.5-.5-.9-.5-8.7-.5-5-.5h-9.5v.9l-1.4.1zm36 1.4v2.2l.9.5 4.5.4h1.9l22.3 1.4.5-.9v-.9l-.9-.5-2.8-.4-2.3-.5h-6.8v-.9h-5l-1.4-.4-5-.5h-4.1z"/><path class="st0" d="M293.8 178.1c.5-.5 1.6.6.5.2h-.1c.1 0-.5 0-.4-.2zm-6.8-.9l.5.5h4.1v.5H287v1.8l.9.5h6.8l2.2-.5v-1.4h1.8l.5-1.4V168l4.1.5 1.4.5h.9v.9l.5.5.5.5.5 1.4.9.5.5.5 6.4-.5h5v5.4h.5v-5.9l-.5-.5V169l-.5-1.4-.5-.9-.5-.5v-.9l-.5-.5h-1.4l-22.3-1.4h-1.8l-4.6-.5h-.8v14.3zM47.9 161.3c.7-.9-.9.8 0 0zm-.5-1.4c.5-.5 1.6.6.5.2h-.1s-.6-.1-.4-.2zm-3.2-.5V173l.5.5 6.3.5h5.4v-12.7l-.5-.5h-4.6v.9h-.9l-.5-1.4h6.4v-2.7H44.1v1.8h.1zm325.7 9.2h13.2l7.3.9 2.3.4h6.4l.4-.4v-11.9h-29.6zm-10.9-.5l-.9-.5.9.5zm-1-.5l-1.8-.3 1.8.3zm.5-1.4c.9-.7-.8.9 0 0zm-9.5-8.1l-5.9.5-1.8.5-.5.5v.9H339l-.5.5-.5.5-.5.5-.9.5-.5.5v.9h-.9l-.5.5-.5.5v.9h-.9l-.3.2-.5.9-.5.5-.5.9-.5.9-.5.9-.5 1.8-.5.5-.5.9-.5.9-.5.9-.5 2.2v.5l.5.5h12.3l.5-.5.5-.9.5-.5.5-.9.5-.9.5-.5.5-.9.5-.9.5-.5 1.4-.5.9-.5.9-.5.5-.5 1.4-.5 1.4-.5h1.8l2.2.5 1.4.5 1.4.5h.9l.9-.5v-.9l-.5-.5-.5-.5h.9l.5-.5V166l.5-1.4.5-2.7v-3.6l-.9-.5-1.4-.5-1.8-.5h-6.8v.5l-1.4.8zm-220.6 12.3c.9-.8-.7.8 0 0zm-3.1.9l.9.5h3.6v-.5h4.4l1.9.5h1.4v-2.2h13.7v-11.9h-26v13.6h.1z"/><path class="st0" d="M385.8 170.4v.9l.5.5 2.8.4 1.3.5 2.3.5 2.7.3h1l1.3-.3.4-1v-.4l-1.4-.5-3.6-.5-2.3-.4h-2.7v-.9h2.3l-7.3-.9v.4h3.2zm-174.9-12.8l-2.3.5-1.3.5v15.9l.4.9h1.4l2.7-.5 2.7-.4 1.4-.5 1.8-.5 1.9-.3.5-5.1h4l.9.5.9.4.5.5.5.9.4.9.4.9.5.5v1.3h3.2l.4-.8h.5v-1.1l.9.6 1.8.5 2.8.3h2.7v-2.7l-.4-2.7-.5-1.4-.5-.8-.4-1-.4-.4-.5-1-.5-.4-.4-.5-.5-.4-.4-.5-.5-.4-.5-.5-.8-.4-.5-.5-.9-.5-1-.4-1.3-.4-1.4-.5-1.8-.5-3.6-.4H215zM161.3 174l9.5.5h5.5l.9-.5.4-.5v-1.7l-.4-1.4-.4-1.4-.5-1.4-.5-.9-.4-1.3-.5-1.4-.5-1.4-.4-.9-.4-1.3-.5-1.8-.4-1h-11.4zm24.5.5h1.4l9.1-.5.5-.5v-.3l-.5-15.6h-10.5zm65.2 1.4l1.4.4h10.9V169h-.4l-10.5-.9H251zm-89.7.9l.4.4h9.6l1.8-.4.9-.5v-.4l-.4-.5h-12.3zm24.5.4h8.7l1.4-.4.4-.5v-1.4h-10.5zm65.2.9l.9.5h10v-.9l-3.1-.5-2.8-.4h-5zm-89.7 0v3.7l10 .4v4.6h.4l.3-2.3.2 1.4.5.9.4.5.5.4h5.4l1.9-.4 1.8-.5v-.9l-.5-1.4-.5-.9-.4-1.4-.4-1.4-.5-1.3-.5-.5-.4-.9-3.2-.4h-14.6zm147.1-4.9h-.9v1.3l.4 4.5 1 .5h3.6l4.1-.5 1.8-.4 1.4-.5v-5.4h-5zm-238.3 1.3c.5-.5 1.6.6.5.2h-.1c.1 0-.5-.1-.4-.2zm-3.6-12.8v31.9l3.2.5h8.7l.5-1.4v-12.3l-.5-.5-1.8-.5v-.9h2.2v-17.4H68.3l-1.8.6zm265.6 17.8l-.4.5v.4l.4.4h7.7l.5-.8.4-.5v-.5h-7.3z"/><path class="st0" d="M384.5 173.5l-.5.5-.4 1.4-.5.9-.5 1.4-.4.9-.4 1.4v.8l.4.5 1.8.5 5.5.4h4.5l.5-.4.5-1.4.4-.9.5-1.8.5-.9.3-.9v-2.4h-3.1l-2.8-.3H385zm-369-14.9l-2.3.4-.9.4-.9.5-.5.5-.4.4-.5.5v.9h-.9l-.5.4-.8.5-.5.4-.5 1-.4.4-.5 1-.5.8-.4.5v.9h-.9l-.5.9-.4.9-.5.9-.5 1.4-.4 1-.5.8-.4 1.4-.4 1.4L0 179l-.5 2.3v4.1l12.4-.5v-.9l.4-.4.4-1.4.5-1.8.5-1.8.4-1.4.5-.9v-1.8h.9l.4-.5.5-.8.4-.5.5-.5.5-.4.9-.5.5-.9 1.7-.5 1.9-.4h4.5l2.3.4 1.3.5h1l.4-.5.5-2.3.5-2.2.4-2.8v-2.2l-2.8-.5-6.8-.5-2.2-.4-1-.4v-1h-3.1v1zm170.3 20v7.3h2.4l4.5.4h3.6v-7.7l-4.5-.5h-2.3l-.9.5-.4-.5h-1.9zm-24.5 6.8l4.1.9h1.3l2.3.5h2.3v-4.6l-10-.4zm-56.6 8.9l1.4.2-1.4-.2zm-.4-16.2h2.2v.5h-2.2v-.5zm-1.8-6.3c.5-.5 1.6.6.5.2h-.1s-.5-.2-.4-.2zm-10-13.2c.5-.5 1.6.6.5.2h-.1c0-.1-.5-.2-.4-.2zm-6.9-1v1.4h4.6v.9h-3.6l-.5.5-.5.5v8.7l.9.5h9.1v24.6l6.8.5h5v9.5H106v.9h1.4l.5-.5v-35.2h10l.5-.5v-11.9h-24l-3.2-.5h-4.6l-1 .6zm182.7 32.8h2.2v.5h-2.2v-.5zm-3.2-4.1h3.2v.5h-3.2v-.5zm-14.1-5.5v7.3l.5.5 1.8.5H251v1.4l2.2.5 9.1.5 2.7.5 4.6.5h4.6l1.8-.5.5-.5v-8.2h-13.2v-1.4l-4.1-.5-.5-.5-3.2-.5h-3.6l-.9.4zm36 1.9v10h4.1l1.3-.5 1.4-.4h.5l3.2.4 8.2.5h6.3v-.9l-.9-.5h1.9l.4-.4.5-.5.9-.4v-.9h.9l.5-.5.4-.5.5-.4.4-.9.4-.9.5-1v-1.7H313l-1.9-.5h-1.8l-3.2.5v.8h-.9l-.4.5-.5.4-.5.5-.8.5-3.7.4V184l-.4-1.3-6.5-.5h-4.9zm44.2 0l-.5-.5h-3.6l-.5 2.7v6.4l1.8.5h.5l.9-.5v-.9l-.5-1 1.9.6-.5.4-.4.5v.9h4.1l2.7.4h1.9l.3-4.5.5-3.7v-1.8l-.5-.4h-4v.9zm-287-8.2v29.6l.4 2.2.5 1.9 4.1.5 2.3.4 3.2.4h3.2v-1.3l-.5-1.9-.5-2.7-.4-3.1-1.9-.4 1.9-.1v-5.9l-1.4-.5h1.4v-19.1l-8.3-.5h-3.6z"/><path class="st0" d="M169 186.8l-1 .2 1-.2zm-7.7-.5v7.8l5-.5v.5h-2.7v.3l8.2.6v-6.4l-1.8-.5v-1.4h-.9l-2.2-.5h-1.4l-4.1-.9-.1 1zm11.8 2.8l.5 1.8.4 1.3.4 1.4.5 1 .9.3h9.1v-2.2l-.4-1.4-.4-.9-.5-1.8-.5-.9h-10zm13.2 5.5h9.6v-6.5h-9.6zm140.3-2.4v1l2.7.4.5 1 3.2.3h6.3v-.8l-.3-1.4-3.3-.2 1.4-.3-2.7-.4zm-308.4 4.1l.5.5h5v10l.4.5h10.5v-21.4H18.2zM379.9 184l-.5 1.4-.4 1.4-.4.9-.5.9-.4 1.4-.5 1.3-.5.9-.4 1.4-.5 1-.5.8-.4 1.4v1.8l2.8.5 6.3.4h3.2l.5-.9.4-.9.5-.9.5-1.4.4-.8.4-1.4.5-1.4.4-.9.5-1.4.5-.9.4-1.3.5-1.4.4-1v-1.3l-6.8-.4-3.7-.5h-2.2zM251 198.6v.9l2.7.5h7.3v-1.4l-4.6-.5h-4z"/><path class="st0" d="M161.3 194.1v5.9l7.7.5h3.2v-5.6h-.5l-8.2-.5v-.3h2.8v-.5zm125.7 7.3h1.8v.8h4.1l1.8-.4v.9h4.2l.4-.5v-.8l-2.3-.5v-.9h-10zm40.1-2.8v1.4l3.6.5-3.1.4v.9l.4.4h11.8l.5-.4v-.9l-.5-1.4-.5-.9h-4.5l-1.4-.5h-2.2zm-260.6-3.7v9.2l.4-1.9 11.4.5.5-2.2v-4.2l-.5-.4-1.4-.5-6.8-.5-2.7-.3h-.5zm241.4 8.3h2.4v-1.4h-2.4zm3.7 0h6.3v-1.4h-6.3zm-88.8 18h1.4-1.4zm7.7-5.2l1.4-.5 1.4-.5v.9h-2.8v.1zm5.5-4.6c.5-.5 1.6.6.5.2h-.1c0-.1-.5-.1-.4-.2zm-16.4-6.4l.5-10.5h3.2l1.4.5.9.5.9.5.5.5.5.5.5.5.5.5.5 1.4.5 1.9v5l-.5 1.4-.5 1.4-.5.9-.5.5-.9.5-.5.5-.9.5-1.4.5-4.1.5v-8h-.1zm16.8-7.7l.5.1-.5.4v-.5zm0 0l-.5-.1.5-.4v.5zm-8.2-1.9c.5-.5 1.6.6.5.2h-.1c.1 0-.5 0-.4-.2zm1.4-4.1l.5 1-.9-.5-1.4-.5h1.8zm.5-1.5h1.4-1.4zm-4.2-2.1c.8-.8-.7.8 0 0zm-11.4 0h3.6v.5h-3.6v-.5zm-2.2-2.8c.5-.5 1.6.6.5.2h-.1c0 .1-.6 0-.4-.2zm16.4-10.9l-.5.5-.5 3.2-.5.9-.5 1.4-.5 1.4-.5.9-.9.5-.9.5-2.2.5-2.2.5v-9.1h-6.4l-2.2.5-1.4.5-1.8.5-.5.5v8.7l2.2.5-.5.5-1.8.5v12.7l.5.5h3.1l-3.2.5-.5.5v4.1h6.4v.5h-5.9l-.5.5v15l1.4.5h11.9v.5h-2.7l-.5.5v.5h7.8l.5-.5v-.9l3.2-.5h3.6l.5-.5.5-.9 1.8-.5.9-.5.5-.5.5-.5V217l-1.4-.5-.5-.9h3.6l.9-.5.5-.5.5-2.2.5-.5.5-.9.5-1.4.5-2.7v-2.8l-1.9-.2 1.4-.2v-1.4l-2.2-.5-6.4-.5-1.9-.2 1-.2v-.9h9.1v-1.8l-1.4-.5v-1.4h-4.1v-.9l-.5-.5-4.1-.5 7.8-.5v-.9l-.5-.5h-1.4l-.5-.5h-3.6v-.9h-1.4v-.9h3.2v-.7l-.9-.5h-5.9v-.5h4.1l.9-.5.9-.5.5-.5.9-.5.5-.5.5-.5.5-.9.5-.5.5-.5.5-.9.5-1.4.5-.5.5-.9.5-1.8v-1.8H236v-1.4l-.9-.5h-2.7V173l-.5.9-3.2.1zM-.5 185.4v15.5l.5 2.7.5 1.8.4 1.4.4.5h13.3v-1l-.5-1.3-.4-1.8-.5-1.8-.5-1.9-.4-1.4-.4-5.9v-7.3z"/><path class="st0" d="M66.5 204.1H66l-.4 2.7-.4 1.4-.5 1.3v1.4l3.2.5 5.4.5h3.3l.3-.5.5-.9.5-1.8.4-3.3v-2.7l-11.4-.5zm29.1-8.7v16.9l1 .4H108v-7.3h-1.9v-.8h1.4v-9.7h-7.3zm32.8 15.8h1.4-1.4zm5.9-10l1.9.2-1.9-.2zm-4.5-29l.5.5h-1.4l-1.8-.5h-1.8v34.6h.9l.5-.5.5-.5h.5l.5 1.8h1l-.5 1.3-.5.5v1.8h-2.7v10.9h3.2l4.6-.5v.9h9.1v-1l.9.5h9.1l.5-.5v-10.4l-.5-.5h-14.6v-16.5H151v-7.8l-5-.5-3.2-.5-2.7-.5-1.8-.5h12.2l.5-.5v-.9l-.9-.5h-12.3v-8.2l-.5-1.4-1.8-.5-.5-1.4h1.4l-1.9-.5-1.4.5v1.4H132v-1.4l-.5-.5h-1.8v.5l.1 1.3zm129 41h.9l2.2.5h4.6v.5h-8.7v-.9h1v-.1zm.9-8.2c.8-.8-.9.8 0 0zm-8.7-2.3v2.2h4.6-1.4l-3.2.5v7.4l.5.5-.5.5v3.6l.5.9h1.8l9.5.5v.5h-2.2v.5h10.8l.5.5h6.4v-.9l-.5-.5h-2.2v-.5h2.7v-1.5l-.5-.5h-18.2l-2.8.2 1-.2v-.9h12.8v-.9h-2.7v-.5h4.1v.9l1.8.5h4.6v-.9h-2.2v-.5h2.2v-.5l-.5-.5v-1.4l-.9-.5-5.4-.5h-8.2v-7.8l-4.1-.5-4.6-.5h-3.2l-.5.8zm44.2 3.6c.8-.7-.8.9 0 0zm-8.2-1.7v9.6h2.7l2.2-.5.5-.5h.5l4.1.5h1.4l.5-.5.5-.5v-8.2l-.5-.5h-11.4l-.5.6zm25.5 4.1h-2.2v-.5h5v1l-2.8-.5zm-6.4-3.7v.9l.5.9v3.2l.5 2.7.5 1.4h12.3v-2.2l-.5-.9v-1.4l-.5-1.4v-1.4l-.5-1.8-.5-.5H307l-.9.5zm-256.5 9.6h2.2v.5h-2.2v-.5zm7.3-.5l-1.8-.3 1.8.3zm-5-.9c.5-.5 1.6.6.5.2h-.1c.1 0-.5-.1-.4-.2zm-5.9-.9l.5.5v.9l.5.5.5.5v.9l.5.9.5.9.5.5.5.5.5.9 3.6.5H57l4.1.5 4.1.5 4.1.5h1.4l.9-.5.5-.5.5-.5V218l-6.4-.5-2.7-.5-2.2-.5-2.2-.5-2.7-.5h-2.7v-.5h4.1v-.5l-.5-.5 7.8.5 4.1.5 2.2.5H76v-.9l-4.1-.5-1.8-.5-2.2-.5-3.2-.5-7.8-.5-3.6-.5-3.2-.5h-3.6v.9H46zm-43.8-3.2v1.4l.5.4.5 1 .4.8.5.9.5.5.4.9.4 1 .5.4.5.9.4.5.5.4 1.3.5h5.1l4.5-.5h15.1l1.3-.4v-5.1l-4.1-.4-3.2-.4-.9-.6 2.3.6 5.4.4h.5v-2.8l-1.3-.4-1.4-.4h-2.7l-1 .4v.9h-2.7l-.9.5v.4l-2.3.5h-3.6v-.9l-1.9-.5h-1.3v-.9l-.9-.4H2.7zm93.9 9.1l3.6.5h6.9v-.9l-1.3-.5-8.3-.5h-.9zM287 216l1.4.4h6.8v.4H287v1.9l.5.4h10.4-1.4l1.9.4.5-.4V215l-6-.4H287zm87-16.5l-.4 1-.5.9-.5 1.3-.4.9-.5 1-.4 1.3-.5 1.4-.4.9-.5.9-.5 1.4-.4 1.4-.5.8-.5.9v8.7l.5.5h30.6l.4-.9v-11h-17l.6-.9.5-.9.4-.9.5-1.4.5-.9.4-1.3.4-1 .5-1.4v-1.3l-.5-.4-3.6-.5-3.6-.5-1.9-.4h-2.2zm-25-4.9h-1.8 1.8zm-3.2-6.9v3.3h4.1l1.4-.5v.9h-5.4v3.6l.5.9.9.5 3.6.5.5.9v11.4h3.2v.5h-2.7l-.5.5v1.4H350l-3.6-.5h-.9v-.9l-.9-.5-1.9-.2 1-.2v-.9l-.5-.9h-.9V206l-.5-1.4H329l-.9.5v.5l.5 1.4.5 1.4.5.5.5.5v.5l.5 1.8.5.9.5.9.5.5.5.9.9.5v.9l.9.5.5.9h14.6v.5h-11.9l-.9.5v.9h2.2l14.6-.5h2.8l-.5.5h-12.7l-4.1.5v.9l.9.5.5.5.9.5 1.9.5 2.2.5h11.4l2.7-.5 1.4-.5 1.8-.5.5-5.9v-4.8l-.5-25.1h-16.4v1.4h-.5zM162.7 220c.5-.5 1.6.6.5.2h-.1c-.1 0-.6 0-.4-.2zm-1.4 2.8h10.5l.5-.5v-20.9l-.5-.5-8.2-.5h-2.2v22.4h-.1zm20.4-17.8h3.2v.5h-3.2v-.5zm5.1-10.4l-.5.5-.2 1.9-.2-1.4-.5-.5h-9.6v2.2l.5 1.4.5 1.4.5.5 2.2.5h9.1l-10.9.5v.9l.5 1.4.5 1.4.5.9.5 1.4.5.9.5 1.4.5.5.5 2.2.5 1.4.5 1.4.5.9.5 1.8.5 1.4.5.9.5.5 6.8.5h3.6l1.4-.5v-15.1h-4.6v-.5h4.6V188h-4.6v.5h4.1v6.4h-9.2v-.3zm131.1 20.9h-6.8l-1.3.5-.5.4-1.4.4v1l.5.4v1.3l.5 1v.9l.4.5.5.4.5.5h1.7l.5-.5 7.3-.4 1.8-.5v-.9h-3.7v-1h-2.2v-.4h5l.4-.4v-.5l-2.2-.4v-1.4h1.4V215h-1zm-305.2 5.9h1.8v.9l3.2.5.9.5h2.7l.5-.9 1.4.5h6.4v-1.4h3.6v-.9l-2.2-.5H18.6c-.6 1.5-2.6 1.5-3.2 0h-2.7v1.3z"/><path class="st0" d="M287.5 220.9l.4 1h10.5l.5-1v-1.4h-.5l-1.9-.4H287v.4zm-191.9 1.4l2.8.5h7.2l2.4-.5v-1.8l-1-.5-8.2-.5h-3.2zm89.8 0l.4.5h1.9l.5-.5v-.9h-2.8zm74.3-2.3h-.5.5zm-8.7-1.3v.9h2.2v.5H251v2.2l.9.5h4.6l.5-.5h6.4l10.5.5h3.6l.5-.5v-2.2h-5l-4.1.5v-.5h2.7v-.5h-10.8v-.5h2.2v-.5l-9.5-.5-2.5.6zm-193.1 4.5h4.9v-.9l-2.7-.4h-2.2z"/></svg>