<svg xmlns="http://www.w3.org/2000/svg" viewBox="0 0 480 480"><path d="M472 144h-24v-12c0-15.5-12.5-28-28-28-4.2 0-8.3 1-12 2.8V96c0-17.7-14.3-32-32-32s-32 14.3-32 32v48h-32v-8c.1-13.2-10.6-23.9-23.8-24-6 0-11.8 2.2-16.2 6.2-9-8.3-23-8.3-32 0-9-8.3-23-8.3-32 0-9.8-8.9-24.9-8.2-33.8 1.6-4 4.4-6.3 10.2-6.2 16.2v8h-32V96c0-17.7-14.3-32-32-32S72 78.3 72 96v10.8c-3.7-1.8-7.8-2.8-12-2.8-15.5 0-28 12.5-28 28v12H8c-4.4 0-8 3.6-8 8v48c0 4.4 3.6 8 8 8h24v12c0 15.5 12.5 28 28 28 4.2 0 8.3-1 12-2.8V256c0 17.7 14.3 32 32 32s32-14.3 32-32v-48h16v26.7c0 10.6 4.2 20.8 11.7 28.3l20.3 20.3V416h16V280c0-2.1-.8-4.2-2.3-5.7L175 251.7c-4.5-4.5-7-10.6-7-17V184h46.9c3 0 5.9 1.4 7.7 3.8.1.1.1.2.2.2.3.5.6 1.1.8 1.8.2.5.3 1 .3 1.5.1.5.1 1 0 1.5 0 .3-.1.5-.1.8-.2.8-.5 1.7-.9 2.4-1.4 2.5-4 4-6.9 4h-24c-4.4 0-8 3.6-8 8v16c0 3.4 2.2 6.5 5.5 7.6l17.6 5.9c14.3 4.7 24.9 26.4 24.9 42.5h16c0-22-13.7-50.3-35.8-57.7l-12.2-4.1V216h16c6.7-.1 13.1-3 17.6-8H304v29.3c0 5.2-1.7 10.2-4.8 14.4l-17.6 23.5c-1 1.4-1.6 3.1-1.6 4.8v136h16V282.7l16-21.3c5.2-6.9 8-15.3 8-24V208h24v48c0 17.7 14.3 32 32 32s32-14.3 32-32v-10.8c3.7 1.8 7.8 2.8 12 2.8 15.5 0 28-12.5 28-28v-12h24c4.4 0 8-3.6 8-8v-48c0-4.4-3.6-8-8-8zM32 192H16v-32h16v32zm40 28c0 6.6-5.4 12-12 12s-12-5.4-12-12v-88c0-6.6 5.4-12 12-12s12 5.4 12 12v88zm48 36c0 8.8-7.2 16-16 16s-16-7.2-16-16V96c0-8.8 7.2-16 16-16s16 7.2 16 16v160zm40-88c-4.4 0-8 3.6-8 8v16h-16v-32h32c0 1.5.2 3 .5 4.5.1.5.2.9.4 1.4.2.7.3 1.4.6 2.1H160zm40-8c0 4.4-3.6 8-8 8s-8-3.6-8-8v-24c0-4.4 3.6-8 8-8s8 3.6 8 8v24zm32 0c0 4.4-3.6 8-8 8s-8-3.6-8-8v-24c0-4.4 3.6-8 8-8s8 3.6 8 8v24zm48-24c0-4.4 3.6-8 8-8s8 3.6 8 8v24c0 4.4-3.6 8-8 8s-8-3.6-8-8v-24zm-32 0c0-4.4 3.6-8 8-8s8 3.6 8 8v24c0 4.4-3.6 8-8 8s-8-3.6-8-8v-24zm96 56H240v-.2c0-1.6-.2-3.2-.5-4.7 0-.2-.2-.4-.2-.6-.1-.6-.4-1.1-.5-1.7-.3-1-.7-2-1.2-3-.2-.5-.3-1-.6-1.5.1-.1.2-.1.3-.2.4-.2.7-.5 1-.8.6-.4 1.2-.9 1.8-1.4.5.4 1 .7 1.5 1.1.5.4 1 .8 1.5 1.1.8.5 1.5.9 2.3 1.3.5.3 1.1.6 1.6.8.9.4 1.9.7 2.9.9.5.1 1 .3 1.5.4 3.1.6 6.2.6 9.3 0 .5-.1 1-.3 1.5-.4 1-.2 1.9-.5 2.9-.9.6-.2 1.1-.5 1.6-.8.8-.4 1.6-.8 2.3-1.3.5-.4 1-.8 1.5-1.1s1-.7 1.5-1.1c.5.4 1 .7 1.5 1.1.5.4 1 .8 1.5 1.1.8.5 1.5.9 2.3 1.3.5.3 1.1.6 1.6.8.9.4 1.9.7 2.9.9.5.1 1 .3 1.5.4 13 2.6 25.6-5.7 28.2-18.7.3-1.6.5-3.2.5-4.8h32v32zm48 64c0 8.8-7.2 16-16 16s-16-7.2-16-16V96c0-8.8 7.2-16 16-16s16 7.2 16 16v160zm40-36c0 6.6-5.4 12-12 12s-12-5.4-12-12v-88c0-6.6 5.4-12 12-12s12 5.4 12 12v88zm32-28h-16v-32h16v32z" fill="#333"/></svg>