<svg version="1.1" id="Шар_1" xmlns="http://www.w3.org/2000/svg" x="0" y="0" viewBox="0 0 49.3 50.9" xml:space="preserve"><style>.st1{fill-rule:evenodd;clip-rule:evenodd;fill:#333}</style><g opacity=".3"><path class="st1" d="M14.2 2.6c0 .1-.4.6 0 .6.1-.3.2 0 .5 0 0-.4-.1-.7-.5-.6z"/><path class="st1" d="M49 .3C36.7-.2 24.4.1 8.3.1 5.8.1 3.2-.3.9.6.5 15.5.7 35.5 0 50.4c2.3.5 5.2.2 8 .2 2.7 0 7.7-.1 8.6 0 3 .4 7 .3 9.9.3 5.3 0 14.3-.5 20.7-.5 0 0 .7-31.8 1.8-44.7.3-3.3.5-5.4 0-5.4zm-2.4 28.5c-.4-.4.4-.9.6-1.2.4.4-.6.7-.6 1.2zm1.3-17.4c.4-.3 0 1.1 0 1.4-.4-.4.3-.8 0-1.4zm-.3 1.8c.4 1.2-.4 3.6-.5 5.2-.2-1.5.5-3.4.5-5.2zm-3.4-9.8h2.6c-.3.7-1.5.6-2.6.6v-.6zm.5 21.7c-.2.9 0 2.2-.9 2.6.8-4.2 1.3-9.3 2.2-13 0 2.7-.7 7.2-1.3 10.4zm.5 5.7c0-.5.3-.5.3-.9.5 0 .2 1-.3.9zm-1.7 1.4c-.7-.5.1-1.8.3-2.3.3.8-.4 1.5-.3 2.3zm1.1-15.6c.3-1.3.3-3 .5-4 .5.9 0 3.2-.5 4zm0-8.9c.3 3.4-1 6.9-1.2 10.8 0-4.4.4-7.3 1.2-10.8zM43 25.3c.3-.1.2.3.5.3-.1.4-.5.7-.6 1.1-.3-.4-.1-.9.1-1.4zm-.3 3.5c-.4-.3-.2-1-.2-1.5.7.1.4 1 .2 1.5zm-.5-7.6c-.8-1.3.2-3.9.2-4.9.3 1.4-.1 3.4-.2 4.9zm-.4-11.7c.7 0-.1.8.2 1.4-.7-.2-.1-.8-.2-1.4zm-4-4.4c.9-.3 2.3.1 2.9-.2.3.7-1.8.4-2.9.6v-.4zm3.8 1.7c-.9.6-3.6.2-4.3.1.5-1.1 3.2-.4 4.3-.1zm-6.3-3.1c-.1.2-.1.6 0 .8 0 .2-.2.1-.2 0-.1-.1-.1 0-.1.1-.2 0-.1-.2 0-.2-.1-.3-.2-.7.3-.7zm-3.1-1.6c.5.6-.9.5-1.1 0 .4.2.9.5 1.1 0zm-2.6 3.1c-.8 1.1-2.5-.5-3.1.9-.6-.1.5-.6 0-.6 1.1-.1 2.1-.5 3.1-.3zm-1.1-.9c0 .6-.9.3-.9.9-.5-.2-.2-.3 0-.5-.3-.4-1 .1-1.4 0 .1-.5-.5-.3-.6-.2.5-.5 2.1.1 2.9-.2zm-4-.9c-.2.4-1.1.1-1.5.2.3-.4.9-.4 1.5-.2zm-.1 2.1c0 .2-1.3.4-1.1-.2.4.1.9 0 1.1.2zm-2 .8c3.1.6 4.8.3 7.1.3-2.1.7-4.2.3-7.2.3-.1-.3.1-.3.1-.6zM21 13.4c.7-1.5.4-3.7 1.1-5.7h7.1c-.2 2.3-1.2 4.8-.8 6.1-.3.4-.8 1.6-.8 2.3v.3c.1 0 0 .3 0 0l-.2.2c-.2.3-.2 1.9-.5 2.9-.6 2.3-2 5.6-4.4 5.5-3.8-.2-1.7-9.6-1.3-11.4.1-.2 0-.2-.2-.2zm7.1 13.9c-.4-.2.1-.8.5-.8 0 .5-.5.4-.5.8zm-5.7 3.3c-.3-.4 0-.6 0-1.1.5.1 0 .8 0 1.1zm-.7 11c-.5-.5-.2-1.9 0-3.1.7.8-.3 2.1 0 3.1zm.2-3.2c-.5-.4.1-1-.2-1.4.8.2.3.8.2 1.4zm-2.8-35c-.2 0-.3 0-.3.2-.2-.3.1-.6-.2-1.1.1-.3.5.5.5.9zm-.6 1.7c-.4-.5.4-.7 0-1.2.7.1-.2.9.3 1.1 0 .3-.3.4-.6.3 0-.2.2-.2.3-.2zM13.7 1c.4-.1.8.7.8 0 .2 0 .1.3.3.3 0 .4-.9.2-.2.5-.6.2-1.3-.5-2.1-.1.3-.9.9.2 1.2-.7zm-1.8 3.7c.6-.1.7-.1 1.1.3.1-.3.2-.4.5-.5.1.9.9-.7 1.2-.5 0-.4-.2-.5-.3-.8-.2.1-.4.2-.8.2.3-.6.1-.8.6-1.2.2.2.7.1.6.6.4-.2.7-.3.9-.3.4 0-.2.3 0 .6 1.1-.1 1.5-2.2-.3-1.7 0 .2.4.1.6.2-.1.3-.4.4-.7.4 0-.5-.5-.4-.3-1 .5-.1 1.4.2 1.9.2.1.4.1 1.1.6 1.4 0 0-.7.3-.6-.2-.4 0-.1.7.2.6-.1.4-.6-.4-.5.5-.2-.3-.6.3-.8-.3-.3-.1-.8.8-.8.2-.1 0-.2.2-.3.2.2.2.5.4.8.6-.5.3-.7 1-.9 1.7-.4 0-.2-.4-.5-.5 0 .1.3 1.1 0 1.7-2.1 0-3.4.1-5.2 0-.3-.6.3-.4.4-.8.2.1.1.3 0 .3 1 0 2.4-.1 3.4.2 0-.4-.3-.5 0-.8-.5.2-.4.1-.8-.2.1-.3.7-.1.3.2.1 0 .2-.2.3-.2 0-.3-.4-.3-.5-.6-.3.1-.5.4-.8.5.1.2.4.2.3.5-.3 0-.3-.4-.6-.5.1-.1.4-.2.2-.3.5-.3.8-.1.8-.7zm5.2 15.9c-.2-.5-.2-1.3-.3-2 .5.4.3 1.5.3 2zm-.8 4.7c-.7-.6.2-.8-.3-1.4.3.2.4.7.6.9-.2.2-.5-.5-.3.5zm0-2.8c.2-.3.3.8.3 1.2-.4 0-.1-.7-.3-1.2zM8.5.9c1.2 0 1.2.6 2.2.2-.1.5-.1.3 0 .8.2-.2.3-.4.5-.6.1.2-.3 1.2-.6 1.5.6.3.5.3 1.1.6-.2.5-.6 0-.9.6.1.3.8.1 1.1.2-.2.3-1.6.4-2.2.3-.1.5-.1.3 0 .8.1-.8.2 0 .3-.6.4.2.7.3.8.8-.4.6-1.6-.1-1.9.9-.2-1.8 1.2-3.7.9-4.8C9.2 2.8 8 4.1 8 5.5c-.4-.1-.4.2-.8.2.1.6 0 .9-.6 1.2.6-2.1 1.3-4 1.9-6zm.9 44.7c-.3 0-.4-.3-.3-.6-.4 0-.5.2-.6.5.5-.4.2.3-.3.2.1-.8-.2-.7-.6-.6-.1-.5.8-.1.6-.6.7.1 1 .3 1.4.3.1.5-.3.4-.2.8zm-2-.3c-.5.2-.3-.6-.8 0 .1-.7.1-.9 0-1.5 1-.1-.3 1.2.8 1.1 0 .2-.3.3 0 .4zM6.2 20.9c.5 1 .2 2.8.3 4.8-.5-1.5-.2-2.3-.3-4.8zm.1 8.7c.5-.6.3 1.7 0 2.6-.1-1.2.3-2.6 0-2.6zm.5 9.5c.2 0 .1.3.3.3-.2 1.4-.3 1.3-.3-.3zM6.2 7.8c.5-.1.6.2.9.3 0 .2-.3.2-.3 0-.3 0 .3.9-.3.5.1 1.3-1 .8-.3-.8zM3.1 2.6c.8 0 1.1 1.1.9 1.5-.5 0 0-1.1-.9-.7v-.8zm-.9 8.6c.7.2 0 2.4.2.5-.2-.1-.2-.3-.2-.5zm0-4.6c.5 1 .2 3 .2 4.2-.3-1.4-.5-3.2-.2-4.2zm.9 37.2c-.3-.2-.2-1.2 0-1.4.5 0 .1 1 0 1.4zm.8-24.6c-.2-.2-.4-.8-.2-1.1.3.1.1.8.2 1.1zm.4 19.5c.4-2-.2-4.3.2-5.6.6 1.5.4 4.1-.2 5.6zm.8-26.4c-.8 1.5-1.5 3.2-1.2 5.7-.6-.5 0-.8-.3-1.5-.2.2-.2.8-.5.9h.1c-.7 2.4-1.1 4.8-2 7.3 0-4.4 2.2-6.4 2.3-11.3.3 0 0 .7.3.8.8-1.8 1.1-3.1 1.9-4.9.8 1.2-1.1 2.3-.3 3.7-.2-.2-.3-.4-.3-.7zm.5 12.8c-.1-.7.2-.9 0-1.4.4-.1.4 1.5 0 1.4zm.3-7.6c.7.5.4 1.4.3 1.9-.4-.4 0-1.5-.3-1.9zm.3 2c.2.3.4.8.2 1.1-.4-.3-.4-.6-.2-1.1zm.1 15.6c.2-.6-.5-.2 0-.6.4-.3.1 2.3 0 .6zm1.1 14.5c-.1-.1-.3-.2-.3 0-.2-.1-.3-.3-.3-.6.2-.1.4-.2.8-.2 0 .4-.3.4-.2.8zm2.8-3.8c.4.7-.6 1.7.2 2.2 0 .2-.5.1-.5.3-.3-.1 0-.3 0-.5s-.4-.1-.6-.2c.6.3-.3.6.3 1.1-.1.2-.6.2-1.1 0 .2-.2.3-.5.5-.6 0-.3-.9.3-.5-.3-.9.1-1.1.1-1.5.2-.2 0-.1-.3-.3-.3.5-.2.5-.6.6-1.4h.3c.2.2.2.6-.3.5.1.3 1 .2.9-.2.3.4.2.4.6.9.1 0 .2-.2.3-.2 0-.4-.7-.2-.5-.8.1.1.3.2.6.2-.3-.4.2-.5-.2-.8.5 0 .7 0 1.4-.3.1.2-.1.1-.2.2zm.4-.5c-.5-.1-.6.3-.9 0 .3-.7.3-.7.2-1.7.7-.1.8.8.3 1.1.1.4.5-.4.8 0-.3.3-.6 0-.4.6zm.7 3.7c-.1 0-.1-.1-.2-.2v-.3c.2 0 .3 0 .3-.2.2 0 .1.2 0 .2.1.1.3.2.5.3-.1.6-.6-.3-.6.2zm2.3-.6c-.4-.3-1.2-.2-1.7-.5.1-.1.2-.2.2-.5.4 0 .5.3.9.2.3 0 .1-.6.5-.6 0-.3-.3-.4-.6-.3.2-.5.8.2.6-.9-.1-.1.4 1.7.1 2.6zm.1-3.7c-.2-.1-.3-.3-.3-.6.6.2.1-.8.8-.5-.4.2-.4.7-.5 1.1zm.6 4.8c-.2-.1-.3-.2-.3-.5.1 0 .1.2.2.3.2-.3.6-.4 1.2-.3-.2.5-.8-.1-1.1.5zm2-4.2c-.4.1-.3-.3-.6-.3-.1.1-.3.1-.3.3 0 .2.4.1.6.2-.1.2-.3.2-.3.5-.2-.5-.7-.3-.9 0-.1 0 .3-.3-.5-.5-.3-.1.2-.2.2 0 .4-.9.4-.8.8-1.2.5.4.7.1 1.4.3.1.4-.2.5-.4.7zm-7.8-3.2c-.3-11.3 0-23.4.3-34.4h5.1c-.5 4.5-1.4 9.9-.9 14 .2 2.1 1.3 5.6 1.5 6.2.9 1.3 1.9 3.4 3.9 4.2-.2 2.7-.7 6.3-1.4 10.2-2.1.2-4.9-.2-8.5-.2zm9.5-.2c.4-1.6.4-3.8.8-5.7 0 2.1 0 4.1-.8 5.7zm.3-29.4c-.1-.6.2-1.9-.6-2.2.1 0 .1-.2.2-.3.1 0 .1.2.2.3.4-1.2.2-1.5.5-2.6.2 0 .3.1.5.2-.3 1.5-.5 3-.8 4.6zM20.2 36c0 1.8-.1 4.5-1.1 6.2.7-2.7.3-3.1 1.1-6.2zm-.9 8.7c.7.1.7 0 1.2.2 0 .4-1.4.4-1.2-.2zm1.4 2.9c.8-.3 1.6-.1 2.3-.2.4.6-2 .4-2.3.2zm5.8 2.5c.9-.6 3.2-.2 4.2-.3-1.3.2-2.7.2-4.2.3zm1.7-4.7c.1-.2.2.1.5 0-.4.6-.9.4-1.7.8-.1-.7.6-.5.8-.9.2.1.1.5.6.3 0-.1-.1-.1-.2-.2zm11.8-11c0 3.3-.2 6.2-.2 8.4-3.8 0-10.7.2-14.6.2 0-.2.1-.6-.2-.6-.4 0 .4.6-.3.5.3-.3 0-.2 0-.6.4.1.6-.1.5-.5-.1 0-.2.2-.2.3-.5-1.8 1.1-7.4 1.2-9.2 4.1 0 6-4.2 6.3-4.5 0-.2-.2-.1-.3-.2.1-.2.5-.1.3-.6.5.2-.2.6.2.8.5-.5.2-1.6.9-.9.2-.4-.5-.7-.6-.3-.4-.4.4-.5.6-.3.4-.4.4-.3.2-.8h.6c-.6-.4-.3-.7-.6-1.2.6 0 .1-.1.2-.5.4 0 .3.5.8.5.3-1.2.7-1.7.5-3.1.2 0 .3.1.5.2 0-.6.3-1-.2-1.2.4.1.7-.6.3-1.2.4.1.6-.9.3-1.5.5.3.1-.9.6-1.2-.1.1-.3.1-.3.3-.1 0 .1-.9.5-.9-.7-.2 0-.8.2-1.7-.2-.5-.5-.6-.7-.6.3-.4.2-.3.2-.9.2.1.2.5.3.8.3-.4.1-.9-.2-1.4.1 0 .1.2.2.3.4.1.1-1.1 0-.5.1-.5.8-2.8.8-4 1.6-.4 1.5-.4 3.5-.1M33.1 47c-.4-.6 1.6.1 1.4-.5.2-.4.3.5.8.3-.4.6-1.8-.1-2.2.2zm3.4-1.1c-.2.5-.1.2-.9 0 .2-.2.2.2.9 0zm.3.8c0 .2 0 .3.2.3-.8.3-1.7-.3-.2-.3zm.4.4c.4-.7.8-.5 1.3 0-.7-.3-.5 0-1.3 0zm1.7-.1c0-.3 1.1-.6 1.1 0h-1.1zm1-.9h-2.3c.2-.5 1.3-.5 1.5-.2.2-.2 2.2.2.8.2zm1.7-24.2h.5c.2 1.4-.6 4-.6 5.7-.5-1.7.4-3.4.1-5.7zm.3 11.7c0-.4.2-.6.2-1.1.5-.2.2 1.1-.2 1.1zm.3 2.1c.1-1.5.2-2.3.5-3.5.1.8.1 2.9-.5 3.5zm-.3 6.5c.3-.3.5 0 .8.2 0 .2-1.1.3-.8-.2zm1.9-7.9c-.2-.5.1-1.7.2-2.2.3.7-.1 1.7-.2 2.2zm.4-4.9c.2 0 .3.1.5.2l-.3.6c-.3 0-.1-.6-.2-.8z"/><path class="st1" d="M13.6 6.4c.3-.5.1-1.1.2-.8 0 .2-.3.1-.5 0-.1.5-.1.8.3.8z"/></g></svg>