<?xml version="1.0" encoding="utf-8"?>
<!-- Generator: Adobe Illustrator 21.0.0, SVG Export Plug-In . SVG Version: 6.00 Build 0)  -->
<svg version="1.1" id="Layer_1" xmlns="http://www.w3.org/2000/svg" xmlns:xlink="http://www.w3.org/1999/xlink" x="0px" y="0px"
	 viewBox="0 0 342.6 103.8" style="enable-background:new 0 0 342.6 103.8;" xml:space="preserve">
<style type="text/css">
	.st0{fill:#333333;}
</style>
<g>
	<path class="st0" d="M27.7,9.4c-0.1,0.2-0.8,1.1,0,1.2c0.1-0.5,0.4,0.1,0.9,0C28.6,9.8,28.5,9.3,27.7,9.4z"/>
	<path class="st0" d="M344.4,8.5c0.2-1.6,0.9-3.5,0-4.8c-0.5-1.7-2.3-0.8-3.6-0.9c-5.2-0.3-10.3-0.4-15.3-0.3
		c-11.4,0.3-21.1,0.2-32.2,0C261.4,2.1,227,4.3,190.2,4.3c-34.2,0-67.5,1.2-97.7,0.6c-24-0.4-44.9-0.3-76.3-0.3
		c-4.9,0-9.9-0.9-14.4,0.9c-0.9,29.1-0.4,68-1.8,97.1c4.6,0.9,10.2,0.3,15.6,0.3c5.2,0,15-0.3,16.8,0c5.8,0.9,13.7,0.6,19.2,0.6
		c26.6,0.1,63.8-0.2,93.2-0.3c64.4-0.3,135.4,1,197.8,0.6c-0.6-19.7,0.9-40,0.9-59.8c0-6.9-0.2-14.7,1.2-19.8
		C344,18.6,344.1,11.8,344.4,8.5z M340.2,55.4c0.5,2.3-0.1,5.8-0.3,8.7c0.2,0.9-0.3,2.8-0.3,0.9C339.6,61.7,339.3,58.6,340.2,55.4z
		 M319.4,15.7c0.3,0.6-3,0.2-4.2,0.3C315.5,15.4,318,15.6,319.4,15.7z M313.7,35.3c-0.9-0.9-1.3-2.3-2.7-2.7
		C312.3,30.7,314.7,35,313.7,35.3z M311.3,9.7c1.4,0.5-2.8,0.2-3.9,0.3c-0.3-0.1-0.3,0.1-0.3,0.3C306.4,9.1,310.2,9.9,311.3,9.7z
		 M309.3,42.8c0.7,0.3,1.1,3.7,0,3.9C309.6,45.8,309.1,44.4,309.3,42.8z M309.3,20.9c-0.9-0.9-0.3-1-0.3-2.4
		c0.3,0.1,0.5-0.1,0.6-0.3C310.2,17.7,309,19.8,309.3,20.9z M307.1,27.2h-0.9c-0.2-0.6,0.2-0.8,0.3-1.2
		C307.4,25.6,307.1,26.6,307.1,27.2z M306.8,32c-0.3,1.2-1.7,0-2.7,0C304.6,31.2,306.2,31.8,306.8,32z M306.8,24.7
		c-0.2-2.3,0.6-4.4,0.9-7.2C308.3,18.6,308,23,306.8,24.7z M309.3,7.3c-1.3,0.6-3.9-0.1-5.4-0.3C304.8,6.8,307.1,6.7,309.3,7.3z
		 M290.9,34.1c1.2-1.5,2.7-2.8,5.1-3C295.1,32.9,293.3,33.7,290.9,34.1z M293.3,36.5c-0.5,0.8-0.5,2.1-1.8,2.1
		C291.9,37.7,292.1,36.6,293.3,36.5z M296.9,35.3c-0.2,0.8-0.8,1.2-1.8,1.2C295.5,35.8,296.1,35.4,296.9,35.3z M283.4,29
		c-8.9,6.2-12.9,22.4-11.4,37.3c1.2,11.9,10.2,16.8,12.6,18.2c-0.1,2.2-0.6,3.9-0.9,5.7c-7.5,0.2-14.5-0.3-20.2-0.6
		c0.2-7.7,10.3-64.1,10.8-72.4c8.8-0.3,16.8-0.2,25.3,0c-0.5,1.8-1,3.6-1.5,5.4C292.2,23.5,287.7,26,283.4,29z M287,90.3h-1.2
		c-0.4-1.4,1.1-2.5,1.2-4.2C288.3,86.5,286.6,88.7,287,90.3z M283.4,44.6c0.7,1-0.5,2.7-0.9,3.6C282,47.1,283.2,46.4,283.4,44.6z
		 M282.2,45.2c0.3-0.9,0.6-3,1.2-4.5C283.7,40.6,283.2,44.7,282.2,45.2z M278.3,57.5c0.1-1.2,0.5-2.1,0.6-3.3
		C279.5,54.9,279.3,57.3,278.3,57.5z M276.1,56.9c-0.9-2,0.4-4.4,0.9-6C277.6,51.4,276.8,55.5,276.1,56.9z M273.2,16
		c6.9-1.6,19.1-0.8,26.7,0H273.2z M300.8,34.3c-0.6,0.9-2.7,0.3-3.3,1.2C296.9,34.7,299.6,34.4,300.8,34.3z M299,7.3
		c-0.6,0.7-2.5,0.1-3.6,0.3C296.1,6.9,298,7.5,299,7.3z M299.9,12.7c-2.2,0.6-6.6,0.8-7.8,0C295.5,12.9,297.2,12.1,299.9,12.7z
		 M290,7.6c-1,2.1-4.9,0.1-6,0.9C284.5,7.2,287.8,7.9,290,7.6z M291.8,12.7c-6.3,0.6-11.3-0.3-17.8,0
		C280.2,11.1,285.1,12.1,291.8,12.7z M280.1,6.1c-1.5-0.3-5.8-0.2-8.7-0.6C274.3,4.9,278.8,3.9,280.1,6.1z M266.8,29.2
		c0.8,0.6-0.3,1.8-0.3,2.7C265.7,31.2,266.9,30.1,266.8,29.2z M266,19.7c0.9,2.2-1,4-1.2,6C264.1,23.7,265.5,21.3,266,19.7z
		 M265.4,37.1c-0.8-1.2,0.3-3.1,0.6-4.2C266.7,34,265.4,35.6,265.4,37.1z M264.2,31.4c1-0.3,0.4,2-0.3,1.8
		C263.6,32.2,264.3,32.2,264.2,31.4z M263.5,50.8c1.5-8.8,3.4-15.9,5.5-24c-0.6,6.1-1.6,12.5-2.7,15.3c0.3,0.9,0.4-0.7,1.2-0.3
		c-0.3,0.7-0.5,2.6-0.6,3c0,1.5,0.4,4-1.2,5.3c0-0.8-0.1-1.7,0.3-2.1c-1.1,0.7-0.9,1.7-1.2,2.7C264.1,50.8,263.6,50.6,263.5,50.8
		c-0.1,0.3-0.1,0.6-0.2,0.9C263.2,51.2,263.3,51,263.5,50.8z M256.7,7.9c0.8,0,1.5,0,1.8,0.3C258.5,8.6,256.2,8.9,256.7,7.9z
		 M260.5,22.9c0.2,2.8-2.1,5.7-2.7,8.7C257.6,28.8,259.5,25.5,260.5,22.9z M255.7,7.9C255,8.3,254,8.4,253,8.5
		C253.6,7.9,254.6,7.9,255.7,7.9z M258.5,12.1c-2,0-5.9,0.2-7.5,0C252.4,11.6,256.9,10.5,258.5,12.1z M249.4,13.6h4.5
		c-0.4,1.3-3.1,0.3-4.5,0.6V13.6z M246.4,13.6c-1.4,1.1-7.6,0.6-8.4,0.3C240.3,13.3,242.9,14.3,246.4,13.6z M257.9,16
		c-9.1,0.7-12.8,0.3-19.8,0.6C242.9,15,251.2,16,257.9,16z M227.8,37.3c0.8,0.8-0.5,2.3,0.3,3.3C226.8,40.5,227.7,38,227.8,37.3z
		 M227.5,100.8c-1.6,0.9-5.3,0.1-7.5,0.3C221.6,100.4,224.9,100.2,227.5,100.8z M227.2,89.7c-2.2,0.1-4.6-0.3-7.5-0.3
		c1.3-13.9,5.1-26.6,6-39.1C226.4,63.7,226.3,74.8,227.2,89.7z M220.3,62.6c0.8,1.3-0.6,3-0.6,4.5C219,65.5,220,64.5,220.3,62.6z
		 M225.1,18.1c0.4,1.6-0.5,5.1-0.6,7.8C223.9,24.1,224.4,21,225.1,18.1z M223,9.4c1.2-0.7,0.2,0.6,2.1,0c0.7-0.5-0.9,1.1-2.1,0.6
		C223.2,9.7,223.4,9.5,223,9.4z M220.3,73.5c0.8-3.3,1.2-6.6,1.8-9.3C222.7,66,221.6,71.4,220.3,73.5z M221.5,31.6
		c0.9,1.4-0.3,3.3-0.3,4.8C220.5,35.4,221.6,33.8,221.5,31.6z M220.9,56.9c-1.7-0.7-0.3-1.8-0.3-3.3
		C221.5,54.5,220.4,56.2,220.9,56.9z M219.1,53.9c-0.3-2.2,0.5-5.9,0.9-8.4C220.5,47.9,219.4,51.3,219.1,53.9z M217.6,77.9
		c-0.6-2.8,0.8-6.2,1.2-9.1C219.9,71.1,217.8,75.1,217.6,77.9z M219.1,35.3c-0.8-0.7-0.3-1.7,0-2.7
		C219.7,32.9,218.7,34.1,219.1,35.3z M216.7,37.3c-0.1-4,1.6-8.8,2.1-13.2C219.3,28.6,217.2,32.9,216.7,37.3z M214.9,52.1
		c-0.9-0.5-1.2,2.4-0.3,2.4c-1.7,0-0.4,5.3-2.1,6.3c1.1-7.3,2.2-15.4,3.9-23.1C216.8,42.2,213.8,48.5,214.9,52.1z M213.6,75.3
		c1.2,0.5-0.5,3-0.3,4.5C212.4,78.6,213.6,77,213.6,75.3z M214.6,74.9c0.3-0.2,1-0.2,0.9-1.5c1.1,3-1.2,7.6-1.5,11.1
		C213,82,215.8,77.9,214.6,74.9z M214.6,73.1c-0.1-6.6,1.6-12.4,2.1-17.2C217.4,60.5,215,67.2,214.6,73.1z M218.8,18.1
		c-3.9,18.2-10.6,66.3-13.8,71.2c-5.9-0.5-14.9-0.1-21.9-0.6c0.5-2.1,0.8-3,1.2-5.4c3-1.8,6.9-2.8,9.9-5.4
		c9.5-8.1,12.4-25.4,13.2-37.6c0.3-5.3-4.6-14.6-11.7-13.8c0.6-2.8,1.2-5.4,1.8-8.1C204,18,210.6,18.1,218.8,18.1z M210.6,100.4
		c-2.7,0.8-11.1,0.6-16.8,0.3C197.6,99.6,206.4,100.3,210.6,100.4z M182.4,91.1c5.3-0.1,8.4,0.1,12.3,0.3
		C192.6,91.7,185,92.3,182.4,91.1z M196.6,95.7c1.1-0.4,3.1-0.3,4.8,0C199.5,96.6,198,96.2,196.6,95.7z M206.5,97.8
		c1.1-0.7,3.6-0.4,6,0C210.8,98.6,208.4,97.6,206.5,97.8z M202.5,94.1c2.5,0.6,5.3,0.2,6.3,0.9C207.3,96.6,203.7,95,202.5,94.1z
		 M210.4,73.1c0.8-3.9,1-7.4,1.8-9.6C212.4,66.6,211.5,71,210.4,73.1z M186.3,74.3c0.3,0.5,0.8,0.8,0.9,1.5c-0.2,0.5-1.5,0-1.5,0.6
		C185.3,76.2,186,74.7,186.3,74.3z M192.6,24.7c-2-0.9,0.9-3.7,0.9-5.4C194.1,20.2,191.9,23.3,192.6,24.7z M193,32.9
		c-0.1,1.5,0.3,6.1-1.5,6.9C191.7,37.2,192.2,34.9,193,32.9z M193,60.5c0.1-0.4,0.8-0.3,1.2-0.3c-0.5,1.2-0.5,1.2-0.9,2.7
		C191.8,62.7,194.2,61.2,193,60.5z M197.8,48.2c0.9-0.4,0.6,2.3-0.6,1.8C196.8,48.9,197.9,49.1,197.8,48.2z M199.6,55.7
		c0.7,1.6-0.3,3.8-0.9,5.7C197.4,59.9,198.5,57.2,199.6,55.7z M195.4,51.5c-0.3-3.7,1-7.2,2.1-10.8
		C196.9,43.8,196.8,48.8,195.4,51.5z M195.4,68.6c-0.6-0.9,1-1.9,1.2-3C198,66.2,195.5,67.7,195.4,68.6z M195.4,39.1
		c0.2-1.9,0-2.2,0.6-3.6C196.5,36.5,197.8,39.5,195.4,39.1z M194.2,10.9c1-1.2,1.5,0.4,2.7-0.3C196.7,12.1,195.2,10.4,194.2,10.9z
		 M206.5,15.4c0.4,1.2-2.8,0.9-3.6,0.6C203.4,15.2,206,16.3,206.5,15.4z M201.7,12.1c-1.2,1.1-2.9,0.9-4.5,0.3
		C198,11.7,200.3,12.3,201.7,12.1z M194.8,5.8c1.4,0,2.9,0,3.9,0c-1,0.9-4.5,0.1-7.2,0.3C189.5,5.7,193.7,5.8,194.8,5.8z
		 M191.8,10.9c-0.2,0-2.2,0.3-1.5,0.6c-0.3,0.8-1.2-0.4-1.2-0.9c-2.2,1.1-2-0.2-3.9,0.6c-0.3-0.9,0.9-0.3,0.6-1.2
		c1.3,0,2.7-0.1,3.3,0.6C190.7,10.3,196.1,10.4,191.8,10.9z M188.5,32.2c0.4,1.4,0.5,3.2-0.6,3.9C187.8,34.7,187.7,33,188.5,32.2z
		 M186.7,25c-1.2-1.5,0.9-4.5,0.9-6.6C188.7,19.5,187.6,23.5,186.7,25z M183,8.5c1.2-0.2,3.6-0.2,5.1,0.3c-1.5,0.9-3.3,0.4-4.5,0.3
		C182.9,9.1,180,9,183,8.5z M179.4,10.4c2.5-0.7,3.4-0.4,6-0.3c-0.1,0.6-1.2,0.3-0.9,1.2c-0.8,0-1.6,0.1-0.9-0.6
		c-3.1,1.1-6.6,0.4-10.8,0c1.5-1,4.5,0.2,5.7-1.2c0.1,0.5-0.3,0.5-0.3,0.9C178.9,10.5,179.3,8.8,179.4,10.4z M184.9,20.3
		c0.6,0.7-0.3,2.2-0.3,3.3C183.9,22.9,184.7,21,184.9,20.3z M182.7,11.5c0.7,0,0.9,0.5,1.8,0.3C184,12.4,182.9,12.8,182.7,11.5z
		 M174.6,17.2c0.3-0.2,0.5-0.3,0.6-0.6c1.5-0.3,2.2,0.3,3,0.6C177.9,17.9,172.2,17.5,174.6,17.2z M172.5,16.3
		c0.9-0.1,1.3,0.5,2.4,0.3C174.8,17.1,172.2,17.3,172.5,16.3z M177.4,12.7c-0.8-0.6-2.7-0.2-3.9-0.3c-0.7-0.6,2.2-0.2,3-0.3
		c0.3,0.1,0.5-0.1,0.6-0.3c0.7,0.1,1.1,0.4,2.1,0.3C179.2,12.9,177.3,11.9,177.4,12.7z M174.9,6.7c-1,1.2-2.6,1.6-4.2,0.3
		C171.7,6.2,173.9,6.8,174.9,6.7z M160.5,5.8c1,0,2.2,0,3,0C160.6,6.6,154.6,5.9,160.5,5.8z M160.5,16.3c1.1-0.3,0.6,2-0.3,1.5
		C159.9,17,160.6,17.1,160.5,16.3z M159.6,23.8c-1.1-0.3-0.3-2.1,0.3-2.4C160.5,21.8,159.5,23,159.6,23.8z M157.8,8.5h-2.7
		C155,7.8,158,7.4,157.8,8.5z M155.7,27.2c-0.5-0.2-0.5-2.2,0-2.4C157.1,24.9,155.3,26.1,155.7,27.2z M153.9,16.6h0.9v1.5h-1.2
		C153.5,17.4,153.6,17,153.9,16.6z M150.9,9.7c0.4,0.2,0.8,0.4,1.2,0.6c0.2,0.8-1.5-0.2-1.2,0.6C150.1,10.9,150.8,9.9,150.9,9.7z
		 M150.3,39.5c0.8,0.4,0.1,1.8,0,2.4C149.3,41.3,150.6,40.4,150.3,39.5z M151.5,40.7c0.6,1.5-0.1,6.7-1.2,8.4
		C150.7,46.3,151.4,43.8,151.5,40.7z M149.3,6.4c-3.2,1-9.2,0.7-13.5,0.9C139.7,6,145.5,7.1,149.3,6.4z M147.9,44.9
		c-0.8,1,0,3.5-1.2,4.2C147.3,47.9,146.7,45.4,147.9,44.9z M140.6,66c-0.2-1.7,0.5-2.7,0.6-4.2c0.3,1,1.1,2.5,0.6,3.9
		c-0.4-0.1-0.3-0.8-0.3-1.2C140.7,64.3,141.9,66.4,140.6,66z M139.4,58.7c0.6,4.7-1.6,9.3-2.1,13.8
		C137.7,68.3,138.4,62.4,139.4,58.7z M138.2,50.3c0.8,0.8,0,2.4,0,3.3C137.4,52.9,138.2,51.2,138.2,50.3z M140.4,24.1
		c0.3,1.3-0.2,4.2-1.2,5.1C139.1,27.1,139.8,25.7,140.4,24.1z M139.2,16.6c0.5-0.1,0.5,0.3,0.9,0.3c-0.2,0.4-0.4,0.8-0.6,1.2
		C138.6,18.1,138.7,17,139.2,16.6z M141,33.7c0.1,0.9,0.8,3.3-0.6,3.6C140.4,36,140.6,34.7,141,33.7z M140.6,66.8
		c0.7,3.7-1.4,7.9-1.5,12.3C138.3,75.4,140.4,71.2,140.6,66.8z M142.8,49.4c1.3,0.5-0.3,2.9-0.3,4.2C141.1,52.9,143.1,51,142.8,49.4
		z M142.4,45.4c0.5,0.6-0.1,2.2-0.3,3.6C141.4,48.5,141.7,46.2,142.4,45.4z M143,55.4c0.4,1.6,0,1.8,0,3.9
		C141.9,58.7,143,56.3,143,55.4z M143,68c1.2,0.4-0.3,3-0.3,4.2C142.2,71.3,143.1,69.4,143,68z M142.8,44.9
		c-0.9-2.7,0.8-6.8,1.2-10.5c0.3,1.4,0.1,4-0.3,5.1c1-0.6,0,0.2,0.6,0.3C143.2,40.1,143.1,42.9,142.8,44.9z M136.7,12.1
		c-1.1,0.2-0.8,0.2-2.1,0.3C134.9,10.9,141.1,12.3,136.7,12.1z M136.4,26.6c-0.9-0.6,0.4-1.6,0.3-2.4
		C138,24.1,136.5,25.9,136.4,26.6z M131.3,19.1c1,0.3,0.1,2.8,0,3.9C130.8,22.2,131,19.7,131.3,19.1z M130.7,26.6
		c-0.1,0.7-1,0.6-0.9,1.5C129.1,27.7,129.7,26,130.7,26.6z M126.5,10.6c-0.1,0.9-3.4,1.6-3.3,0C124.9,10.6,125,10.4,126.5,10.6z
		 M126.5,19.3c-1.2,3.4-0.8,7.9-1.5,11.7c3.4,1.6,9.6-0.2,14.4,0c-2,18-4.4,36.9-8.4,56.8c-5,0-12.2-0.2-17.8-0.6
		c3.3-23.6,4.5-46.1,8.4-67.9L126.5,19.3L126.5,19.3z M115.1,27.8c0.3-1.4,0.3-3,0.9-4.2C116.2,24.8,116.2,27.3,115.1,27.8z
		 M117.2,34.9c1.2,0.6-0.7,3.8,0,2.1C117.1,35.9,117.1,36.1,117.2,34.9z M116.3,9.7c-0.6,1.6-3.2,0.3-4.8,0.3
		C113,9.4,115.3,9.5,116.3,9.7z M114.2,48.2c0.5,7.6-1.6,19.7-2.7,26.7C111.1,66,113.6,56.7,114.2,48.2z M107.9,86h0.9
		c0,0.8-0.4,0.9-0.6,1.5C107.2,87.3,108,87,107.9,86z M108.8,92.7c0.8-0.5,0.6,1.3,0.9,0.3c0.8-0.2-0.2,1.5,0.6,1.2
		c-0.5,0.7-1.8-0.4-3,0C106.7,93.5,110.1,94.1,108.8,92.7z M107.3,81.8c0.4-8.7,1.2-17.8,2.7-26.5c0.3,0.2,0.5,0.3,0.6,0.6
		C109.3,65.1,108.7,72.9,107.3,81.8z M111.8,76.1c0.3,2.9,0.3,8.2-1.5,9.9C111.1,82.4,111.5,79,111.8,76.1z M110.9,42.8
		c0.5,1.2,0.4,6.8-1.2,7.8C110.8,48.2,109.8,44.9,110.9,42.8z M108.2,19.3c-1,4.7-0.3,9.2-1.8,12.9c-1.1,2.7-4.5,4.9-6.6,7.2
		c-2.3,2.6-4.1,5.2-6.6,6.9c1.8-9.7,2.2-18.7,3.9-27.1h11.1V19.3z M97.7,53c-0.4,0.9-1.4,1.2-1.8,2.1C95.5,54.5,96.8,53.2,97.7,53z
		 M93.5,63.5c1.4,0.6-1.5,1.8-1.5,3C91.2,65.4,93.3,64.7,93.5,63.5z M90.8,60.5c-0.7-0.7,0.8-1.8,1.2-2.4
		C92.8,59,90.8,59.5,90.8,60.5z M93.5,26.6c0.7-0.5,0.1,2.1,0,2.7C92.6,28.6,93.9,27.7,93.5,26.6z M92.9,30.2
		c0.9,2.2-0.8,6.9-0.9,10.2C91.5,37.3,92.8,33.6,92.9,30.2z M86.2,10.9h5.1c-0.8,1.4-3,1.1-5.1,1.2V10.9z M87.2,53.3
		c-0.3,1.7,0.1,4.4-1.8,5.1c1.6-8.2,2.5-18.2,4.2-25.3C89.8,38.3,88.2,47.1,87.2,53.3z M88,64.4c-0.1-0.9,0.7-0.9,0.6-1.8
		C89.6,62.7,89.1,64.5,88,64.4z M84.8,67.1c-1.3-0.9,0.2-3.4,0.6-4.5C85.9,64.1,84.7,65.5,84.8,67.1z M86.8,36.7
		c0.6-2.5,0.6-5.9,0.9-7.8C88.9,30.6,87.9,35.3,86.8,36.7z M86.8,19.3c0.6,6.6-2,13.4-2.4,21C84.5,31.9,85.3,26.1,86.8,19.3z
		 M83.8,53.6c0.7-0.2,0.4,0.6,0.9,0.6c-0.3,0.8-0.9,1.3-1.2,2.1C83,55.7,83.5,54.7,83.8,53.6z M83.2,60.5c-0.8-0.7-0.3-2-0.3-3
		C84.2,57.8,83.6,59.4,83.2,60.5z M82.4,45.8c-1.6-2.5,0.4-7.6,0.3-9.6C83.3,38.9,82.5,42.9,82.4,45.8z M81.5,22.9
		c1.3,0-0.2,1.6,0.3,2.7C80.5,25.3,81.7,24.1,81.5,22.9z M73.6,14.2c1.7-0.6,4.6,0.2,5.7-0.3c0.6,1.4-3.6,0.9-5.7,1.2V14.2z
		 M81.1,17.5c-1.7,1.2-7.1,0.5-8.4,0.3C73.6,15.7,79.1,17.1,81.1,17.5z M68.8,11.5c-0.2,0.4-0.3,1.3,0,1.5c-0.1,0.3-0.3,0.2-0.3,0
		c-0.3-0.1-0.3,0.1-0.3,0.3c-0.3-0.1-0.2-0.3,0-0.3C68,12.3,67.8,11.6,68.8,11.5z M62.9,8.5c1,1.2-1.8,1-2.1,0
		C61.5,8.8,62.3,9.4,62.9,8.5z M57.7,14.5c-1.6,2.2-4.8-0.9-6,1.8c-1.2-0.3,1-1.1,0-1.2C53.8,14.8,55.8,14.2,57.7,14.5z M55.6,12.7
		c0.1,1.3-1.7,0.7-1.8,1.8c-0.9-0.3-0.4-0.5,0-0.9c-0.6-0.9-1.9,0.1-2.7,0c0.3-1-0.9-0.5-1.2-0.3C50.8,12.2,54.1,13.4,55.6,12.7z
		 M47.8,10.9c-0.4,0.7-2.1,0.1-3,0.3C45.5,10.6,46.7,10.5,47.8,10.9z M47.5,15.1c-0.1,0.4-2.5,0.7-2.1-0.3
		C46.1,14.8,47.1,14.7,47.5,15.1z M43.6,16.6c5.9,1.2,9.4,0.5,13.8,0.6c-4.1,1.5-8.2,0.7-14.1,0.6C43.2,17.2,43.6,17.2,43.6,16.6z
		 M40.9,30.4c1.4-2.9,0.7-7.2,2.1-11.1h13.8c-0.3,4.5-2.2,9.4-1.5,12.1c-0.6,0.9-1.6,3.1-1.5,4.5c0,0.3,0,0.4,0,0.5
		c0.2-0.1,0.1,0.5,0,0c-0.1,0-0.2,0.2-0.3,0.4c-0.4,0.7-0.3,3.6-0.9,5.7c-1.2,4.6-3.9,10.9-8.6,10.7c-7.5-0.3-3.3-18.8-2.5-22.2
		C41.6,30.5,41.2,30.4,40.9,30.4z M54.7,57.5c-0.8-0.4,0.1-1.6,0.9-1.5C55.7,56.9,54.8,56.8,54.7,57.5z M43.6,64.1
		c-0.6-0.8,0-1.2,0-2.1C44.6,62.2,43.7,63.5,43.6,64.1z M42.3,85.4c-0.9-0.9-0.3-3.7,0-6C43.6,81,41.7,83.5,42.3,85.4z M42.7,79.1
		c-0.9-0.8,0.3-2-0.3-2.7C43.8,76.8,42.9,78.1,42.7,79.1z M37.3,10.9c-0.3-0.1-0.5,0.1-0.6,0.3c-0.4-0.5,0.1-1.1-0.3-2.1
		C36.5,8.7,37.2,10.3,37.3,10.9z M36.1,14.2c-0.8-0.9,0.7-1.4,0-2.4c1.5,0.2-0.3,1.7,0.6,2.1c-0.1,0.5-0.5,0.7-1.2,0.6
		C35.5,14.2,35.9,14.3,36.1,14.2z M26.7,6.4c0.8-0.3,1.6,1.4,1.5,0C28.5,6.5,28.4,7,28.8,7c0,0.8-1.8,0.3-0.3,0.9
		c-1.3,0.3-2.7-1-4.2-0.3C24.8,5.9,26.1,8.1,26.7,6.4z M23.1,13.6c1.2-0.3,1.4-0.2,2.1,0.6c0.1-0.6,0.3-0.8,0.9-0.9
		c0.2,1.8,1.8-1.4,2.4-0.9c0-0.8-0.4-0.9-0.6-1.5c-0.3,0.3-0.8,0.4-1.5,0.3c0.6-1.3,0.2-1.6,1.2-2.4C28,9.1,29,9.1,28.8,10
		c0.8-0.3,1.4-0.5,1.8-0.6c0.8,0.1-0.4,0.5,0,1.2c2.2-0.3,2.8-4.3-0.6-3.3c0.1,0.4,0.8,0.3,1.2,0.3c-0.3,0.4-0.8,0.6-1.5,0.6
		c0.2-0.9-0.9-0.7-0.6-1.8c1-0.2,2.7,0.4,3.6,0.3c0.2,0.7,0.1,2.2,1.2,2.7c-0.1,0-1.5,0.6-1.2-0.3c-0.7,0.1-0.2,1.3,0.3,1.2
		c-0.3,0.8-1.2-0.7-0.9,0.9c-0.4-0.6-1.3,0.5-1.5-0.6c-0.6-0.1-1.6,1.6-1.5,0.3c-0.3,0.1-0.3,0.3-0.6,0.3c0.5,0.4,0.9,0.9,1.5,1.2
		c-1,0.6-1.4,2.1-1.8,3.3c-0.7,0.1-0.3-0.9-0.9-0.9c0,0.3,0.6,2.2,0,3.3c-4.1,0-6.6,0.1-10.2,0c-0.4-1.2,0.9-0.7,0.9-1.5
		c0.4,0.2,0.3,0.5-0.1,0.6c2,0,4.7-0.2,6.7,0.3c0-0.8-0.6-0.9,0-1.5c-0.9,0.3-0.8,0.2-1.5-0.3c0.2-0.7,1.5-0.2,0.6,0.3
		c0.3-0.1,0.3-0.3,0.6-0.3c-0.1-0.6-0.8-0.6-0.9-1.2c-0.5,0.3-0.9,0.7-1.5,0.9c0.2,0.3,0.7,0.3,0.6,0.9c-0.6-0.1-0.6-0.8-1.2-0.9
		c0.2-0.3,0.9-0.4,0.3-0.6C22.5,14.2,23.3,14.7,23.1,13.6z M33.4,44.6c-0.4-1-0.4-2.6-0.6-3.9C33.8,41.4,33.4,43.5,33.4,44.6z
		 M31.8,53.6c-1.3-1,0.4-1.6-0.6-2.7c0.6,0.3,0.7,1.3,1.2,1.8C31.9,53.1,31.5,51.6,31.8,53.6z M31.8,48.2c0.3-0.5,0.5,1.6,0.6,2.4
		C31.6,50.5,32.3,49.2,31.8,48.2z M16.6,6.1C19,6,19,7.2,20.8,6.4c-0.2,0.9-0.2,0.6,0,1.5c0.4-0.3,0.6-0.8,0.9-1.2
		c0.2,0.4-0.7,2.3-1.2,3c1.2,0.5,0.9,0.7,2.1,1.2c-0.3,1-1.1-0.1-1.8,1.2c0.2,0.7,1.5,0.1,2.1,0.3c-0.4,0.6-3.2,0.8-4.2,0.6
		c-0.2,0.9-0.2,0.6,0,1.5c0.4-1.5,0.7,0.2,0.9-0.9c0.7,0.3,1.4,0.6,1.5,1.5c-0.8,1.1-3-0.3-3.6,1.8c-0.4-3.4,2.2-7.3,1.8-9.3
		c-1.3,2.3-3.7,4.7-3.6,7.5c-0.9-0.3-0.8,0.4-1.5,0.3c0.2,1.3,0.1,1.8-1.2,2.4C14,13.7,15.5,10.1,16.6,6.1z M18.4,93.3
		c-0.5-0.1-0.7-0.5-0.6-1.2C17,92,16.9,92.5,16.6,93c1-0.8,0.4,0.6-0.6,0.3c0.3-1.4-0.3-1.2-1.2-0.9c-0.2-0.9,1.5-0.1,1.2-1.2
		c1.3,0.3,1.8,0.6,2.7,0.6C18.9,92.6,18.2,92.5,18.4,93.3z M14.4,92.7c-0.9,0.3-0.7-1.2-1.5,0c0.2-1.4,0.2-1.8,0-3
		c1.9-0.1-0.6,2.3,1.5,2.1C14.5,92.3,13.9,92.5,14.4,92.7z M12,45.2c1,1.8,0.4,5.3,0.6,9.3C11.7,51.5,12.3,49.9,12,45.2z M12.3,62
		c1-1.2,0.6,3.4,0,5.1C12.1,64.9,12.9,62,12.3,62z M13.2,80.6c0.3,0.1,0.2,0.6,0.6,0.6C13.4,83.9,13.2,83.7,13.2,80.6z M12,19.7
		c1-0.3,1.3,0.3,1.8,0.6c-0.1,0.3-0.6,0.3-0.6,0c-0.5-0.1,0.6,1.8-0.6,0.9C12.8,23.7,10.8,22.8,12,19.7z M6.1,9.4
		c1.6,0,2.2,2.1,1.8,3c-1-0.1-0.1-2.2-1.8-1.5C6.1,11,6.1,9.4,6.1,9.4z M4.2,26.2c1.5,0.4,0,4.6,0.3,0.9C4.3,26.9,4.2,26.6,4.2,26.2
		z M4.2,17.2c0.9,2,0.4,5.9,0.3,8.1C4.1,22.7,3.7,19.2,4.2,17.2z M6.1,89.7c-0.6-0.3-0.3-2.3,0-2.7C7,87,6.2,88.9,6.1,89.7z
		 M7.5,41.8c-0.4-0.4-0.9-1.6-0.3-2.1C7.9,39.9,7.3,41.2,7.5,41.8z M8.4,79.8c0.9-3.9-0.3-8.3,0.3-10.8C9.8,71.8,9.5,76.9,8.4,79.8z
		 M9.9,28.4c-1.5,3-2.8,6.1-2.4,11.1c-1.2-1,0-1.6-0.6-3C6.4,36.9,6.6,38,6,38.3c0.1,0,0.2,0,0.3-0.1c-1.4,4.6-2.1,9.4-3.9,14.1
		c0-8.5,4.2-12.4,4.5-21.9c0.6,0.1,0.1,1.3,0.6,1.5c1.5-3.5,2.2-6.1,3.6-9.6c1.6,2.4-2.1,4.5-0.6,7.2C10.1,29.3,9.9,28.9,9.9,28.4z
		 M10.8,53.3c-0.2-1.4,0.4-1.8,0-2.7C11.8,50.4,11.8,53.5,10.8,53.3z M11.4,38.5c1.3,0.9,0.8,2.7,0.6,3.6
		C11.3,41.5,12.1,39.3,11.4,38.5z M12,42.4c0.4,0.5,0.8,1.6,0.3,2.1C11.7,43.9,11.7,43.4,12,42.4z M12.3,72.9c0.3-1.2-1-0.3,0-1.2
		C13,71,12.4,76,12.3,72.9z M14.4,101c-0.3-0.2-0.5-0.3-0.6,0c-0.4-0.2-0.6-0.6-0.6-1.2c0.3-0.3,0.8-0.4,1.5-0.3
		C14.8,100.3,14.2,100.2,14.4,101z M19.8,93.5c0.9,1.3-1.2,3.3,0.3,4.2c-0.1,0.4-0.9,0.1-0.9,0.6c-0.5-0.2,0-0.5,0-0.9
		c-0.1-0.4-0.8-0.3-1.2-0.3c1.1,0.5-0.6,1.2,0.6,2.1c-0.3,0.3-1.2,0.3-2.1,0c0.3-0.4,0.5-0.9,0.9-1.2c0.1-0.5-1.8,0.6-0.9-0.6
		c-1.7,0.2-2.2,0.1-3,0.3c-0.3-0.1-0.2-0.6-0.6-0.6c0.9-0.3,0.9-1.2,1.2-2.7h0.6c0.4,0.4,0.4,1.2-0.6,0.9c0.2,0.6,2,0.3,1.8-0.3
		c0.6,0.9,0.4,0.9,1.2,1.8c0.3-0.1,0.3-0.3,0.6-0.3c0-0.8-1.3-0.3-0.9-1.5c0.3,0.3,0.7,0.3,1.2,0.3c-0.5-0.8,0.3-1-0.3-1.5
		c1,0.1,1.3,0.1,2.7-0.6C20.5,93.5,20.1,93.5,19.8,93.5z M20.7,92.7c-0.9-0.2-1.2,0.7-1.8,0c0.7-1.4,0.5-1.4,0.3-3.3
		c1.3-0.1,1.6,1.6,0.6,2.1c0.3,0.8,1-0.9,1.5,0C20.8,92.1,20.2,91.6,20.7,92.7z M21.9,99.8c-0.3,0.1-0.3-0.1-0.3-0.3V99
		c0.3,0,0.5-0.1,0.6-0.3c0.3,0.1,0.2,0.3,0,0.3c0.2,0.3,0.5,0.4,0.9,0.6C23,100.6,22,98.8,21.9,99.8z M26.5,98.6
		c-0.8-0.6-2.3-0.4-3.3-0.9c0.2-0.3,0.3-0.5,0.3-0.9c0.7,0,0.9,0.5,1.8,0.3c0.6-0.1,0.3-1.1,0.9-1.2c-0.1-0.5-0.5-0.7-1.2-0.6
		c0.3-0.9,1.6,0.3,1.2-1.8C26.2,93.4,27.2,97,26.5,98.6z M26.7,91.5c-0.4-0.2-0.6-0.6-0.6-1.2c1.1,0.3,0.2-1.5,1.5-0.9
		C27,89.7,27,90.7,26.7,91.5z M28,100.8c-0.3-0.2-0.6-0.4-0.6-0.9c0.3,0,0.3,0.3,0.3,0.6c0.5-0.5,1.2-0.8,2.4-0.6
		C29.6,101,28.6,99.7,28,100.8z M31.8,92.7c-0.8,0.2-0.6-0.6-1.2-0.6c-0.3,0.2-0.5,0.3-0.6,0.6c0.1,0.4,0.8,0.3,1.2,0.3
		c-0.1,0.4-0.5,0.4-0.6,0.9c-0.4-0.9-1.3-0.5-1.8,0c-0.2,0.1,0.6-0.6-0.9-0.9c-0.6-0.2,0.3-0.4,0.3,0c0.7-1.8,0.7-1.6,1.5-2.4
		c1,0.7,1.3,0.3,2.7,0.6C32.7,92.1,32.2,92.3,31.8,92.7z M16.6,86.3c-0.6-22.1,0.1-45.6,0.6-67h9.9c-0.9,8.8-2.7,19.3-1.8,27.3
		c0.4,4.1,2.5,10.9,3,12.1c1.7,2.5,3.7,6.6,7.5,8.1c-0.3,5.3-1.3,12.2-2.7,19.8C29.1,87.3,23.6,86.4,16.6,86.3z M35.2,86
		c0.8-3.2,0.7-7.3,1.5-11.1C36.6,79.1,36.7,82.9,35.2,86z M35.8,28.6c-0.2-1.1,0.3-3.6-1.2-4.2c0.3,0,0.3-0.3,0.3-0.6
		c0.3,0,0.3,0.3,0.3,0.6c0.7-2.4,0.4-2.9,0.9-5.1c0.5-0.1,0.5,0.3,0.9,0.3C36.7,22.8,36.2,25.7,35.8,28.6z M39.4,74.7
		c-0.1,3.4-0.3,8.8-2.1,12.1C38.6,81.3,37.9,80.5,39.4,74.7z M37.6,91.5c1.3,0.3,1.4,0.1,2.4,0.3C39.9,92.7,37.3,92.8,37.6,91.5z
		 M40.3,97.2c1.5-0.7,3.1-0.3,4.5-0.3C45.5,97.9,41,97.5,40.3,97.2z M51.7,102c1.7-1.2,6.3-0.4,8.1-0.6
		C57.3,101.8,54.5,101.9,51.7,102z M55,92.9c0.2-0.4,0.4,0.1,0.9,0c-0.7,1.1-1.8,0.8-3.3,1.5c-0.3-1.3,1.2-0.9,1.5-1.8
		c0.4,0.2,0.3,0.9,1.2,0.6C55.4,93,55.2,92.9,55,92.9z M47.8,87.3c0-0.4,0.2-1.1-0.3-1.2c-0.8-0.1,0.8,1.2-0.6,0.9
		c0.5-0.6,0-0.4,0-1.2c0.8,0.2,1.1-0.1,0.9-0.9c-0.2,0-0.3,0.4-0.3,0.6c-1-3.4,2.1-14.5,2.4-18c8,0,11.7-8.2,12.3-8.7
		c0-0.3-0.3-0.3-0.6-0.3c0.2-0.4,0.9-0.3,0.6-1.2c0.9,0.3-0.4,1.1,0.3,1.5c0.9-0.9,0.3-3,1.8-1.8c0.3-0.8-1-1.3-1.2-0.6
		c-0.8-0.9,0.8-1,1.2-0.6c0.9-0.8,0.8-0.5,0.3-1.5h1.2c-1-0.8-0.5-1.4-1.2-2.4c1.1,0.1,0.1-0.3,0.3-0.9c0.7,0.1,0.6,1,1.5,0.9
		c0.6-2.4,1.4-3.3,0.9-6c0.5-0.1,0.5,0.3,0.9,0.3c-0.1-1.2,0.6-1.8-0.3-2.4c0.7,0.2,1.3-1.2,0.6-2.4c0.8,0.3,1.2-1.8,0.6-3
		c1,0.5,0.1-1.7,1.2-2.4c-0.3,0.2-0.5,0.3-0.6,0.6c-0.2,0.1,0.2-1.8,0.9-1.8c-1.5-0.4,0-1.5,0.3-3.3c-0.2-0.4-0.6-0.6-1.2-0.6
		c0.6-0.8,0.4-0.6,0.3-1.8c0.4,0.3,0.4,0.9,0.6,1.5c0.5-0.7,0.2-1.7-0.3-2.7c0.3,0,0.3,0.3,0.3,0.6c0.7,0.3,0.2-2.1,0-0.9
		c0.2-1,1.6-5.4,1.5-7.8c3-0.8,5.2-0.4,9.1,0c-1.8,15.3-2.8,34.5-5.7,48.1c0.5,0.9,0.3,1.2,0.6,1.8c-0.9,0.3-1.3,3.2-0.6,4.2
		c-1.9,3.5-1.1,9.1-2.1,13.5C66.1,87.3,55.5,87.3,47.8,87.3z M64.6,96c-0.8-1.1,3,0.2,2.7-0.9c0.4-0.9,0.6,0.9,1.5,0.6
		C68.1,96.8,65.4,95.4,64.6,96z M73,93.9c-0.4,1-2.2,0.3-3.6,0C69.8,93.5,71.7,94.1,73,93.9z M71.8,95.4c0,0.3,0.1,0.5,0.3,0.6
		C70.5,96.6,68.8,95.4,71.8,95.4z M72.4,96.3c0.8-1.3,3.5-1,4.5,0C75.5,95.6,74,96.2,72.4,96.3z M77.9,96c0.1-0.5,2.2-1.2,2.1,0
		H77.9z M79.7,94.1h-4.5c0.3-1,2.4-1,3-0.3C78.6,93.5,82.4,94.1,79.7,94.1z M81.1,47H82c0.4,2.8-1.2,7.8-1.2,11.1
		C79.9,54.8,81.7,51.6,81.1,47z M81.7,69.8c0.1-0.7,0.4-1.1,0.3-2.1C83,67.4,82.5,69.9,81.7,69.8z M82.4,74.1c0.3-3,0.4-4.4,0.9-6.9
		C83.4,68.6,83.5,72.8,82.4,74.1z M83.6,86.6c0.6-0.6,0.9,0,1.5,0.3C85.1,87.4,83.1,87.5,83.6,86.6z M85.4,71.3
		c-0.4-1,0.3-3.3,0.3-4.2C86.5,68.2,85.6,70.3,85.4,71.3z M86.2,61.7c0.5-0.1,0.5,0.3,0.9,0.3c-0.2,0.4-0.4,0.8-0.6,1.2
		C85.9,63.3,86.4,62.2,86.2,61.7z M88,90.9c1.8-0.7,3.3,0.3,6,0C92.5,91.7,88,91.6,88,90.9z M95.9,96.6c0.2-0.4,2.7-0.8,2.4,0.3
		C97.4,96.4,97.2,97.1,95.9,96.6z M87.2,87.5c0.2-15,10.2-21.9,16.6-31.6c-0.2,9.2-2.9,21.3-3.9,31.2C94.8,87.3,90.7,87.1,87.2,87.5
		z M103.1,76.7c-0.4-2.2,0.4-5.3,0.6-8.7C104.5,70.7,103.3,74,103.1,76.7z M102.5,96.9c-1.1-0.8,1.1-0.6,1.8-0.6
		C104,97.3,102.8,96.2,102.5,96.9z M102.8,95.4c0.2-0.3,0.4-0.8,0-0.9c0.4-0.9,0.8,0.8,1.5,0.6c1.1-0.8,5.1,0.3,6.9,0.6
		C110.4,96,105.5,95.2,102.8,95.4z M113.6,102c0.9-0.9,2.4,0.1,3.9-0.6C116.8,102.2,115,101.9,113.6,102z M110.9,97.5
		c0-0.4,0-0.9-0.3-0.9c2.2-0.3,3.6,0.9,7.2,0.6C115.8,98.4,114,97.2,110.9,97.5z M122.4,91.1c0.4-1.1,2.2-0.3,2.7-0.3
		C124.5,91.8,123.3,91.2,122.4,91.1z M128,102c0.5-1.2,7-0.3,8.7-0.6C135,102.8,129.5,102.3,128,102z M147.3,101.6
		c0.7-0.2,2.2,0.3,2.4-0.3c0.9,0.6,2.6-0.8,3,0.6C151.1,102,143.6,102.1,147.3,101.6z M140.6,100.4c-1.7,0-4.7,0.6-6.6,0
		c0.9,0.3,3.4-0.5,5.7-0.6c5.1-0.1,7.9,0.3,13.2,0.3C148.1,101,145,100.6,140.6,100.4z M158,94.1c0.4,0.4,1.4,0.4,1.2,1.5
		c-2,0.1-3.3-0.5-5.4-0.3c0.7-0.5,2.1-0.3,2.1-1.5c1.6,0.9,2.7-0.9,4.2,0C160,94.5,158.7,94,158,94.1z M157.4,90.9
		c0.2-0.8,3.2-0.3,4.2,0C160.9,91.4,158.3,91.3,157.4,90.9z M146.7,88.1c3.2-17.2,4.8-37.4,10.2-57.4c4.1,0,6.6,0.1,9.5-0.3
		c0.3-0.3,0.5-0.5,0.8-0.8c0.6-0.3,1-0.5,1.5-1.1c0.2-0.2,0.3-0.4,0.4-0.6c0.3-3,0.8-6.6,1.9-9.2h10.9c-0.9,2.2-0.9,5.1-1.5,7.5
		c-3.2,0.9-10.3-0.4-16.3,10.6c-3.4,6.3-7.2,17.3-6.6,26.6c0.3,3.4,0.9,13.5,10.5,19c-0.9,2.2-0.7,3.7-1.2,6
		C159.8,88.4,151.7,88.7,146.7,88.1z M181.5,32.9c0.1,2.8-2.3,3.1-4.2,3.9C178.2,34.9,179.9,33.9,181.5,32.9z M173.4,32.9
		c0.4-1.2,1.9-1.5,3.3-1.8C176.3,32.3,174.5,32.2,173.4,32.9z M175.5,41.6c-0.2,0.7-0.3,2.2-1.8,2.4
		C173.2,43.1,174.2,41.6,175.5,41.6z M169.5,82.8h1.2c-1.2,1.4,0.3,5.5-2.1,5.7C168.1,86.8,169.7,85,169.5,82.8z M169.8,74.3
		c0.2-1.3-0.1-1.8,0.6-3C171.7,71.8,170.7,74.1,169.8,74.3z M169.5,40.4c-0.3-0.9,0.4-3.1,1.8-3.3C170.3,37.8,170.2,39.4,169.5,40.4
		z M165.6,50.3c-0.1-1.3,0.1-2.3,0.6-3C167.1,47.2,166.4,50.2,165.6,50.3z M166.2,74.1c-1-0.6-0.1-1.1,0-2.1
		C166.8,72.1,166.5,73.8,166.2,74.1z M163.5,59c-0.4-2.2,0.1-4.1,0.6-6C164.6,54.5,163.5,57,163.5,59z M164.7,101.6
		c1.1-1.3,4.5-0.3,6.6-0.6C171.5,101.3,166.7,101.6,164.7,101.6z M171.3,88.5c-0.8-0.8,0.4-2,0-3.3C172.3,85,171.4,87.7,171.3,88.5z
		 M171.3,77.9c-0.4-1.3,0.9-3,0.9-4.8C172.6,74.8,172.5,76.8,171.3,77.9z M189.1,41c4.7,2.5,2.6,11.8,0.6,18
		c-1.8,5.8-10.5,13.5-14.4,7.5C170,61.5,175.5,36.7,189.1,41z M176.4,72.2h0.9c0.1,0.9-0.9,1.2-0.9,2.7
		C175.5,74.2,176.7,73.2,176.4,72.2z M178.5,73.7c0.9,1.6,0.2,3.6-0.3,5.4c-0.6-0.5-0.4,0-1.2,0C177.3,77.1,177.7,75.2,178.5,73.7z
		 M181.2,97.8c-2.5,0.7-4.8,1-6.9-0.3C176.5,97.7,178.7,97.9,181.2,97.8z M180.9,86.9c-0.8-1,0.2-2.2-0.3-3.3
		C182.1,84,180.7,86,180.9,86.9z M180,75.8c0.3-1.7-0.2-2.3,0.6-3.9C182,72.5,180.7,75.3,180,75.8z M174,83.6
		c1.4,0.1,0.9,4.9-0.6,5.1C173.2,86.6,173.8,85.4,174,83.6z M173.7,102.3c2.1-1.1,5.5-0.8,7.8-0.9c12.4,0.8,33-0.6,47.5,1.2
		C210.5,102.4,189,102.9,173.7,102.3z M229.6,52.4c-0.6,0.2-0.2-3.3-0.3-4.5C229.9,47.7,229.4,51.1,229.6,52.4z M232.6,9.1h2.7
		C235.2,9.7,232.6,10.3,232.6,9.1z M235,97.5c0.7-0.8,0.9-0.3,2.1-0.6C237.1,97.8,235.9,97.4,235,97.5z M236.5,56.3
		c-0.1-1.6,0.2-4.2,0-4.8C237.4,51.2,237.8,56.1,236.5,56.3z M238,17.5c8,0,10.4-0.3,19.2-0.3c-0.3,1.3-0.2,2.1,0.6,0.9
		c-4.8,14.7-11.4,30.1-18,43.9C238.4,46.1,238.3,32.9,238,17.5z M254.9,81c0.6,1.9-0.3,5.7-0.9,9C253.4,86.6,254.8,84.2,254.9,81z
		 M253.6,62c-0.6-0.4-0.1-2.2,0.9-2.1C254.4,60.8,253.8,61.2,253.6,62z M254.9,59.6c-0.3-0.2-0.5-0.3-0.9-0.3c0-0.3,0.3-0.3,0.6-0.3
		c-0.1-0.6-1.4,0-0.9-1.2c0.3,0.1,1.2,1.3,1.2,0C255.7,58.2,254.5,58.8,254.9,59.6z M248.2,58.1c1.3-5.4,3.5-12.4,5.7-18
		C252.7,46.2,251.2,52.1,248.2,58.1z M251.2,64.4c-0.1,0.3-0.3,1.2-0.6,2.1c-0.3-1.3,0.3-2.8,1.5-3.9c-0.2-0.6-0.9-0.5-0.6-1.5
		c0.3,0,0.3,0.3,0.3,0.6c0.8,0.1,0.3-1.2,1.2-0.9c-1,2.8-0.6,4.5-2.1,7.2C249.9,67,252.3,65.4,251.2,64.4z M247.4,56.3
		c-0.5,0-0.6,0.3-1.2,0.3c1.1-1.6,0.5-1.6,0.9-3.6C249.1,53,247.2,55.4,247.4,56.3z M244.6,62.6c0.2-0.7,0.7-1.6-0.3-1.8
		c1.2-1.4,1-2.7,2.4-4.2c0.4,0.1,0.3,0.8,0.3,1.2c-0.9,0-0.7,0.9-1.5,0.9C246,59.9,245.9,62.2,244.6,62.6z M244.9,79.1
		c-0.7,1.1-0.8,2.8-1.5,3.9C243.2,82.3,243.8,79.7,244.9,79.1z M247.6,51.5c0.6-0.3,1-0.8,1.2-1.5c0.6-0.7-0.3,1.2,0,2.1
		C247.9,52.4,248.6,51.1,247.6,51.5z M240.1,66c-0.9-1.2,0.9-2.2,0.6-3.9C242.1,62.7,240.3,64.2,240.1,66z M241.7,102
		c0.7-0.9,2.2-0.4,2.7-0.3C244,102.3,242.4,101.8,241.7,102z M243.4,89.7c3.4-9,6.6-16.6,10.2-24.9c0,8.4-3.2,18.4-3.9,25.3
		C247.7,89.8,244.9,90.3,243.4,89.7z M253.6,79.8c0,2.4-0.9,6.6-1.5,9.3C252,86.5,253,82.5,253.6,79.8z M246.8,94.5
		c0.8-0.9,1.3-0.2,2.7-0.3C250.2,94.8,247.4,94.3,246.8,94.5z M252.1,99.6c-0.2-0.3-0.7-0.3-0.6-0.9c1.6,0.2,2.4,0.3,4.2,0.9
		C254.9,101,243.2,99.4,252.1,99.6z M256.7,53.3c-0.3,0-0.3-0.5-0.3-0.9c-0.9,1.6-0.5,1.2-2.1,3.6c0.6-3.4,2.7-7.9,4.5-11.1
		c-0.5,2.7-0.8,5.4-2.7,6.9C256.2,52.4,257.5,52.4,256.7,53.3z M258.1,89.9c-1,0-0.3-2.9,0.9-2.7C258.9,88.4,258.6,89.2,258.1,89.9z
		 M258.7,69.8c-0.3-7,1.3-16.2,2.7-23.1C260.7,55.3,260.3,59.3,258.7,69.8z M262.7,91.1c2.2,0,3.6,0.8,5.7,0.9
		C267.2,92.3,263.1,92.7,262.7,91.1z M271.1,99.8c0.7-1.6,2.4-0.3,3.9-0.3C274.3,100.3,272.3,99.7,271.1,99.8z M272,95.1
		c0.7,0.6,3-0.6,3.9,0.9C275.5,95.3,272.4,96.4,272,95.1z M277.4,99c4.5,0,9.1-0.3,12.6,0.9C286.8,100.1,280.6,100,277.4,99z
		 M286.2,62c0.1-5,3.3-15.5,5.4-19.2c0.9-1.6,2.9-3.8,3.6-4.2c3.4-2.2,11.2-2.9,12.9,0.9c0.8,1.8,1.1,6.5,0.9,9.3
		c-0.2,2.4-1.4,5.4-2.1,8.4c-1.8,7.2-3.5,11.6-8.4,15C291.8,74.8,286.1,69.6,286.2,62z M295.7,97.2c-0.1-0.3,0.1-0.3,0.3-0.3
		c-0.1-0.3-0.5-0.3-0.9-0.3c-0.7-0.3,1.7-1,2.1-0.3C296.8,96.6,296.8,97.3,295.7,97.2z M301.8,101c1.2-0.6,2-0.9,3.6-0.6
		C304.7,101.2,303.1,101,301.8,101z M298.4,92.3c1.6-1.6,4.8-0.2,7.8-0.6C304.9,92.4,301.7,92.3,298.4,92.3z M322.8,97.5
		c0.3-0.6,1.9-0.2,1.8,0.6C323.5,98.4,323.7,97.3,322.8,97.5z M326.4,90.5c-8.4-0.4-11.2,0.1-21,0c0.4-0.9,2.4-0.2,3-0.9
		c-2.1-1.8-6.4,0.7-9.6,0.6c0.3-1.6,0.9-2.9,0.9-4.8c18.8-2.8,21.6-23.4,23.4-30.9c4.9-19.3-2.4-26.4-10.2-29.7
		c0.6-2.6,0.7-5.2,1.8-7.8c3.9,0.5,9.4,0.3,13.5,0C327.9,38.9,327.9,66.6,326.4,90.5z M317.6,50.6c0.3,3.4-1.5,7.6-2.4,10.8
		C315.3,58.2,315.9,52.6,317.6,50.6z M316.8,50.3c0.1-2.1,0.2-2.3,0.3-4.2C317.5,46.7,318.5,50.2,316.8,50.3z M319.4,43.1
		c-1.4,0.5-0.9-2.7-1.2-3C319.5,39.5,318.9,42.7,319.4,43.1z M319.4,36.1c1,0.5,0.9,2.2,1.2,3.3C320,38.6,318.7,37.3,319.4,36.1z
		 M323,39.7c1.2,0,1,4.4,0.6,6.6C323.1,44.9,323.6,41,323,39.7z M320,10c3.7-0.3,5.8,0.6,8.4,0.3C327.2,11.6,321.8,11.1,320,10z
		 M328.7,60.8c-0.4-4.2,0.1-10.7,0.3-14.7C329.7,50.7,329.4,56.3,328.7,60.8z M333.6,5.5c-1,0-1.5-0.5-2.7-0.3
		C329.9,4.9,334,4.3,333.6,5.5z M331.2,20.3c1.2,0.4-0.2,2.2,0.6,2.7C330.8,24,331.3,21,331.2,20.3z M332.7,52.1
		c0.1-3.8,0.3-4.4,0.6-8.1C333.6,44.8,334.3,51.1,332.7,52.1z M333.3,97.8c0.3,0.6,0.8,1,0.9,1.8C332.9,100,333.4,98.5,333.3,97.8z
		 M332.7,36.5c0.7-0.9-0.3-1.9,0-3.3c1,0.2,1-0.6,1.5-0.9C334.6,32.3,334.5,35.7,332.7,36.5z M335.1,69.5c-0.7-0.6,0.4-2,0-3.3
		C336.1,66.1,335.1,68.7,335.1,69.5z M336.3,61.1c-0.9-1.2,0.3-2.9,0-4.5C337.3,56.8,336.4,60,336.3,61.1z M338.4,29.8
		c-0.6-1.4,0-4.2,0.3-6.9C339.5,25,338.7,27.9,338.4,29.8z M340.2,68.9c-0.3,0.1-0.3,0.5-0.3,0.9c-0.5-0.8-0.5-2.3-0.3-3
		c1.4,0.2-0.5,1.9,0.9,2.1C340.5,69.2,340.2,69.1,340.2,68.9z M341.4,11.8c0.6-0.8,0.2,2,0.3,2.7C341.2,15.3,341.5,12.5,341.4,11.8z
		 M342,58.7c-1.2-5.4-0.2-15.1,0-23.1C342.8,42.3,341.7,50.2,342,58.7z"/>
	<path class="st0" d="M26.5,16.9c0.6-0.9,0.2-2.2,0.3-1.5c-0.1,0.4-0.7,0.2-0.9,0C25.8,16.1,25.8,16.9,26.5,16.9z"/>
	<path class="st0" d="M266,45.4c-0.3,0.9-0.3,1.3-0.6,2.4C266.5,47.6,266.8,46,266,45.4z"/>
</g>
</svg>
