<svg version="1.1" id="Layer_1" xmlns="http://www.w3.org/2000/svg" x="0" y="0" viewBox="0 0 400 400" xml:space="preserve"><style>.st0{fill-rule:evenodd;clip-rule:evenodd;fill:#333}</style><path class="st0" d="M32.1 156.7c-.1.2-.9 1.3 0 1.4.1-.6.5.1 1 0 .1-.9-.1-1.5-1-1.4z"/><path class="st0" d="M399.5 155.7c.2-1.9 1.1-4.1 0-5.6-.6-2-2.7-.9-4.2-1-6-.4-12-.5-17.8-.3-13.2.3-24.5.2-37.3 0-37-.5-76.9 2.1-119.6 2.1-39.7 0-78.3 1.4-113.3.7-27.8-.5-52.1-.3-88.5-.3-5.7 0-11.5-1-16.7 1-1 33.8-.5 78.9-2.1 112.6 5.3 1 11.8.4 18.1.3 6 0 17.4-.3 19.5 0 6.7 1 15.9.7 22.3.7 30.9.1 74-.2 108.1-.3 74.7-.3 157.1 1.2 229.4.7-.7-22.8 1-46.4 1-69.4 0-8-.2-17.1 1.4-23-.8-6.5-.7-14.4-.3-18.2zm-4.9 54.3c.6 2.7-.1 6.7-.3 10.1.2 1-.3 3.2-.3 1-.1-3.7-.4-7.3.6-11.1zm-24.1-46c.4.7-3.5.2-4.9.3.4-.7 3.2-.4 4.9-.3zm-6.6 22.7c-1-1.1-1.5-2.7-3.1-3.1 1.4-2.2 4.2 2.8 3.1 3.1zm-2.8-29.6c1.6.6-3.3.2-4.5.3-.3-.1-.3.1-.3.3-.9-1.3 3.5-.4 4.8-.6zm-2.4 38.3c.8.4 1.3 4.3 0 4.5.4-1-.2-2.6 0-4.5zm0-25.4c-1-1-.4-1.2-.3-2.8.4.1.6-.1.7-.3.7-.6-.7 1.9-.4 3.1zm-2.5 7.3h-1c-.2-.7.2-.9.3-1.4 1.1-.4.7.8.7 1.4zm-.3 5.6c-.4 1.4-2 0-3.1 0 .5-.9 2.4-.2 3.1 0zm0-8.4c-.2-2.7.7-5.1 1-8.4.7 1.3.4 6.4-1 8.4zm2.8-20.2c-1.5.7-4.5-.1-6.3-.3 1.1-.3 3.8-.4 6.3.3zm-21.3 31c1.4-1.7 3.1-3.2 5.9-3.5-1 2.1-3.1 3.1-5.9 3.5zm2.8 2.8c-.6.9-.6 2.4-2.1 2.4.5-1 .7-2.3 2.1-2.4zm4.2-1.4c-.2.9-.9 1.4-2.1 1.4.4-.8 1.1-1.3 2.1-1.4zm-15.7-7.3c-10.3 7.2-15 26-13.2 43.3 1.4 13.8 11.8 19.5 14.6 21.1-.1 2.5-.7 4.5-1 6.6-8.7.2-16.8-.3-23.4-.7.2-8.9 11.9-74.4 12.5-84 10.2-.4 19.5-.2 29.3 0-.6 2.1-1.2 4.2-1.7 6.3-6.9 1-12.1 3.9-17.1 7.4zm4.2 71.1h-1.4c-.5-1.6 1.3-2.9 1.4-4.9 1.5.5-.5 3.1 0 4.9zm-4.2-53c.8 1.2-.6 3.1-1 4.2-.6-1.3.8-2.1 1-4.2zm-1.4.7c.3-1.1.7-3.5 1.4-5.2.4-.1-.2 4.6-1.4 5.2zm-4.5 14.3c.1-1.4.6-2.4.7-3.8.7.8.4 3.6-.7 3.8zm-2.5-.7c-1-2.3.5-5.1 1-7 .7.6-.3 5.4-1 7zm-3.4-47.4c8-1.8 22.2-.9 31 0h-31zm32 21.2c-.7 1-3.1.4-3.8 1.4-.7-1 2.4-1.3 3.8-1.4zm-2.1-31.3c-.7.8-2.9.1-4.2.3.8-.8 3-.1 4.2-.3zm1.1 6.2c-2.6.7-7.6.9-9.1 0 4 .2 5.9-.7 9.1 0zm-11.5-5.9c-1.2 2.4-5.7.1-7 1 .6-1.4 4.4-.6 7-1zm2.1 5.9c-7.3.7-13.1-.3-20.6 0 7.1-1.8 12.8-.7 20.6 0zm-13.6-7.6c-1.7-.3-6.7-.2-10.1-.7 3.3-.7 8.6-1.9 10.1.7zm-15.4 26.8c.9.7-.4 2.1-.3 3.1-1-.8.4-2.1.3-3.1zm-1-11.1c1.1 2.5-1.2 4.6-1.4 7-.8-2.3.8-5.1 1.4-7zm-.7 20.2c-.9-1.4.3-3.6.7-4.9.8 1.3-.7 3.2-.7 4.9zm-1.4-6.6c1.2-.3.5 2.3-.3 2.1-.3-1.1.5-1.1.3-2.1zm-.8 22.5c1.7-10.2 3.9-18.4 6.4-27.8-.7 7.1-1.9 14.5-3.1 17.8.3 1 .5-.8 1.4-.3-.3.8-.6 3-.7 3.5 0 1.7.5 4.6-1.4 6.2 0-.9-.1-2 .3-2.4-1.3.8-1.1 2-1.4 3.1-.8-.1-1.3-.3-1.5-.1-.1.4-.1.7-.2 1.1-.1-.6 0-.9.2-1.1zm-7.9-49.7c.9 0 1.7 0 2.1.3 0 .5-2.6.8-2.1-.3zm4.5 17.4c.2 3.2-2.4 6.6-3.1 10.1-.3-3.3 1.9-7.1 3.1-10.1zm-5.6-17.4c-.8.5-2 .6-3.1.7.6-.7 1.8-.8 3.1-.7zm3.2 4.8c-2.3 0-6.9.2-8.7 0 1.6-.6 6.9-1.8 8.7 0zm-10.5 1.8h5.2c-.5 1.5-3.6.3-5.2.7v-.7zm-3.5 0c-1.6 1.3-8.8.7-9.8.3 2.7-.7 5.7.5 9.8-.3zm13.3 2.8c-10.6.8-14.8.3-23 .7 5.6-1.9 15.3-.8 23-.7zm-34.9 24.7c.9.9-.6 2.7.3 3.8-1.4-.1-.4-3-.3-3.8zm-.3 73.6c-1.9 1.1-6.1.1-8.7.4 1.8-.9 5.7-1.1 8.7-.4zm-.4-12.9c-2.6.1-5.3-.3-8.7-.3 1.5-16.1 5.9-30.8 7-45.3.8 15.5.7 28.3 1.7 45.6zm-8-31.4c.9 1.5-.7 3.5-.7 5.2-.8-1.8.4-3 .7-5.2zm5.6-51.6c.5 1.8-.6 5.9-.7 9.1-.7-2.1-.1-5.7.7-9.1zm-2.5-10.1c1.4-.8.2.7 2.4 0 .8-.6-1 1.3-2.4.7.3-.3.5-.6 0-.7zm-3.1 74.3c.9-3.8 1.4-7.6 2.1-10.8.7 2.2-.6 8.4-2.1 10.8zm1.4-48.5c1 1.6-.4 3.8-.3 5.6-.8-1.3.4-3.1.3-5.6zm-.7 29.3c-2-.8-.3-2.1-.3-3.8 1 1-.3 3 .3 3.8zm-2.1-3.5c-.4-2.6.6-6.9 1-9.8.7 2.9-.6 6.8-1 9.8zm-1.7 27.9c-.7-3.3.9-7.2 1.4-10.5 1.3 2.6-1.2 7.2-1.4 10.5zm1.7-49.5c-.9-.8-.4-2 0-3.1.7.3-.4 1.8 0 3.1zm-2.8 2.4c-.1-4.6 1.9-10.2 2.4-15.3.7 5.2-1.8 10.2-2.4 15.3zm-2.1 17.1c-1-.6-1.4 2.8-.3 2.8-2 0-.5 6.1-2.4 7.3 1.3-8.5 2.6-17.9 4.5-26.8.4 5.2-3 12.6-1.8 16.7zm-1.4 26.9c1.4.6-.6 3.5-.3 5.2-1.2-1.3.2-3.2.3-5.2zm1.1-.4c.4-.2 1.2-.2 1-1.7 1.3 3.5-1.4 8.8-1.7 12.9-1.1-3 2.1-7.7.7-11.2zm0-2.1c-.1-7.7 1.8-14.4 2.4-19.9.9 5.3-1.9 13-2.4 19.9zm4.9-63.8c-4.5 21.1-12.3 76.9-16 82.6-6.8-.6-17.3-.1-25.4-.7.6-2.4.9-3.5 1.4-6.3 3.5-2.1 8-3.3 11.5-6.3 11-9.4 14.4-29.5 15.3-43.6.4-6.1-5.3-16.9-13.6-16 .7-3.2 1.4-6.3 2.1-9.4 7.5-.4 15.2-.3 24.7-.3zm-9.5 95.5c-3.1.9-12.9.7-19.5.3 4.4-1.3 14.6-.5 19.5-.3zm-32.7-10.8c6.1-.1 9.7.1 14.3.3-2.5.4-11.3 1.1-14.3-.3zm16.4 5.3c1.3-.5 3.6-.4 5.6 0-2.2 1.1-4 .6-5.6 0zm11.5 2.4c1.3-.8 4.2-.5 7 0-2 1-4.8-.2-7 0zm-4.6-4.2c2.9.7 6.2.2 7.3 1-1.8 1.9-5.9 0-7.3-1zm9.1-24.4c.9-4.5 1.2-8.6 2.1-11.1.2 3.5-.8 8.7-2.1 11.1zm-27.9 1.4c.3.6.9.9 1 1.7-.2.6-1.7 0-1.7.7-.5-.2.3-2 .7-2.4zm7.3-57.5c-2.3-1 1-4.3 1-6.3.7 1-1.8 4.6-1 6.3zm.4 9.4c-.1 1.7.4 7.1-1.7 8 .2-3 .8-5.6 1.7-8zm0 32.1c.1-.5.9-.3 1.4-.3-.6 1.4-.6 1.4-1 3.1-1.8-.3 1-2-.4-2.8zm5.6-14.3c1-.5.7 2.7-.7 2.1-.4-1.3.8-1 .7-2.1zm2.1 8.7c.8 1.9-.4 4.4-1 6.6-1.5-1.7-.3-4.9 1-6.6zm-4.9-4.9c-.4-4.3 1.2-8.3 2.4-12.5-.6 3.6-.8 9.4-2.4 12.5zm0 19.9c-.7-1 1.2-2.2 1.4-3.5 1.7.7-1.2 2.4-1.4 3.5zm0-34.2c.2-2.2 0-2.6.7-4.2.6 1.1 2.1 4.6-.7 4.2zm-1.4-32.8c1.2-1.4 1.7.5 3.1-.3-.2 1.7-1.9-.2-3.1.3zm14.3 5.3c.5 1.4-3.3 1-4.2.7.6-1 3.6.3 4.2-.7zm-5.6-3.9c-1.4 1.3-3.4 1-5.2.4 1-.8 3.6-.1 5.2-.4zm-8-7.3h4.5c-1.2 1-5.2.1-8.4.3-2.2-.4 2.7-.3 3.9-.3zm-3.5 5.9c-.2 0-2.6.4-1.7.7-.3.9-1.4-.5-1.4-1-2.5 1.3-2.3-.2-4.5.7-.4-1.1 1.1-.3.7-1.4 1.5 0 3.1-.1 3.8.7 1.9-.4 8.2-.2 3.1.3zm-3.8 24.8c.5 1.6.6 3.7-.7 4.5-.1-1.7-.2-3.6.7-4.5zm-2.1-8.4c-1.4-1.7 1-5.2 1-7.7 1.4 1.3.1 6-1 7.7zm-4.2-19.1c1.4-.2 4.2-.2 5.9.3-1.7 1.1-3.8.5-5.2.3-.9 0-4.2-.1-.7-.6zm-4.2 2.1c2.9-.8 4-.5 7-.3-.1.7-1.4.3-1 1.4-.9 0-1.8.1-1-.7-3.6 1.3-7.7.5-12.5 0 1.7-1.2 5.2.2 6.6-1.4.1.6-.3.6-.3 1 .6.2 1-1.8 1.2 0zm6.3 11.5c.7.8-.3 2.6-.3 3.8-.8-.8.1-2.9.3-3.8zm-2.5-10.2c.8 0 1 .6 2.1.3-.6.8-1.9 1.2-2.1-.3zm-9.4 6.7c.3-.2.6-.3.7-.7 1.7-.3 2.5.3 3.5.7-.4.8-7 .3-4.2 0zm-2.4-1.1c1.1-.1 1.5.6 2.8.3-.2.6-3.2.9-2.8-.3zm5.6-4.2c-.9-.7-3.1-.2-4.5-.3-.8-.7 2.6-.2 3.5-.4.4.1.6-.1.7-.3.8.1 1.3.5 2.4.3 0 1-2.2-.2-2.1.7zm-2.8-6.9c-1.2 1.4-3 1.9-4.9.3 1.1-.9 3.7-.2 4.9-.3zm-16.8-1.1h3.5c-3.3.9-10.3.1-3.5 0zm0 12.2c1.3-.3.7 2.3-.3 1.7-.3-.9.5-.8.3-1.7zm-1 8.7c-1.3-.3-.3-2.4.3-2.8.8.5-.4 1.9-.3 2.8zm-2.1-17.7h-3.1c-.1-.9 3.3-1.3 3.1 0zm-2.4 21.6c-.6-.2-.6-2.6 0-2.8 1.6.2-.5 1.6 0 2.8zm-2.1-12.2h1v1.7h-1.4c-.1-.8.1-1.3.4-1.7zm-3.5-8c.5.2.9.5 1.4.7.2.9-1.7-.2-1.4.7-.9-.1-.1-1.2 0-1.4zm-.7 34.5c.9.5.1 2.1 0 2.8-1.1-.7.4-1.7 0-2.8zm1.4 1.4c.7 1.7-.1 7.8-1.4 9.8.5-3.3 1.3-6.2 1.4-9.8zm-2.5-39.8c-3.7 1.2-10.7.8-15.7 1 4.5-1.5 11.3-.2 15.7-1zm-1.7 44.7c-.9 1.2 0 4.1-1.4 4.9.7-1.4 0-4.3 1.4-4.9zm-8.4 24.4c-.2-2 .6-3.1.7-4.9.3 1.2 1.3 2.9.7 4.5-.5-.1-.3-.9-.3-1.4-1-.1.4 2.3-1.1 1.8zm-1.4-8.4c.7 5.5-1.8 10.8-2.4 16 .4-4.9 1.2-11.7 2.4-16zm-1.4-9.8c.9.9 0 2.8 0 3.8-.9-.8 0-2.7 0-3.8zm2.5-30.3c.4 1.5-.2 4.9-1.4 5.9-.1-2.5.7-4.1 1.4-5.9zm-1.4-8.7c.6-.1.6.3 1 .3-.2.5-.5.9-.7 1.4-.9 0-.8-1.3-.3-1.7zm2.1 19.8c.1 1.1.9 3.8-.7 4.2 0-1.5.3-3 .7-4.2zm-.4 38.4c.8 4.3-1.6 9.2-1.7 14.3-1-4.4 1.4-9.2 1.7-14.3zm2.5-20.2c1.5.6-.4 3.4-.3 4.9-1.6-.9.7-3 .3-4.9zm-.4-4.6c.6.7-.1 2.5-.3 4.2-.9-.7-.6-3.3.3-4.2zm.7 11.5c.5 1.8 0 2.1 0 4.5-1.3-.6-.1-3.4 0-4.5zm0 14.7c1.4.5-.3 3.5-.3 4.9-.7-1.1.4-3.3.3-4.9zm-.3-26.8c-1.1-3.1.9-7.9 1.4-12.2.3 1.6.1 4.6-.3 5.9 1.2-.7 0 .2.7.3-1.3.4-1.4 3.7-1.8 6zm-7-38.1c-1.3.2-.9.2-2.4.4.2-1.8 7.5-.1 2.4-.4zm-.4 16.8c-1-.7.5-1.8.3-2.8 1.5 0-.2 2-.3 2.8zm-5.9-8.7c1.2.4.1 3.2 0 4.5-.6-.8-.4-3.7 0-4.5zm-.7 8.7c-.1.8-1.2.7-1 1.7-.9-.4-.2-2.3 1-1.7zm-4.9-18.5c-.1 1.1-3.9 1.9-3.8 0 2 0 2.1-.3 3.8 0zm0 10.1c-1.4 4-.9 9.2-1.7 13.6 3.9 1.8 11.1-.2 16.7 0-2.3 20.9-5.1 42.8-9.8 65.9-5.8 0-14.1-.2-20.6-.7 3.8-27.4 5.2-53.5 9.8-78.8h5.6zm-13.2 9.8c.4-1.6.4-3.5 1-4.9.3 1.5.3 4.4-1 4.9zm2.4 8.3c1.4.7-.8 4.4 0 2.4-.1-1.3-.1-1 0-2.4zm-1-29.2c-.7 1.9-3.7.3-5.6.3 1.8-.7 4.4-.6 5.6-.3zm-2.4 44.6c.6 8.8-1.8 22.9-3.1 31-.5-10.3 2.3-21.1 3.1-31zm-7.4 43.9h1c0 .9-.5 1.1-.7 1.7-1.1-.3-.1-.6-.3-1.7zm1.1 7.7c.9-.6.7 1.5 1 .3.9-.2-.2 1.7.7 1.4-.6.8-2.1-.5-3.5 0-.7-.7 3.3 0 1.8-1.7zm-1.8-12.6c.5-10.1 1.4-20.7 3.1-30.7.3.2.6.3.7.7-1.4 10.6-2.1 19.7-3.8 30zm5.3-6.6c.4 3.4.4 9.5-1.7 11.5.9-4.2 1.3-8.2 1.7-11.5zm-1.1-38.7c.6 1.4.5 7.9-1.4 9.1 1.3-2.8.1-6.6 1.4-9.1zm-3.1-27.2c-1.2 5.4-.3 10.7-2.1 15-1.3 3.1-5.2 5.7-7.7 8.4-2.7 3-4.8 6-7.7 8 2.1-11.2 2.6-21.7 4.5-31.4h13zm-12.2 39.1c-.5 1-1.6 1.4-2.1 2.4-.5-.7 1.1-2.2 2.1-2.4zm-4.9 12.1c1.6.7-1.7 2.1-1.7 3.5-.9-1.2 1.5-2.1 1.7-3.5zm-3.1-3.4c-.8-.8.9-2.1 1.4-2.8.9 1-1.4 1.6-1.4 2.8zm3.1-39.4c.8-.6.1 2.4 0 3.1-1-.7.5-1.8 0-3.1zm-.7 4.2c1 2.6-.9 8-1 11.8-.6-3.5.9-7.8 1-11.8zm-7.7-22.4h5.9c-.9 1.6-3.5 1.3-5.9 1.4v-1.4zm1.1 49.2c-.3 2 .1 5.1-2.1 5.9 1.8-9.5 2.9-21.1 4.9-29.3.2 6-1.6 16.2-2.8 23.4zm1 12.9c-.1-1 .8-1.1.7-2.1 1.1.1.5 2.2-.7 2.1zm-3.8 3.1c-1.5-1 .2-4 .7-5.2.6 1.8-.8 3.4-.7 5.2zm2.4-35.2c.7-2.9.7-6.8 1-9.1 1.4 2 .2 7.4-1 9.1zm0-20.2c.7 7.7-2.3 15.5-2.8 24.4.1-9.8 1-16.5 2.8-24.4zM97.2 208c.8-.2.5.7 1 .7-.3.9-1.1 1.5-1.4 2.4-.5-.7 0-1.9.4-3.1zm-.7 8c-.9-.8-.3-2.3-.3-3.5 1.5.3.7 2.2.3 3.5zm-1-17.1c-1.9-2.9.5-8.8.3-11.1.8 3.1-.1 7.7-.3 11.1zm-1-26.5c1.5 0-.2 1.8.3 3.1-1.5-.4 0-1.7-.3-3.1zm-9.1-10.1c2-.7 5.3.2 6.6-.3.7 1.6-4.2 1-6.6 1.4v-1.1zm8.7 3.8c-2 1.4-8.2.6-9.8.3 1.1-2.4 7.4-.8 9.8-.3zm-14.3-7c-.2.5-.3 1.5 0 1.7-.1.4-.3.2-.3 0-.3-.1-.3.1-.3.3-.4-.1-.2-.3 0-.3-.3-.7-.6-1.5.6-1.7zm-6.9-3.4c1.2 1.4-2.1 1.2-2.4 0 .8.3 1.8 1 2.4 0zm-6 6.9c-1.8 2.6-5.6-1-7 2.1-1.4-.3 1.2-1.3 0-1.4 2.5-.3 4.8-1 7-.7zm-2.4-2.1c.1 1.5-2 .8-2.1 2.1-1.1-.3-.5-.6 0-1-.7-1-2.2.1-3.1 0 .3-1.2-1.1-.6-1.4-.3 1-1.4 4.8 0 6.6-.8zm-9.1-2.1c-.5.8-2.4.1-3.5.3.8-.6 2.2-.7 3.5-.3zm-.3 4.9c-.1.5-2.9.8-2.4-.3.8 0 1.9-.1 2.4.3zm-4.6 1.8c6.9 1.4 10.9.6 16 .7-4.7 1.7-9.5.8-16.4.7 0-.7.5-.8.4-1.4zm-3.1 16c1.6-3.4.8-8.3 2.4-12.9h16c-.3 5.2-2.6 10.9-1.7 14-.7 1-1.8 3.6-1.7 5.2v.6c.2-.1.1.6 0 0-.1 0-.2.2-.4.5-.5.8-.4 4.2-1 6.6-1.4 5.3-4.5 12.7-10 12.4-8.7-.4-3.8-21.8-2.9-25.7.1-.6-.3-.7-.7-.7zm16 31.4c-.9-.5.1-1.9 1-1.7.2 1-.9.9-1 1.7zm-12.9 7.6c-.7-.9 0-1.4 0-2.4 1.2.2.2 1.7 0 2.4zm-1.4 24.8c-1.1-1.1-.4-4.3 0-7 1.5 1.9-.8 4.7 0 7zm.4-7.3c-1-.9.3-2.3-.3-3.1 1.6.4.5 1.9.3 3.1zm-6.3-79.2c-.4-.1-.6.1-.7.3-.5-.6.1-1.3-.3-2.4.1-.4.9 1.4 1 2.1zm-1.4 3.9c-.9-1.1.8-1.6 0-2.8 1.7.2-.4 2 .7 2.4-.1.6-.6.8-1.4.7 0-.3.5-.2.7-.3zM31 153.2c.9-.3 1.8 1.6 1.7 0 .4.1.2.7.7.7 0 .9-2.1.4-.3 1-1.5.4-3.1-1.2-4.9-.3.6-2 2 .6 2.8-1.4zm-4.2 8.4c1.4-.3 1.6-.2 2.4.7.1-.7.4-.9 1-1 .2 2.1 2.1-1.6 2.8-1 0-.9-.5-1.1-.7-1.7-.4.3-.9.5-1.7.3.7-1.5.2-1.9 1.4-2.8.5.4 1.6.3 1.4 1.4.9-.4 1.6-.6 2.1-.7.9.1-.5.6 0 1.4 2.5-.3 3.3-5-.7-3.8.1.5.9.3 1.4.3-.3.5-.9.7-1.7.7.2-1.1-1.1-.8-.7-2.1 1.2-.2 3.1.5 4.2.3.2.8.1 2.5 1.4 3.1-.1 0-1.7.7-1.4-.3-.8.1-.2 1.5.3 1.4-.3.9-1.4-.8-1 1-.5-.7-1.5.6-1.7-.7-.7-.1-1.8 1.9-1.7.3-.3.1-.3.4-.7.3.6.5 1.1 1 1.7 1.4-1.2.7-1.6 2.4-2.1 3.8-.8.1-.4-1-1-1 0 .3.7 2.5 0 3.8-4.7 0-7.6.1-11.8 0-.5-1.4 1-.8 1-1.7.5.2.3.6-.1.7 2.3 0 5.5-.2 7.8.4 0-.9-.7-1.1 0-1.7-1.1.4-.9.2-1.7-.3.2-.8 1.7-.2.7.3.3-.1.3-.3.7-.3-.1-.7-.9-.7-1-1.4-.6.3-1 .8-1.7 1 .2.4.8.4.7 1-.7-.1-.7-.9-1.4-1 .2-.3 1-.5.3-.7.8-.7 1.7-.1 1.5-1.4zm11.9 35.9c-.5-1.2-.5-3-.7-4.5 1.2.8.7 3.3.7 4.5zM36.9 208c-1.5-1.2.5-1.8-.7-3.1.7.4.8 1.5 1.4 2.1-.6.4-1.1-1.3-.7 1zm0-6.3c.4-.6.6 1.9.7 2.8-1-.1-.2-1.6-.7-2.8zm-17.7-48.8c2.8-.1 2.8 1.3 4.9.3-.2 1.1-.2.7 0 1.7.5-.3.7-.9 1-1.4.2.5-.8 2.7-1.4 3.5 1.4.6 1.1.8 2.4 1.4-.4 1.2-1.3-.1-2.1 1.4.2.8 1.7.1 2.4.4-.5.7-3.7.9-4.9.7-.2 1.1-.2.7 0 1.7.5-1.7.8.2 1-1 .8.4 1.6.7 1.7 1.7-.9 1.3-3.5-.3-4.2 2.1-.5-4 2.6-8.5 2.1-10.8-1.5 2.7-4.3 5.5-4.2 8.7-1-.3-.9.5-1.7.4.2 1.5.1 2.1-1.4 2.8 1.4-4.8 3.1-9 4.4-13.6zM21.3 254c-.6-.1-.8-.6-.7-1.4-.9-.1-1.1.5-1.4 1 1.2-.9.5.7-.7.3.3-1.6-.4-1.4-1.4-1-.2-1.1 1.7-.1 1.4-1.4 1.5.3 2.1.7 3.1.7.3 1-.5.9-.3 1.8zm-4.6-.7c-1.1.4-.8-1.4-1.7 0 .2-1.6.2-2.1 0-3.5 2.2-.1-.7 2.7 1.7 2.4.1.6-.6.9 0 1.1zm-2.8-55.1c1.2 2.1.5 6.2.7 10.8-1.1-3.5-.4-5.3-.7-10.8zm.4 19.5c1.2-1.4.7 3.9 0 5.9-.3-2.5.6-5.9 0-5.9zm1 21.6c.4.1.2.7.7.7-.5 3.1-.7 2.9-.7-.7zm-1.4-70.7c1.2-.3 1.5.4 2.1.7-.1.4-.7.4-.7 0-.6-.1.7 2.1-.7 1 .2 3-2.1 1.9-.7-1.7zM7 156.7c1.8 0 2.6 2.4 2.1 3.5-1.2-.1-.1-2.5-2.1-1.7v-1.8zm-2.1 19.5c1.7.5 0 5.3.3 1-.2-.2-.3-.5-.3-1zm0-10.4c1.1 2.3.5 6.9.3 9.4-.5-3.1-.9-7.1-.3-9.4zm2.1 84c-.7-.4-.4-2.7 0-3.1 1.1 0 .2 2.2 0 3.1zm1.7-55.5c-.5-.5-1-1.8-.3-2.4.7.2.1 1.7.3 2.4zm1 44c1-4.5-.4-9.6.3-12.5 1.4 3.3 1 9.2-.3 12.5zm1.8-59.6c-1.7 3.5-3.3 7.1-2.8 12.9-1.4-1.2 0-1.9-.7-3.5-.6.5-.4 1.7-1 2.1.1 0 .2 0 .3-.1-1.6 5.3-2.4 10.9-4.5 16.4 0-9.9 4.9-14.4 5.2-25.4.7.1.1 1.5.7 1.7 1.7-4.1 2.5-7.1 4.2-11.1 1.8 2.8-2.4 5.2-.7 8.4-.5-.3-.7-.8-.7-1.4zm1 28.9c-.2-1.6.5-2.1 0-3.1 1.2-.3 1.2 3.4 0 3.1zm.7-17.1c1.5 1 .9 3.1.7 4.2-.8-.8.1-3.3-.7-4.2zm.7 4.5c.5.6.9 1.9.3 2.4-.7-.7-.6-1.3-.3-2.4zm.4 35.3c.4-1.4-1.2-.4 0-1.4.8-.7.1 5.1 0 1.4zm2.4 32.7c-.3-.2-.6-.4-.7 0-.5-.2-.7-.7-.7-1.4.4-.3.9-.5 1.7-.3.2.8-.6.7-.3 1.7zm6.3-8.7c1 1.5-1.4 3.8.3 4.9-.1.5-1 .1-1 .7-.6-.2 0-.6 0-1-.1-.5-.9-.3-1.4-.3 1.3.6-.7 1.4.7 2.4-.3.4-1.4.3-2.4 0 .3-.5.6-1.1 1-1.4.1-.6-2.1.7-1-.7-2 .2-2.6.1-3.5.3-.4-.1-.2-.7-.7-.7 1.1-.4 1-1.4 1.4-3.1h.7c.5.5.5 1.4-.7 1 .2.7 2.3.4 2.1-.3.7 1.1.5 1 1.4 2.1.3-.1.3-.4.7-.3 0-.9-1.5-.4-1-1.7.3.3.8.4 1.4.3-.6-.9.4-1.2-.3-1.7 1.2.1 1.5.1 3.1-.7-.1.2-.5.1-.8.2zm1-1c-1.1-.2-1.4.8-2.1 0 .8-1.6.6-1.6.3-3.8 1.5-.1 1.8 1.9.7 2.4.3.9 1.2-1 1.7 0-.5.7-1.2.1-.6 1.4zm1.4 8.3c-.3.1-.3-.1-.3-.3v-.7c.4 0 .6-.1.7-.3.4.1.2.3 0 .3.2.3.6.5 1 .7-.1 1.2-1.3-.9-1.4.3zm5.3-1.4c-.9-.7-2.7-.5-3.8-1 .2-.3.4-.6.3-1 .8 0 1 .6 2.1.3.7-.1.3-1.3 1-1.4-.1-.6-.6-.8-1.4-.7.4-1.1 1.9.3 1.4-2.1.1-.2 1.2 4 .4 5.9zm.3-8.3c-.5-.2-.7-.7-.7-1.4 1.3.3.2-1.7 1.7-1-.7.3-.7 1.5-1 2.4zm1.4 10.8c-.4-.2-.7-.5-.7-1 .3 0 .3.4.3.7.6-.6 1.4-.9 2.8-.7-.5 1.2-1.7-.3-2.4 1zm4.5-9.4c-.9.2-.7-.7-1.4-.7-.3.2-.6.3-.7.7.1.5.9.3 1.4.3-.1.5-.6.5-.7 1-.5-1-1.5-.6-2.1 0-.2.1.7-.7-1-1-.7-.2.4-.5.3 0 .8-2.1.8-1.8 1.7-2.8 1.2.8 1.5.3 3.1.7.4 1.1-.2 1.3-.6 1.8zm-17.7-7.4c-.7-25.6.1-52.9.7-77.7h11.5c-1.1 10.2-3.1 22.4-2.1 31.7.5 4.8 2.9 12.7 3.5 14 2 2.9 4.3 7.6 8.7 9.4-.4 6.1-1.5 14.2-3.1 23-4.7.7-11-.3-19.2-.4zm21.6-.3c.9-3.7.8-8.5 1.7-12.9-.1 4.8 0 9.2-1.7 12.9zm.7-66.6c-.2-1.3.4-4.2-1.4-4.9.3 0 .3-.4.3-.7.3 0 .3.4.3.7.8-2.8.5-3.4 1-5.9.6-.1.6.3 1 .3-.2 3.7-.7 7.1-1.2 10.5zm4.2 53.4c-.1 4-.3 10.2-2.4 14 1.4-6.3.6-7.2 2.4-14zm-2.1 19.5c1.5.3 1.6.1 2.8.3-.1 1.1-3.2 1.2-2.8-.3zm3.1 6.6c1.7-.8 3.6-.3 5.2-.3.9 1.2-4.4.7-5.2.3zm13.2 5.6c2-1.4 7.3-.5 9.4-.7-2.8.5-6.1.6-9.4.7zm3.9-10.5c.2-.5.5.1 1 0-.8 1.3-2.1.9-3.8 1.7-.3-1.5 1.4-1.1 1.7-2.1.5.2.3 1.1 1.4.7.1-.2-.1-.3-.3-.3zm-8.4-6.6c0-.5.2-1.3-.3-1.4-.9-.1.9 1.4-.7 1 .6-.7 0-.5 0-1.4.9.2 1.3-.1 1-1-.2 0-.4.5-.3.7-1.2-4 2.4-16.8 2.8-20.9 9.3 0 13.6-9.5 14.3-10.1 0-.3-.4-.3-.7-.3.2-.5 1.1-.3.7-1.4 1.1.4-.5 1.3.3 1.7 1-1.1.4-3.5 2.1-2.1.4-.9-1.2-1.5-1.4-.7-.9-1 .9-1.2 1.4-.7 1-.9.9-.6.3-1.7h1.4c-1.2-.9-.6-1.6-1.4-2.8 1.3.1.1-.3.3-1 .8.1.7 1.2 1.7 1 .7-2.8 1.6-3.8 1-7 .6-.1.6.3 1 .3-.1-1.4.7-2.1-.3-2.8.8.2 1.5-1.4.7-2.8.9.3 1.4-2.1.7-3.5 1.2.6.1-2 1.4-2.8-.3.2-.6.3-.7.7-.2.1.2-2.1 1-2.1-1.7-.5 0-1.7.3-3.8-.2-.5-.7-.7-1.4-.7.7-.9.5-.7.3-2.1.5.3.5 1.1.7 1.7.6-.8.2-2-.3-3.1.3 0 .3.4.3.7.8.3.2-2.4 0-1 .2-1.2 1.8-6.3 1.7-9.1 3.5-.9 6-.5 10.5 0-2.1 17.8-3.2 40-6.6 55.8.6 1.1.3 1.4.7 2.1-1 .3-1.5 3.7-.7 4.9-2.2 4.1-1.3 10.5-2.4 15.7H55.4zm19.5 10.1c-.9-1.3 3.5.2 3.1-1 .5-1 .7 1.1 1.7.7-.7 1.3-3.9-.3-4.8.3zm9.8-2.4c-.5 1.2-2.6.3-4.2 0 .5-.5 2.7.3 4.2 0zm-1.4 1.7c0 .4.1.6.3.7-1.8.7-3.8-.7-.3-.7zm.7 1.1c.9-1.5 4.1-1.2 5.2 0-1.6-.8-3.4-.1-5.2 0zm6.3-.4c.1-.6 2.6-1.4 2.4 0h-2.4zm2.1-2.1h-5.2c.4-1.2 2.8-1.2 3.5-.3.4-.5 4.9.3 1.7.3zm1.7-54.7h1c.5 3.2-1.4 9.1-1.4 12.9-1-3.8 1-7.6.4-12.9zm.7 26.5c.1-.8.5-1.3.3-2.4 1.2-.4.6 2.5-.3 2.4zm.7 4.9c.3-3.5.5-5.1 1-8 .2 1.7.3 6.5-1 8zm1.4 14.6c.7-.7 1.1 0 1.7.3.1.6-2.2.7-1.7-.3zm2.1-17.8c-.5-1.2.3-3.8.3-4.9 1 1.3 0 3.7-.3 4.9zm1-11.1c.6-.1.6.3 1 .3-.2.5-.5.9-.7 1.4-.7.1-.1-1.2-.3-1.7zm2.1 33.8c2.1-.8 3.8.3 7 0-1.8 1-7 .9-7 0zm9.1 6.6c.2-.5 3.1-.9 2.8.3-1-.5-1.3.3-2.8-.3zm-10.1-10.5c.2-17.4 11.8-25.4 19.2-36.6-.2 10.7-3.4 24.7-4.5 36.2-5.9.2-10.6-.1-14.7.4zm18.5-12.5c-.5-2.6.5-6.1.7-10.1.9 3.1-.5 6.9-.7 10.1zm-.7 23.4c-1.3-.9 1.3-.7 2.1-.7-.4 1.2-1.8-.1-2.1.7zm.3-1.8c.2-.3.5-.9 0-1 .5-1.1.9.9 1.7.7 1.3-.9 5.9.3 8 .7-.9.3-6.6-.6-9.7-.4zm12.6 7.7c1-1.1 2.8.1 4.5-.7-.8.9-2.9.6-4.5.7zm-3.2-5.2c0-.5 0-1-.3-1 2.6-.3 4.2 1 8.4.7-2.4 1.3-4.5-.1-8.1.3zm13.3-7.4c.5-1.3 2.6-.4 3.1-.3-.6 1.1-2 .4-3.1.3zm6.6 12.6c.6-1.4 8.1-.4 10.1-.7-2 1.6-8.4 1-10.1.7zm22.3-.4c.8-.2 2.5.4 2.8-.3 1 .7 3-.9 3.5.7-1.8 0-10.5.1-6.3-.4zm-7.7-1.4c-2 0-5.4.7-7.7 0 1.1.4 4-.6 6.6-.7 5.9-.1 9.2.4 15.3.3-5.5 1-9.1.6-14.2.4zm20.2-7.3c.5.5 1.6.5 1.4 1.7-2.3.1-3.8-.6-6.3-.3.8-.6 2.4-.4 2.4-1.7 1.9 1.1 3.1-1.1 4.9 0-.1.7-1.6.1-2.4.3zm-.7-3.8c.2-.9 3.7-.3 4.9 0-.9.6-3.9.5-4.9 0zm-12.5-3.2c3.7-20 5.6-43.4 11.8-66.6 4.7 0 7.6.1 11-.4l.9-.9c.7-.4 1.2-.6 1.7-1.3.2-.2.3-.5.5-.7.4-3.5.9-7.7 2.2-10.7h12.7c-1 2.5-1.1 5.9-1.7 8.7-3.7 1.1-11.9-.5-18.9 12.3-4 7.3-8.3 20.1-7.6 30.9.3 4 1.1 15.7 12.2 22-1 2.6-.8 4.3-1.4 7-8.2 0-17.5.4-23.4-.3zm40.4-64.1c.1 3.3-2.7 3.6-4.9 4.5 1.1-2.1 3-3.3 4.9-4.5zm-9.4 0c.5-1.4 2.2-1.7 3.8-2.1-.4 1.5-2.5 1.4-3.8 2.1zm2.5 10.1c-.2.8-.4 2.5-2.1 2.8-.6-1 .5-2.8 2.1-2.8zm-7 47.8h1.4c-1.4 1.6.4 6.4-2.4 6.6-.6-1.9 1.2-4 1-6.6zm.3-9.8c.2-1.5-.1-2.1.7-3.5 1.5.6.4 3.2-.7 3.5zm-.3-39.4c-.4-1 .5-3.6 2.1-3.8-1.2.8-1.3 2.7-2.1 3.8zm-4.5 11.5c-.1-1.5.1-2.7.7-3.5 1-.1.2 3.4-.7 3.5zm.7 27.6c-1.2-.7-.1-1.3 0-2.4.7.1.3 2.1 0 2.4zm-3.2-17.5c-.5-2.5.1-4.7.7-7 .6 1.8-.7 4.7-.7 7zm1.4 49.5c1.3-1.5 5.2-.3 7.7-.7.2.3-5.4.6-7.7.7zm7.7-15.3c-.9-.9.5-2.3 0-3.8 1.1-.2.1 2.9 0 3.8zm0-12.2c-.5-1.5 1-3.5 1-5.6.5 2 .4 4.3-1 5.6zm20.6-42.9c5.4 2.9 3 13.7.7 20.9-2.1 6.7-12.2 15.7-16.7 8.7-6.1-5.8.3-34.5 16-29.6zm-14.7 36.3h1c.1 1.1-1 1.4-1 3.1-1.1-.8.3-2 0-3.1zm2.4 1.7c1 1.9.2 4.2-.3 6.3-.7-.6-.5 0-1.4 0 .3-2.4.8-4.6 1.7-6.3zm3.2 27.9c-2.9.8-5.6 1.2-8-.3 2.5.2 5.1.4 8 .3zm-.4-12.6c-.9-1.2.2-2.6-.3-3.8 1.7.4.1 2.7.3 3.8zm-1-12.9c.4-2-.2-2.7.7-4.5 1.6.7.1 3.9-.7 4.5zm-7 9.1c1.6.1 1 5.7-.7 5.9-.2-2.4.5-3.9.7-5.9zm-.3 21.6c2.4-1.3 6.4-.9 9.1-1 14.4.9 38.3-.7 55.1 1.4-21.5-.2-46.5.3-64.2-.4zm64.8-57.8c-.7.2-.2-3.8-.3-5.2.7-.3.1 3.7.3 5.2zm3.5-50.2h3.1c-.1.6-3.1 1.3-3.1 0zm2.8 102.5c.8-.9 1-.3 2.4-.7 0 1-1.4.6-2.4.7zm1.7-47.8c-.1-1.8.2-4.9 0-5.6 1-.3 1.5 5.4 0 5.6zm1.8-45c9.3 0 12.1-.4 22.3-.3-.3 1.5-.2 2.4.7 1-5.6 17-13.2 34.9-20.9 50.9-1.7-18.4-1.8-33.8-2.1-51.6zm19.5 73.6c.7 2.2-.4 6.6-1 10.4-.7-3.8.9-6.6 1-10.4zm-1.4-22c-.7-.5-.1-2.6 1-2.4-.1 1-.8 1.5-1 2.4zm1.4-2.8c-.3-.2-.6-.4-1-.3 0-.3.4-.3.7-.3-.1-.7-1.6 0-1-1.4.4.1 1.4 1.5 1.4 0 .9.4-.5 1.1-.1 2zm-7.7-1.7c1.5-6.3 4.1-14.4 6.6-20.9-1.4 7.1-3.1 13.9-6.6 20.9zm3.5 7.3c-.1.4-.3 1.4-.7 2.4-.3-1.5.3-3.3 1.7-4.5-.2-.7-1-.6-.7-1.7.3 0 .3.4.3.7.9.1.3-1.4 1.4-1-1.2 3.3-.7 5.2-2.4 8.4-1.2-1.3 1.6-3.1.4-4.3zm-4.5-9.4c-.6 0-.7.4-1.4.3 1.3-1.8.6-1.8 1-4.2 2.4.1.2 2.8.4 3.9zm-3.2 7.3c.2-.8.8-1.9-.3-2.1 1.4-1.6 1.2-3.1 2.8-4.9.5.1.3.9.3 1.4-1 0-.8 1-1.7 1 .5 1.5.4 4.2-1.1 4.6zm.4 19.2c-.8 1.3-.9 3.3-1.7 4.5-.3-.9.4-3.9 1.7-4.5zm3.1-32.1c.7-.3 1.2-.9 1.4-1.7.7-.8-.4 1.4 0 2.4-1.1.4-.3-1.1-1.4-.7zm-8.7 16.8c-1.1-1.4 1.1-2.6.7-4.5 1.6.7-.5 2.5-.7 4.5zm1.8 41.8c.8-1.1 2.5-.5 3.1-.3-.4.7-2.2.1-3.1.3zm2-14.3c3.9-10.4 7.7-19.2 11.8-28.9 0 9.8-3.7 21.3-4.5 29.3-2.3-.3-5.5.3-7.3-.4zm11.9-11.5c0 2.8-1 7.6-1.7 10.8-.2-3 .9-7.6 1.7-10.8zm-8 17.1c.9-1 1.5-.2 3.1-.3.9.6-2.3.1-3.1.3zm6.2 5.9c-.2-.4-.8-.4-.7-1 1.9.2 2.8.4 4.9 1-1 1.7-14.5-.2-4.2 0zm5.3-53.7c-.4 0-.3-.6-.3-1-1 1.9-.6 1.4-2.4 4.2.7-3.9 3.1-9.2 5.2-12.9-.6 3.1-.9 6.3-3.1 8 .1.7 1.6.7.6 1.7zm1.7 42.5c-1.2 0-.3-3.4 1-3.1-.1 1.3-.4 2.3-1 3.1zm.7-23.3c-.3-8.1 1.5-18.8 3.1-26.8-.8 9.9-1.3 14.6-3.1 26.8zm4.6 24.7c2.6 0 4.2.9 6.6 1-1.4.3-6.1.8-6.6-1zm9.7 10.1c.8-1.8 2.8-.4 4.5-.3-.8.8-3.1.1-4.5.3zm1.1-5.5c.8.7 3.5-.7 4.5 1-.4-.8-4 .5-4.5-1zm6.2 4.5c5.2 0 10.6-.3 14.6 1-3.6.3-10.8.2-14.6-1zm10.2-42.9c.1-5.8 3.8-18 6.3-22.3 1.1-1.9 3.4-4.4 4.2-4.9 3.9-2.5 13-3.4 15 1 .9 2.1 1.3 7.5 1 10.8-.2 2.8-1.6 6.3-2.4 9.8-2.1 8.3-4.1 13.5-9.8 17.4-7.8 3-14.4-3-14.3-11.8zm11.1 40.8c-.1-.3.1-.3.3-.3-.1-.4-.6-.3-1-.3-.8-.3 2-1.2 2.4-.3-.5.2-.5 1.1-1.7.9zm7 4.5c1.4-.7 2.3-1.1 4.2-.7-.8.9-2.6.7-4.2.7zm-3.9-10.1c1.9-1.8 5.6-.2 9.1-.7-1.5.8-5.3.7-9.1.7zm28.3 6c.3-.7 2.2-.2 2.1.7-1.3.3-1-.9-2.1-.7zm4.2-8.1c-9.7-.5-13 .1-24.4 0 .5-1 2.8-.2 3.5-1-2.4-2.1-7.4.8-11.1.7.4-1.8 1-3.4 1-5.6 21.8-3.3 25-27.1 27.2-35.9 5.7-22.4-2.8-30.6-11.8-34.5.7-3 .8-6 2.1-9.1 4.5.6 10.9.4 15.7 0-.5 25.5-.5 57.7-2.2 85.4zm-10.2-46.3c.3 4-1.7 8.8-2.8 12.5.1-3.7.8-10.2 2.8-12.5zm-1-.4c.1-2.4.2-2.7.3-4.9.6.8 1.7 4.8-.3 4.9zm3.1-8.3c-1.6.6-1.1-3.1-1.4-3.5 1.5-.7.8 3 1.4 3.5zm0-8.1c1.2.6 1 2.5 1.4 3.8-.7-.9-2.2-2.4-1.4-3.8zm4.2 4.2c1.4 0 1.2 5.1.7 7.7-.6-1.7-.1-6.3-.7-7.7zm-3.5-34.5c4.3-.3 6.7.7 9.8.3-1.5 1.5-7.8 1-9.8-.3zm10.1 58.9c-.5-4.9.1-12.4.3-17.1.8 5.4.5 11.9-.3 17.1zm5.6-64.1c-1.2 0-1.7-.6-3.1-.3-1.1-.4 3.6-1.1 3.1.3zm-2.8 17.1c1.4.5-.2 2.5.7 3.1-1.1 1.2-.5-2.2-.7-3.1zm1.8 36.9c.1-4.4.3-5.1.7-9.4.3 1 1.1 8.3-.7 9.4zm.7 53c.4.7.9 1.2 1 2.1-1.5.5-.9-1.2-1-2.1zm-.7-71.1c.8-1-.4-2.2 0-3.8 1.2.2 1.2-.7 1.7-1 .5 0 .4 3.9-1.7 4.8zm2.8 38.3c-.8-.7.5-2.3 0-3.8 1.1-.1 0 2.9 0 3.8zm1.4-9.7c-1.1-1.4.3-3.4 0-5.2 1.1.2.1 3.9 0 5.2zm2.4-36.3c-.7-1.6 0-4.9.3-8 1 2.4.1 5.8-.3 8zm2.1 45.3c-.4.1-.3.6-.3 1-.6-.9-.6-2.7-.3-3.5 1.6.2-.6 2.2 1 2.4-.1.5-.4.3-.4.1zm1.4-66.2c.7-.9.2 2.3.3 3.1-.6.9-.2-2.3-.3-3.1zm.7 54.4c-1.4-6.3-.2-17.5 0-26.8.9 7.8-.4 16.9 0 26.8z"/><path class="st0" d="M30.7 165.4c.7-1 .2-2.5.3-1.7-.1.5-.8.2-1 0-.1.8-.1 1.7.7 1.7zm277.8 33.1c-.4 1.1-.3 1.5-.7 2.8 1.3-.3 1.7-2.1.7-2.8z"/></svg>