<svg xmlns="http://www.w3.org/2000/svg" viewBox="0 0 40 40"><circle cx="20" cy="20" r="20" fill="#5d88bf"/><path d="M16.1 33.3c-2.9 0-5.7-.8-8.3-2.3L6 29.9h2.4c.8 0 3.3-.1 5.9-1.6-2-.6-3.6-2.1-4.2-4.1l-.3-1 .9.2c-1.4-1.1-2.4-2.8-2.5-4.7v-.9l.8.4c.1.1.3.1.5.2-1.2-1.7-1.9-4.2-.4-6.9l.4-.7.5.7c2.5 3.2 6.2 5.2 10.3 5.5v-.6c0-3 2.3-6.1 6.1-6.1 1.6 0 3.2.6 4.3 1.8 1.5-.4 3-1.2 3-1.3L35 10l-.5 1.5c-.2.7-.6 1.3-1.1 1.9.3-.1.5-.2.8-.3l1.6-.8-.7 1.4c-.5 1.2-1.5 2.2-2.6 2.8.3 3.9-1.4 8.3-4.3 11.5-2.1 2.5-6 5.3-12.1 5.3zM10.2 31c1.9.8 3.9 1.2 5.9 1.2h.1c5.6 0 9.2-2.7 11.2-4.9 2.8-3.1 4.3-7.3 3.9-11v-.4l.4-.2c.6-.3 1.1-.6 1.5-1.1-.5.1-1 .2-1.6.3l-.5.1-.3-.8.4-.3c.5-.3 1-.7 1.4-1.2-.6.3-1.3.5-2 .6l-.3.1-.2-.2c-.9-1-2.3-1.6-3.7-1.6-3.1 0-5 2.5-5 5 0 .1.1.8.1 1l.3.7H21c-4.3-.1-8.4-2-11.2-5.2-1.1 2.9.8 5.3 1.7 6l1.3 1-1.8-.2c-.5 0-1-.1-1.5-.2.4 2 2 3.5 4 4l2.2.5-2.2.6c-.4.1-.8.2-1.3.2h-.6c.9 1.5 2.5 2.6 4.3 2.7l1.6.1-1.3.9c-2.1 1.4-4.4 2.1-6 2.3z" fill="#fff"/></svg>