<svg xmlns="http://www.w3.org/2000/svg" viewBox="0 0 341.1 341.1"><path d="M115.4 304.4c-33.1 0-65.9-9.2-94.8-26.5L0 265.6l24 .4c.8 0 2 .1 4 .1 9.1 0 38.3-1.5 68.2-18.3-22.5-6.7-41-24-48.7-46.8l-3.8-11.3 10.3 2.7c-16.5-12.7-27.3-32.2-28.5-54l-.5-10.3 9.6 4.2c1.7.8 3.5 1.4 5.3 2-13.6-19-21.8-48.4-4.7-79.5l4.7-8.6 6 7.8c28.7 37.1 71.3 59.8 117.8 62.9-.3-2.9-.5-5.5-.5-6.4 0-34.5 26.2-70.1 70.1-70.1 18.4 0 36.2 7.3 49.2 20.2 17.5-4.1 34.2-14.3 34.4-14.4l15.2-9.3-5.7 16.9c-2.8 8.1-6.9 15.5-12.3 22 2.9-1 5.8-2.1 8.8-3.3l18.2-8.9-7.7 16.5c-6.3 13.6-16.9 24.8-30 32 2.9 45-15.6 95.2-48.9 132.1-24.7 27.4-68.7 60.1-138 60.5l-1.1-.3zm-67.6-26.9c21.4 9.2 44.4 14.1 67.5 14.1h1.1c64.6-.4 105.6-30.8 128.6-56.3 32-35.5 49.4-84 45.3-126.6l-.4-4.5 4.1-1.9c6.5-3 12.4-7.3 17.3-12.4-5.5 1.4-11.3 2.4-18.1 3.2l-4.9.6-3.8-9.7 4.5-3.4c6.3-3.7 11.7-8.5 16.1-14-7 3-15.2 5.9-23.5 7.4l-3.5.7-2.4-2.6c-10.8-11.9-26.3-18.7-42.3-18.7-35.8 0-57.3 29.1-57.3 57.3 0 1.7.8 9.5 1.1 11.4l2.9 8.3-9.3-.2c-49.7-1.1-96-22.9-128.5-60.2-12.9 33.8 8.7 60.7 19 68.8l15.1 11.8-19.1-.6c-6-.1-11.9-.9-17.6-2.4 5.1 22.6 22.9 40.7 46 45.7l25.4 5.4-25 7c-4.4 1.2-9.3 1.8-14.7 1.8-2.5 0-4.9-.1-7.2-.3 10 17.7 28.7 29.6 49.4 30.6l18.1.9-14.6 10.7c-24.8 18.4-50.7 25.5-69.3 28.1z" fill="#5d88bf"/></svg>