<svg xmlns="http://www.w3.org/2000/svg" viewBox="0 0 400 400"><path d="M274.1 128.1c-.1-10-11.8-13.9-18.7-14.2l2.1-47.9h-7.6l-3.2 77.3 11.6-.1c.1.1 15.8-1.3 15.8-15.1zm-19.7 9.4l.9-17.9c3.9-.2 11.1-.1 11.1 9.3 0 6.6-8.4 8.9-12 8.6zm-28.6 6.8c15-.4 11.8-20.1 11.8-20.1l-7.6.8s3.1 11.6-3.8 11.6c-8.2 0-10.6-10.3-10-30.9.7-20.9 1.6-33 11.2-33 5.4 0 4.3 13.3 4.3 13.3l7.3-.9s2.8-20.3-11.5-19.8-18.8 19.8-18.7 39.9c.2 20.2 2 39.6 17 39.1zM49.6 120.5c16.3-5.4 14.5 22.6 14.5 22.6h7.4c0 .2 1.2-6.7-3.3-19.3-3.6-10.2-13.2-10.3-18.7-8.9l.6-15.9c20.7-2.3 22-31.3 22-31.3h-7.6C64.5 89.6 53.8 93 50.4 93l.7-25.3h-7.8l-2.1 75.5h7.9l.5-22.7zm-15.1 51.4H27c0 21.9-11.6 26.4-15 26.4l.7-26.3H4.9l-2.1 76.6h7.9l.5-22.8c16.3-5.4 14.5 22.6 14.5 22.6H33c-.1.1 1.1-6.8-3.3-19.4-3.6-10.2-13.1-10.3-18.7-8.9l.6-15.9c22.1-2.4 22.9-32.3 22.9-32.3zm274.7-28.8c0 .2 1.2-6.7-3.3-19.3-3.6-10.2-13.1-10.3-18.7-8.9l.6-15.9c20.7-2.3 22-31.3 22-31.3h-7.6c0 21.9-10.7 25.3-14.1 25.3l.7-25.3H281l-2 75.6h7.9l.5-22.8c16.3-5.4 14.5 22.6 14.5 22.6h7.3zm-224.9.7l1.5-44.2c5.1-.2 22-2.2 22-16.9 0-10.5-12.7-13.3-21.1-14.1-4.2-.3-7.3-.2-7.3-.2V70l-2.2 73.8h7.1zm16.1-61c0 6.2-6 10.4-14.4 10.7l.7-19.6c2.1-.3 13.7-1 13.7 8.9zM234.9 173c-4.2-.3-7.3-.2-7.3-.2v1.7l-2.2 73.7h7.1L234 204c5-.2 22-2.1 22-16.9 0-10.5-12.8-13.3-21.1-14.1zm-.7 25.1l.7-19.6c1.8-.2 13.8-1.2 13.8 8.9-.1 6.2-6.2 10.4-14.5 10.7zm-89.5-54.9h7.6l3.1-75.4h-7.7zm17.8-79.8c1.2.2 1.5.1 1.5.1.6-.1 1.1-.1 1.7-.3 2.7-.9 4.9-2.8 4.9-6.8.1-9.9-11.2-9.3-11.2-9.3-3 .8-5.6 2.8-5.6 7.2 0 6.8 5.4 8.6 8.7 9.1zm-1.6-11.1c2.7 0 4.6.3 4.6 3.4-.1 1.3-1 2-1.9 2.3-.1 0-.2.1-.3.1-.3.1-.6.1-.9.1-2-.1-3.4-.7-3.4-3.4 0-1.3.8-2.3 1.9-2.5zm-20 11.1c1.2.2 1.5.1 1.5.1.6-.1 1.1-.1 1.7-.3 2.7-.9 4.9-2.8 4.9-6.8.1-9.9-11.2-9.3-11.2-9.3-3 .8-5.6 2.8-5.6 7.2 0 6.8 5.4 8.6 8.7 9.1zm-1.6-11.1c2.7 0 4.6.3 4.6 3.4 0 1.3-.9 2-1.9 2.3-.1 0-.2.1-.3.1-.3.1-.6.1-.9.1-2-.1-3.4-.7-3.4-3.4 0-1.3.8-2.3 1.9-2.5zM21.2 147.8c.8-.2 1.6-.2 2.4-.4 3.8-1.3 7.1-4.1 7.1-9.8 0-14.1-16.2-13.2-16.2-13.2-4.3 1.1-8.1 4-8.1 10.3 0 9.7 7.9 12.2 12.6 12.9 1.7.2 2.1.2 2.2.2zm-8-12.5c0-2.2 1.4-3.8 3.1-4.1 4.4 0 7.6.5 7.6 5.6 0 2.1-1.5 3.2-3.1 3.8-.2.1-.3.1-.5.2-.5.1-1.1.1-1.5.1-3.3-.1-5.6-1.1-5.6-5.6zm5.5-14.1c10.5 0 14.4-7.5 15.6-21.6.4-4.8.4-8.3.4-13.5l-.4-18.2-7.6-.2.4 18.4c0 5.7-.1 9.5-.5 13.6-.6 7.3-1.5 15.7-8.1 15.7s-7.5-10.5-8.2-15.7c-.3-2.1-.7-5.2-.7-13.8s.7-18.2.7-18.2H3s-.6 11.6-.6 18.1c0 6.4.4 10.8.6 13.8 1.1 13.9 4.2 21.6 15.7 21.6zm43.4 130.9c.8-.2 1.6-.2 2.4-.4 3.8-1.3 7.1-4.1 7.1-9.8.1-14.1-16.2-13.2-16.2-13.2-4.3 1.1-8.1 4-8.1 10.3 0 9.7 7.9 12.2 12.6 12.9 1.7.2 2.1.2 2.2.2zm-8-12.5c0-2.2 1.4-3.8 3.1-4.1 4.4 0 7.6.5 7.6 5.6 0 2.1-1.4 3.2-3.1 3.8-.2.1-.3.1-.5.2-.5.1-1.1.1-1.5.1-3.3-.1-5.6-1.1-5.6-5.6zm14-49c0 5.7-.1 9.5-.5 13.6-.6 7.3-1.5 15.7-8.1 15.7s-7.5-10.5-8.2-15.7c-.3-2.1-.7-5.2-.7-13.8s.7-18.2.7-18.2h-7.5s-.6 11.6-.6 18.1c0 6.4.4 10.8.6 13.8 1.1 13.8 4.2 21.5 15.7 21.5 10.5 0 14.4-7.5 15.6-21.6.4-4.8.4-8.3.4-13.5l-.5-18.2-7.5-.1.6 18.4zm129.1 38.6c-4.3 1.1-8.1 4-8.1 10.3 0 9.7 7.9 12.2 12.6 12.9 1.7.2 2.1.2 2.2.2.8-.2 1.6-.2 2.4-.4 3.8-1.3 7.1-4.1 7.1-9.8.1-14-16.2-13.2-16.2-13.2zm6.4 16.2c-.2.1-.3.1-.5.2-.5.1-1.1.1-1.5.1-3.3-.2-5.6-1.2-5.6-5.6 0-2.2 1.4-3.8 3.1-4.1 4.4 0 7.6.5 7.6 5.6-.1 2.2-1.5 3.2-3.1 3.8zm6-72.8l.4 18.4c0 5.7-.1 9.5-.5 13.6-.6 7.3-1.5 15.7-8.1 15.7s-7.5-10.5-8.2-15.7c-.3-2.1-.7-5.2-.7-13.8s.7-18.2.7-18.2h-7.5s-.6 11.6-.6 18.1c0 6.4.4 10.8.6 13.8 1.1 13.8 4.2 21.5 15.7 21.5 10.5 0 14.4-7.5 15.6-21.6.4-4.8.4-8.3.4-13.5l-.5-18.2-7.3-.1zM354 143.2l1.1-75.4h-7.5l-21.3 58.7 2.3-58.7h-7.4l-2.6 75.4h7.7l21.8-61.9-1.4 61.9zm-41.7 88.6l2.3-58.8h-7.4l-2.6 75.4h7.6l22-62-1.5 61.9 7.3.1 1.1-75.4h-7.5zm-191.8-59.6l-2.9 69.5-.3 5.9s3.1.4 7.3.3c8.4-.1 21.2-2 22-12.5 1.1-14.6-15.6-17.7-20.7-18.4l1.7-44.2-7.1-.6zm18.8 62.4c-.7 10-12.3 8.3-14.3 8l.7-19.6c8.3.8 14.1 5.4 13.6 11.6zm6.3-56.3l13-.2-1.6 69.8h6.8l1.8-69.8 11.9-.3V172l-31.8.6zM83.3 299.8c0-.4-.1-.9-.1-1.3-1.1-13.7-4.2-21.3-15.5-21.3-10.5 0-14.3 7.4-15.5 21.4-.4 4.8-.4 8.2-.4 13.4v5.6c0 5 .2 8.8.5 11.6v.8c0 .4.1.9.1 1.3 1.1 13.7 4.2 21.3 15.5 21.3 10.5 0 14.3-7.4 15.5-21.4.4-4.8.4-8.2.4-13.4v-5.6c0-5-.2-8.8-.5-11.6v-.8zm-7.6 31.7c-.6 7.2-1.5 13.7-8 13.7s-7.5-8.6-8.1-13.7c0-.2-.5-8.7-.5-17 0-8 .4-15.7.4-15.9.6-7.2 1.5-13.7 8-13.7s7.5 8.6 8.1 13.7c0 .2.5 8.3.5 16.3 0 8.1-.4 16.4-.4 16.6zm35.9-187.9l4.5-25.3 10.7-.5 2.8 25.6 8.1.2-10.1-75.7-7.8-.8-14.6 76.5h6.4zm10.7-60.3h.7l3.2 29.2-9.3.8 5.4-30zm-96 198.2l.1-4.2h-7.6l-.1 4.2c-5.3-.3-11.5 1.4-15.1 9.5-3.7 8.2-3.6 19.3-3.6 24.7 0 5.4.1 15 3.6 22.8 3.4 7.6 9.3 9.6 14.3 9.5l-.1 5.1h7.3l.1-5.1c5.3.4 11.7-1.3 15.4-9.5 3.5-7.8 3.6-17.4 3.6-22.8s.1-16.5-3.6-24.7c-3.4-7.6-9.2-9.6-14.3-9.5zM7.8 315.6c0-3.7-1.5-28.5 10.9-28.5l-.7 55.1c-11.1-1-10.2-23.1-10.2-26.6zm17.5 26.6l.9-55.1c11.6.8 10.3 24.8 10.3 28.5-.1 3.6.8 26.9-11.2 26.6zm69.9-155.9l6.9 62.3h8l-10-76.8-7.7-.8-14.7 77.6h6.4l10.5-62.2zm72.5-118.7l-2 76.2h7.6l.9-36.3 18.2 13.3-.9 23h7.7l2.8-76-7.4-.1-1.6 44.4L174.6 99l.8-31.3zm-49.2 252.5L100.2 307l.7-31.4-7.6-.1-2 76.1h7.5l1-36.1 18.1 13.2-.9 22.9h7.7l2.9-75.8-7.5-.2zm168.7-102.7l-18.3-13.1.7-31.4h-7.5l-2.1 76h7.5l1-36.1 18.2 13.3-.9 23h7.6l3-76-7.6-.1zM392.5 67.8l-21.3 58.7 2.3-58.7h-7.3l-2.7 75.4h7.6l22-61.9-1.6 61.9h7.4l1.1-75.4zm-9-2.7c8 0 9.6-6.1 9.9-11.4l-5.3-.6c-.2 3.4-.8 6.7-4.6 6.7-4.5 0-5.2-3.2-5.3-6.8l-5 .6c.5 6.9 3.3 11.5 10.3 11.5zm-26.6 166.7l2.4-58.8h-7.5l-2.7 75.4h7.8l21.9-62-1.5 61.9 7.3.1 1.1-75.4h-7.5zm12.3-61.5c8 0 9.6-6.1 9.9-11.4l-5.3-.6c-.2 3.4-.8 6.7-4.6 6.7-4.5 0-5.2-3.2-5.3-6.8l-5 .6c.6 7 3.4 11.5 10.3 11.5zM152.6 277.1l-19 75.3h38.5c.1 0-12.4-74.8-12.4-74.8l-7.1-.5zm-11 68.1c5.7-20.1 12.2-53.9 12.2-53.9h.5c0-.1 6.3 37.7 9 53.9h-21.7z" fill="#333"/></svg>