<?xml version="1.0" encoding="utf-8"?>
<!-- Generator: Adobe Illustrator 23.0.1, SVG Export Plug-In . SVG Version: 6.00 Build 0)  -->
<svg version="1.1" id="Layer_1" xmlns="http://www.w3.org/2000/svg" xmlns:xlink="http://www.w3.org/1999/xlink" x="0px" y="0px"
	 viewBox="0 0 400 400" style="enable-background:new 0 0 400 400;" xml:space="preserve">
<style type="text/css">
	.st0{fill:#333333;}
</style>
<g>
	<path class="st0" d="M274.1,128.1c-0.1-10-11.8-13.9-18.7-14.2l2.1-47.9h-7.6l-3.2,77.3l11.6-0.1
		C258.4,143.3,274.1,141.9,274.1,128.1z M254.4,137.5l0.9-17.9c3.9-0.2,11.1-0.1,11.1,9.3C266.4,135.5,258,137.8,254.4,137.5z"/>
	<path class="st0" d="M225.8,144.3c15-0.4,11.8-20.1,11.8-20.1l-7.6,0.8c0,0,3.1,11.6-3.8,11.6c-8.2,0-10.6-10.3-10-30.9
		c0.7-20.9,1.6-33,11.2-33c5.4,0,4.3,13.3,4.3,13.3l7.3-0.9c0,0,2.8-20.3-11.5-19.8s-18.8,19.8-18.7,39.9
		C209,125.4,210.8,144.8,225.8,144.3z"/>
	<path class="st0" d="M49.6,120.5c16.3-5.4,14.5,22.6,14.5,22.6h7.4c0,0.2,1.2-6.7-3.3-19.3c-3.6-10.2-13.2-10.3-18.7-8.9L50.1,99
		c20.7-2.3,22-31.3,22-31.3h-7.6C64.5,89.6,53.8,93,50.4,93l0.7-25.3h-7.8l-2.1,75.5h7.9L49.6,120.5z"/>
	<path class="st0" d="M34.5,171.9H27c0,21.9-11.6,26.4-15,26.4l0.7-26.3H4.9l-2.1,76.6h7.9l0.5-22.8c16.3-5.4,14.5,22.6,14.5,22.6
		H33c-0.1,0.1,1.1-6.8-3.3-19.4c-3.6-10.2-13.1-10.3-18.7-8.9l0.6-15.9C33.7,201.8,34.5,171.9,34.5,171.9z"/>
	<path class="st0" d="M309.2,143.1c0,0.2,1.2-6.7-3.3-19.3c-3.6-10.2-13.1-10.3-18.7-8.9l0.6-15.9c20.7-2.3,22-31.3,22-31.3h-7.6
		c0,21.9-10.7,25.3-14.1,25.3l0.7-25.3H281l-2,75.6h7.9l0.5-22.8c16.3-5.4,14.5,22.6,14.5,22.6H309.2L309.2,143.1z"/>
	<path class="st0" d="M84.3,143.8l1.5-44.2c5.1-0.2,22-2.2,22-16.9c0-10.5-12.7-13.3-21.1-14.1c-4.2-0.3-7.3-0.2-7.3-0.2v1.6
		l-2.2,73.8H84.3z M100.4,82.8c0,6.2-6,10.4-14.4,10.7l0.7-19.6C88.8,73.6,100.4,72.9,100.4,82.8z"/>
	<path class="st0" d="M234.9,173c-4.2-0.3-7.3-0.2-7.3-0.2v1.7l-2.2,73.7h7.1L234,204c5-0.2,22-2.1,22-16.9
		C256,176.6,243.2,173.8,234.9,173z M234.2,198.1l0.7-19.6c1.8-0.2,13.8-1.2,13.8,8.9C248.6,193.6,242.5,197.8,234.2,198.1z"/>
	<polygon class="st0" points="144.7,143.2 152.3,143.2 155.4,67.8 147.7,67.8 	"/>
	<path class="st0" d="M162.5,63.4c1.2,0.2,1.5,0.1,1.5,0.1c0.6-0.1,1.1-0.1,1.7-0.3c2.7-0.9,4.9-2.8,4.9-6.8
		c0.1-9.9-11.2-9.3-11.2-9.3c-3,0.8-5.6,2.8-5.6,7.2C153.8,61.1,159.2,62.9,162.5,63.4z M160.9,52.3c2.7,0,4.6,0.3,4.6,3.4
		c-0.1,1.3-1,2-1.9,2.3c-0.1,0-0.2,0.1-0.3,0.1c-0.3,0.1-0.6,0.1-0.9,0.1c-2-0.1-3.4-0.7-3.4-3.4C159,53.5,159.8,52.5,160.9,52.3z"
		/>
	<path class="st0" d="M140.9,63.4c1.2,0.2,1.5,0.1,1.5,0.1c0.6-0.1,1.1-0.1,1.7-0.3c2.7-0.9,4.9-2.8,4.9-6.8
		c0.1-9.9-11.2-9.3-11.2-9.3c-3,0.8-5.6,2.8-5.6,7.2C132.2,61.1,137.6,62.9,140.9,63.4z M139.3,52.3c2.7,0,4.6,0.3,4.6,3.4
		c0,1.3-0.9,2-1.9,2.3c-0.1,0-0.2,0.1-0.3,0.1c-0.3,0.1-0.6,0.1-0.9,0.1c-2-0.1-3.4-0.7-3.4-3.4C137.4,53.5,138.2,52.5,139.3,52.3z"
		/>
	<path class="st0" d="M21.2,147.8c0.8-0.2,1.6-0.2,2.4-0.4c3.8-1.3,7.1-4.1,7.1-9.8c0-14.1-16.2-13.2-16.2-13.2
		c-4.3,1.1-8.1,4-8.1,10.3c0,9.7,7.9,12.2,12.6,12.9C20.7,147.8,21.1,147.8,21.2,147.8z M13.2,135.3c0-2.2,1.4-3.8,3.1-4.1
		c4.4,0,7.6,0.5,7.6,5.6c0,2.1-1.5,3.2-3.1,3.8c-0.2,0.1-0.3,0.1-0.5,0.2c-0.5,0.1-1.1,0.1-1.5,0.1
		C15.5,140.8,13.2,139.8,13.2,135.3z"/>
	<path class="st0" d="M18.7,121.2c10.5,0,14.4-7.5,15.6-21.6c0.4-4.8,0.4-8.3,0.4-13.5l-0.4-18.2l-7.6-0.2l0.4,18.4
		c0,5.7-0.1,9.5-0.5,13.6c-0.6,7.3-1.5,15.7-8.1,15.7s-7.5-10.5-8.2-15.7c-0.3-2.1-0.7-5.2-0.7-13.8s0.7-18.2,0.7-18.2H3
		c0,0-0.6,11.6-0.6,18.1c0,6.4,0.4,10.8,0.6,13.8C4.1,113.5,7.2,121.2,18.7,121.2z"/>
	<path class="st0" d="M62.1,252.1c0.8-0.2,1.6-0.2,2.4-0.4c3.8-1.3,7.1-4.1,7.1-9.8c0.1-14.1-16.2-13.2-16.2-13.2
		c-4.3,1.1-8.1,4-8.1,10.3c0,9.7,7.9,12.2,12.6,12.9C61.6,252.1,62,252.1,62.1,252.1z M54.1,239.6c0-2.2,1.4-3.8,3.1-4.1
		c4.4,0,7.6,0.5,7.6,5.6c0,2.1-1.4,3.2-3.1,3.8c-0.2,0.1-0.3,0.1-0.5,0.2c-0.5,0.1-1.1,0.1-1.5,0.1
		C56.4,245.1,54.1,244.1,54.1,239.6z"/>
	<path class="st0" d="M68.1,190.6c0,5.7-0.1,9.5-0.5,13.6c-0.6,7.3-1.5,15.7-8.1,15.7s-7.5-10.5-8.2-15.7c-0.3-2.1-0.7-5.2-0.7-13.8
		s0.7-18.2,0.7-18.2h-7.5c0,0-0.6,11.6-0.6,18.1c0,6.4,0.4,10.8,0.6,13.8c1.1,13.8,4.2,21.5,15.7,21.5c10.5,0,14.4-7.5,15.6-21.6
		c0.4-4.8,0.4-8.3,0.4-13.5L75,172.3l-7.5-0.1L68.1,190.6z"/>
	<path class="st0" d="M197.2,229.2c-4.3,1.1-8.1,4-8.1,10.3c0,9.7,7.9,12.2,12.6,12.9c1.7,0.2,2.1,0.2,2.2,0.2
		c0.8-0.2,1.6-0.2,2.4-0.4c3.8-1.3,7.1-4.1,7.1-9.8C213.5,228.4,197.2,229.2,197.2,229.2z M203.6,245.4c-0.2,0.1-0.3,0.1-0.5,0.2
		c-0.5,0.1-1.1,0.1-1.5,0.1c-3.3-0.2-5.6-1.2-5.6-5.6c0-2.2,1.4-3.8,3.1-4.1c4.4,0,7.6,0.5,7.6,5.6
		C206.6,243.8,205.2,244.8,203.6,245.4z"/>
	<path class="st0" d="M209.6,172.6L210,191c0,5.7-0.1,9.5-0.5,13.6c-0.6,7.3-1.5,15.7-8.1,15.7s-7.5-10.5-8.2-15.7
		c-0.3-2.1-0.7-5.2-0.7-13.8s0.7-18.2,0.7-18.2h-7.5c0,0-0.6,11.6-0.6,18.1c0,6.4,0.4,10.8,0.6,13.8c1.1,13.8,4.2,21.5,15.7,21.5
		c10.5,0,14.4-7.5,15.6-21.6c0.4-4.8,0.4-8.3,0.4-13.5l-0.5-18.2L209.6,172.6z"/>
	<polygon class="st0" points="354,143.2 355.1,67.8 347.6,67.8 326.3,126.5 328.6,67.8 321.2,67.8 318.6,143.2 326.3,143.2 
		348.1,81.3 346.7,143.2 	"/>
	<polygon class="st0" points="312.3,231.8 314.6,173 307.2,173 304.6,248.4 312.2,248.4 334.2,186.4 332.7,248.3 340,248.4 
		341.1,173 333.6,173 	"/>
	<path class="st0" d="M120.5,172.2l-2.9,69.5l0,0l-0.3,5.9c0,0,3.1,0.4,7.3,0.3c8.4-0.1,21.2-2,22-12.5
		c1.1-14.6-15.6-17.7-20.7-18.4l1.7-44.2L120.5,172.2z M139.3,234.6c-0.7,10-12.3,8.3-14.3,8l0.7-19.6
		C134,223.8,139.8,228.4,139.3,234.6z"/>
	<polygon class="st0" points="145.6,178.3 158.6,178.1 157,247.9 163.8,247.9 165.6,178.1 177.5,177.8 177.5,172 145.7,172.6 	"/>
	<path class="st0" d="M83.3,299.8c0-0.4-0.1-0.9-0.1-1.3c-1.1-13.7-4.2-21.3-15.5-21.3c-10.5,0-14.3,7.4-15.5,21.4
		c-0.4,4.8-0.4,8.2-0.4,13.4v1.8c0,1.4,0,2.7,0,3.8c0,5,0.2,8.8,0.5,11.6v0.8c0,0.4,0.1,0.9,0.1,1.3c1.1,13.7,4.2,21.3,15.5,21.3
		c10.5,0,14.3-7.4,15.5-21.4c0.4-4.8,0.4-8.2,0.4-13.4V316c0-1.3,0-2.6,0-3.8c0-5-0.2-8.8-0.5-11.6V299.8z M75.7,331.5
		c-0.6,7.2-1.5,13.7-8,13.7s-7.5-8.6-8.1-13.7c0-0.2-0.5-8.7-0.5-17c0-8,0.4-15.7,0.4-15.9c0.6-7.2,1.5-13.7,8-13.7
		s7.5,8.6,8.1,13.7c0,0.2,0.5,8.3,0.5,16.3C76.1,323,75.7,331.3,75.7,331.5z"/>
	<path class="st0" d="M111.6,143.6l4.5-25.3l10.7-0.5l2.8,25.6l8.1,0.2l-10.1-75.7l-7.8-0.8l-14.6,76.5H111.6z M122.3,83.3h0.7
		l3.2,29.2l-9.3,0.8L122.3,83.3z"/>
	<path class="st0" d="M26.3,281.5l0.1-4.2h-7.6l-0.1,4.2c-5.3-0.3-11.5,1.4-15.1,9.5c-3.7,8.2-3.6,19.3-3.6,24.7
		c0,5.4,0.1,15,3.6,22.8c3.4,7.6,9.3,9.6,14.3,9.5l-0.1,5.1h7.3l0.1-5.1c5.3,0.4,11.7-1.3,15.4-9.5c3.5-7.8,3.6-17.4,3.6-22.8
		s0.1-16.5-3.6-24.7C37.2,283.4,31.4,281.4,26.3,281.5z M7.8,315.6c0-3.7-1.5-28.5,10.9-28.5L18,342.2
		C6.9,341.2,7.8,319.1,7.8,315.6z M25.3,342.2l0.9-55.1c11.6,0.8,10.3,24.8,10.3,28.5C36.4,319.2,37.3,342.5,25.3,342.2z"/>
	<polygon class="st0" points="95.2,186.3 102.1,248.6 110.1,248.6 100.1,171.8 92.4,171 77.7,248.6 84.1,248.6 94.6,186.4 	"/>
	<polygon class="st0" points="167.7,67.6 165.7,143.8 173.3,143.8 174.2,107.5 192.4,120.8 191.5,143.8 199.2,143.8 202,67.8 
		194.6,67.7 193,112.1 174.6,99 175.4,67.7 	"/>
	<polygon class="st0" points="118.5,320.1 100.2,307 100.9,275.6 93.3,275.5 91.3,351.6 98.8,351.6 99.8,315.5 117.9,328.7 
		117,351.6 124.7,351.6 127.6,275.8 120.1,275.6 	"/>
	<polygon class="st0" points="287.2,217.4 268.9,204.3 269.6,172.9 262.1,172.9 260,248.9 267.5,248.9 268.5,212.8 286.7,226.1 
		285.8,249.1 293.4,249.1 296.4,173.1 288.8,173 	"/>
	<polygon class="st0" points="392.5,67.8 371.2,126.5 373.5,67.8 366.2,67.8 363.5,143.2 371.1,143.2 393.1,81.3 391.5,143.2 
		398.9,143.2 400,67.8 	"/>
	<path class="st0" d="M383.5,65.1c8,0,9.6-6.1,9.9-11.4l-5.3-0.6c-0.2,3.4-0.8,6.7-4.6,6.7c-4.5,0-5.2-3.2-5.3-6.8l-5,0.6
		C373.7,60.5,376.5,65.1,383.5,65.1z"/>
	<polygon class="st0" points="356.9,231.8 359.3,173 351.8,173 349.1,248.4 356.9,248.4 378.8,186.4 377.3,248.3 384.6,248.4 
		385.7,173 378.2,173 	"/>
	<path class="st0" d="M369.2,170.3c8,0,9.6-6.1,9.9-11.4l-5.3-0.6c-0.2,3.4-0.8,6.7-4.6,6.7c-4.5,0-5.2-3.2-5.3-6.8l-5,0.6
		C359.5,165.8,362.3,170.3,369.2,170.3z"/>
	<path class="st0" d="M152.6,277.1l-19,75.3h2.8h3.1h25.1h3.7h3.8c0.1,0-12.4-74.8-12.4-74.8L152.6,277.1z M141.6,345.2
		c5.7-20.1,12.2-53.9,12.2-53.9h0.5c0-0.1,6.3,37.7,9,53.9H141.6z"/>
</g>
</svg>
